<svg width="85" height="97" viewBox="0 0 85 97" fill="none" xmlns="http://www.w3.org/2000/svg">
<path d="M20.68 22.9679C25.5 18.1881 31.8444 15.5824 38.5552 15.6469L38.5558 15.6469C45.2239 15.7032 51.4814 18.341 56.18 23.077C60.8814 27.8157 63.4697 34.0997 63.4697 40.7753C63.4697 47.3889 60.9225 53.6307 56.2957 58.3552C51.6632 63.0853 49.1153 69.4335 49.1153 76.2229V78.7531V89.7446C49.1153 90.5311 48.4777 91.1687 47.6912 91.1687H44.5807H44.2064L44.1009 91.5279C43.3278 94.162 40.8902 96.0902 38.0122 96.0902C35.1341 96.0902 32.6966 94.162 31.9236 91.5279L31.8182 91.1687H31.4439H28.9895C28.2029 91.1687 27.5654 90.5311 27.5654 89.7446V78.7531V76.2217C27.5654 69.4937 24.9714 63.1036 20.2642 58.2309C15.7155 53.5221 13.2109 47.3243 13.2109 40.7757C13.2109 34.0691 15.8616 27.7463 20.68 22.9679ZM20.68 22.9679L20.3279 22.6129L20.68 22.9679ZM35.7156 91.1687H34.6432L35.3326 91.9901C35.9735 92.7538 36.9366 93.2419 38.0122 93.2419C39.0877 93.2419 40.0509 92.7538 40.6918 91.9901L41.3811 91.1687H40.3088H35.7156ZM45.7671 88.3205H46.2671V87.8205V80.6772V80.1772H45.7671H30.9136H30.4136V80.6772V87.8205V88.3205H30.9136H33.0907H42.9337H45.7671ZM45.7671 77.3292H46.2671V76.8292V76.2231C46.2671 68.675 49.1078 61.6239 54.2608 56.3623C58.362 52.1745 60.6215 46.6378 60.6215 40.7753C60.6215 28.5914 50.7132 18.5975 38.5319 18.495L38.5313 18.495C32.5924 18.4515 26.9583 20.7535 22.6856 24.9904L22.6856 24.9904C18.4147 29.2257 16.0592 34.8328 16.0592 40.7757C16.0592 46.5806 18.2804 52.0782 22.3126 56.2521C27.5378 61.6612 30.4136 68.7523 30.4136 76.2219V76.8292V77.3292H30.9136H45.7671Z" fill="white" stroke="#005896"/>
<path d="M39.7642 8.77085C39.7642 9.55739 39.1267 10.195 38.3401 10.195C37.5536 10.195 36.916 9.55739 36.916 8.77085V1.92411C36.916 1.13757 37.5536 0.5 38.3401 0.5C39.1267 0.5 39.7642 1.13757 39.7642 1.92411V8.77085Z" fill="white" stroke="#005896"/>
<path d="M11.9474 1.90206L11.9474 1.90204C11.4852 1.26586 10.5948 1.12475 9.95825 1.58702L11.9474 1.90206ZM11.9474 1.90206L13.315 3.78439C13.3151 3.7844 13.3151 3.78441 13.3151 3.78441M11.9474 1.90206L13.3151 3.78441M11.0107 5.45841C11.2892 5.84166 11.7226 6.04561 12.1645 6.04561C12.4546 6.04561 12.7467 5.95752 13 5.77363L11.0107 5.45841ZM11.0107 5.45841C11.0107 5.4584 11.0107 5.45838 11.0106 5.45837M11.0107 5.45841L11.0106 5.45837M11.0106 5.45837L9.64322 3.57626L11.0106 5.45837ZM13.3151 3.78441C13.7773 4.42066 13.6364 5.31107 13.0001 5.77353L13.3151 3.78441ZM9.64321 3.57625C9.18097 2.93999 9.3219 2.04955 9.95815 1.58709L9.64321 3.57625Z" fill="white" stroke="#005896"/>
<path d="M17.2364 9.17861L17.2365 9.17861L20.914 14.2406C21.3763 14.8769 21.2352 15.7675 20.599 16.2297C20.3457 16.4137 20.0535 16.5018 19.7635 16.5018C19.3215 16.5018 18.8881 16.2978 18.6096 15.9145L14.9323 10.8528L14.5376 11.1395L14.9323 10.8528C14.47 10.2165 14.611 9.32586 15.2473 8.86364L15.2473 8.86362C15.8837 8.40119 16.7742 8.54233 17.2364 9.17861Z" fill="white" stroke="#005896"/>
<path d="M9.7908 31.5403L9.79081 31.5403C10.0339 30.7922 9.6245 29.9889 8.8765 29.7458L2.36489 27.6301C2.36486 27.6301 2.36483 27.63 2.3648 27.63C1.61692 27.3873 0.813331 27.7965 0.570265 28.5443L9.7908 31.5403ZM9.7908 31.5403C9.59551 32.1414 9.0375 32.525 8.4367 32.525C8.29167 32.525 8.14343 32.5025 7.99598 32.4547M9.7908 31.5403L7.99598 32.4547M7.99598 32.4547L1.48453 30.339C1.48453 30.339 1.48452 30.339 1.48451 30.339C0.736469 30.0959 0.327151 29.2927 0.570247 28.5443L7.99598 32.4547Z" fill="white" stroke="#005896"/>
<path d="M0.826098 53.2755L0.826107 53.2755C1.0214 53.8766 1.57925 54.2601 2.18021 54.2601C2.32524 54.2601 2.47348 54.2377 2.62092 54.1899L9.13227 52.0742C9.13231 52.0742 9.13235 52.0742 9.13239 52.0742C9.8803 51.8309 10.2896 51.0276 10.0467 50.2795L0.826098 53.2755ZM0.826098 53.2755C0.583017 52.5275 0.992389 51.7241 1.74036 51.481C1.74037 51.481 1.74039 51.481 1.7404 51.481L8.252 49.3653M0.826098 53.2755L8.252 49.3653M8.252 49.3653L8.25211 49.3652C9.0007 49.1223 9.80353 49.5315 10.0466 50.2794L8.252 49.3653Z" fill="white" stroke="#005896"/>
<path d="M13.656 75.7656L13.6559 75.7656C13.02 75.3034 12.1293 75.4444 11.6668 76.0806L13.656 75.7656ZM13.656 75.7656C14.2925 76.2281 14.4334 77.1185 13.9712 77.7546L13.9712 77.7546L12.2582 80.1121C12.2582 80.1122 12.2582 80.1122 12.2581 80.1122C11.9796 80.4954 11.5461 80.6994 11.1043 80.6994C10.814 80.6994 10.5219 80.6114 10.2688 80.4274L10.2687 80.4274C9.63252 79.9652 9.49147 79.0745 9.95374 78.4382C9.95375 78.4382 9.95376 78.4382 9.95376 78.4382L11.6667 76.0807L13.656 75.7656Z" fill="white" stroke="#005896"/>
<path d="M16.108 69.9703L16.108 69.9703L17.8098 67.6277C17.8099 67.6277 17.8099 67.6277 17.8099 67.6277C18.2722 66.9916 19.1628 66.8505 19.7991 67.3127C20.4354 67.775 20.5764 68.6657 20.1143 69.3017L20.1142 69.3017L18.4124 71.6443C18.4124 71.6443 18.4124 71.6443 18.4124 71.6443C18.1339 72.0276 17.7003 72.2315 17.2585 72.2315C16.9683 72.2315 16.6762 72.1435 16.423 71.9596L16.423 71.9595C15.7869 71.4973 15.6458 70.6066 16.108 69.9703Z" fill="white" stroke="#005896"/>
<path d="M58.9025 65.1161L58.9025 65.1161C58.4402 64.4798 57.5498 64.3387 56.9133 64.8011L58.9025 65.1161ZM58.9025 65.1161L62.9271 70.6556M58.9025 65.1161L62.9271 70.6556M56.5983 66.7903C56.5983 66.7903 56.5983 66.7903 56.5983 66.7903L60.6227 72.3296C60.9012 72.7129 61.3346 72.9168 61.7766 72.9168C62.0666 72.9168 62.3588 72.8287 62.6121 72.6449L56.5983 66.7903ZM56.5983 66.7903C56.136 66.154 56.277 65.2636 56.9133 64.8011L56.5983 66.7903ZM62.9271 70.6556C63.3893 71.2919 63.2484 72.1823 62.6122 72.6448L62.9271 70.6556Z" fill="white" stroke="#005896"/>
<path d="M76.9412 52.4859L76.9412 52.486C76.7459 53.0871 76.1879 53.4706 75.5871 53.4706C75.442 53.4706 75.2938 53.4482 75.1464 53.4004L68.6349 51.2845C68.6349 51.2845 68.6349 51.2845 68.6349 51.2845C67.8869 51.0414 67.4776 50.2379 67.7206 49.49C67.9637 48.7422 68.7671 48.3329 69.5152 48.5757C69.5152 48.5757 69.5152 48.5757 69.5153 48.5758L76.0269 50.6917C76.775 50.9348 77.1842 51.7383 76.9412 52.4859Z" fill="white" stroke="#005896"/>
<path d="M78.8964 27.0364L78.8964 27.0364C79.0917 27.6375 79.6496 28.0211 80.2505 28.0211C80.3956 28.0211 80.5438 27.9986 80.6912 27.9508L83.515 27.0333C83.5151 27.0333 83.5151 27.0333 83.5152 27.0333C84.2631 26.7899 84.6723 25.9866 84.4294 25.2385L78.8964 27.0364ZM78.8964 27.0364C78.6533 26.2884 79.0627 25.485 79.8107 25.2419C79.8107 25.2419 79.8107 25.2419 79.8107 25.2419L82.6349 24.3243L78.8964 27.0364ZM82.6349 24.3243C83.3832 24.0812 84.1865 24.4906 84.4294 25.2385L82.6349 24.3243Z" fill="white" stroke="#005896"/>
<path d="M69.2574 31.6656C69.2575 31.6656 69.2576 31.6655 69.2576 31.6655L74.2588 30.0405C74.2589 30.0405 74.2589 30.0405 74.2589 30.0405C75.0068 29.7974 75.4162 28.9941 75.1732 28.246L69.2574 31.6656ZM69.2574 31.6656C69.2574 31.6656 69.2574 31.6656 69.2574 31.6656M69.2574 31.6656L69.2574 31.6656M69.2574 31.6656C69.11 31.7134 68.9619 31.7358 68.8169 31.7358M69.2574 31.6656L68.8169 31.7358M68.8169 31.7358C68.2162 31.7358 67.6583 31.3523 67.4628 30.7513L68.8169 31.7358ZM73.3786 27.3317C73.3786 27.3317 73.3786 27.3317 73.3786 27.3317L68.3771 28.9568C67.6292 29.1999 67.2198 30.0032 67.4628 30.7512L73.3786 27.3317ZM73.3786 27.3317C74.1269 27.0886 74.93 27.498 75.1731 28.246L73.3786 27.3317Z" fill="white" stroke="#005896"/>
<path d="M56.2415 15.7418L56.2415 15.7418C55.6051 15.2793 55.4641 14.3888 55.9266 13.7524L55.9266 13.7523L59.9511 8.21306C59.9511 8.21305 59.9511 8.21304 59.9511 8.21303C60.4134 7.57693 61.3039 7.43577 61.9403 7.89807C62.5764 8.36036 62.7175 9.25099 62.2553 9.88723C62.2553 9.88723 62.2553 9.88724 62.2553 9.88724L58.2309 15.4265C57.9524 15.8097 57.5188 16.0137 57.077 16.0137C56.7868 16.0137 56.4946 15.9257 56.2415 15.7418Z" fill="white" stroke="#005896"/>
<path d="M42.169 23.108L42.1691 23.108C44.7725 23.6715 47.2669 24.8363 49.3802 26.4762C50.0016 26.9584 50.1144 27.8531 49.6324 28.4744L49.6324 28.4745C49.3521 28.8358 48.9324 29.0255 48.5061 29.0255C48.2008 29.0255 47.8943 28.9282 47.6343 28.7265L47.6342 28.7264C45.8551 27.3461 43.758 26.3661 41.5667 25.8919L41.5667 25.8919C40.798 25.7255 40.3096 24.9675 40.476 24.1987L40.476 24.1987C40.6423 23.4298 41.4009 22.9415 42.169 23.108Z" fill="white" stroke="#005896"/>
<path d="M33.3853 23.3904L33.3853 23.3904C25.693 25.5858 20.3184 32.7144 20.3184 40.7228C20.3184 41.5093 20.9559 42.1469 21.7425 42.1469C22.529 42.1469 23.1666 41.5093 23.1666 40.7228C23.1666 33.9781 27.6887 27.9783 34.1671 26.1294L33.3853 23.3904ZM33.3853 23.3904C34.1412 23.1746 34.9294 23.6126 35.1458 24.369L33.3853 23.3904ZM35.1459 24.3693C35.3615 25.1256 34.9234 25.9135 34.1672 26.1294L35.1459 24.3693Z" fill="white" stroke="#005896"/>
</svg>
