<svg width="100" height="100" viewBox="0 0 100 100" fill="none" xmlns="http://www.w3.org/2000/svg">
<g clip-path="url(#clip0)">
<path d="M50.1008 17.7999C43.3008 17.6999 36.8008 20.3999 31.9008 25.2999C27.0008 30.1999 24.3008 36.5999 24.3008 43.4999C24.3008 50.1999 26.9008 56.4999 31.5008 61.2999C36.1008 66.0999 38.7008 72.2999 38.7008 78.8999V81.3999V92.3999C38.7008 93.4999 39.6008 94.2999 40.6008 94.2999H43.1008C43.9008 97.0999 46.6008 99.1999 49.7008 99.1999C52.8008 99.1999 55.4008 97.0999 56.3008 94.2999H59.4008C60.5008 94.2999 61.3008 93.3999 61.3008 92.3999V81.3999V78.8999C61.3008 72.1999 63.8008 65.9999 68.3008 61.3999C73.0008 56.5999 75.6008 50.1999 75.6008 43.4999C75.6008 36.6999 73.0008 30.2999 68.2008 25.3999C63.2008 20.5999 56.9008 17.8999 50.1008 17.7999ZM49.5008 95.3999C48.6008 95.3999 47.8008 94.9999 47.2008 94.2999H51.8008C51.3008 94.9999 50.4008 95.3999 49.5008 95.3999ZM57.3008 90.4999H54.5008H44.7008H42.5008V83.3999H57.4008V90.4999H57.3008ZM65.4008 58.6999C60.2008 64.0999 57.3008 71.1999 57.3008 78.8999V79.4999H42.4008V78.8999C42.4008 71.2999 39.5008 64.0999 34.2008 58.5999C30.3008 54.4999 28.1008 49.0999 28.1008 43.4999C28.1008 37.6999 30.4008 32.1999 34.6008 28.0999C38.8008 23.9999 44.3008 21.6999 50.1008 21.6999C62.0008 21.7999 71.7008 31.5999 71.7008 43.4999C71.6008 49.1999 69.4008 54.5999 65.4008 58.6999Z" fill="white" stroke="#005896" stroke-width="2" stroke-miterlimit="10"/>
<path d="M49.8004 13.4C50.9004 13.4 51.7004 12.5 51.7004 11.5V4.59995C51.7004 3.49995 50.8004 2.69995 49.8004 2.69995C48.8004 2.69995 47.9004 3.59995 47.9004 4.59995V11.4C47.9004 12.5 48.8004 13.4 49.8004 13.4Z" fill="white" stroke="#005896" stroke-width="2" stroke-miterlimit="10"/>
<path d="M22.1002 8.39996C22.5002 8.89996 23.1002 9.19996 23.7002 9.19996C24.1002 9.19996 24.5002 9.09996 24.8002 8.79996C25.7002 8.19996 25.9002 6.99996 25.2002 6.09996L23.8002 4.19996C23.2002 3.29996 22.0002 3.09996 21.1002 3.79996C20.2002 4.39996 20.0002 5.59996 20.7002 6.49996L22.1002 8.39996Z" fill="white" stroke="#005896" stroke-width="2" stroke-miterlimit="10"/>
<path d="M29.701 18.9C30.101 19.4 30.701 19.7 31.301 19.7C31.701 19.7 32.101 19.6 32.401 19.3C33.301 18.7 33.501 17.5 32.801 16.6L29.101 11.5C28.501 10.6 27.301 10.4 26.401 11.1C25.501 11.7 25.301 12.9 26.001 13.8L29.701 18.9Z" fill="white" stroke="#005896" stroke-width="2" stroke-miterlimit="10"/>
<path d="M12.8001 33.5L19.3001 35.6C19.5001 35.7 19.7001 35.7 19.9001 35.7C20.7001 35.7 21.5001 35.2 21.7001 34.4C22.0001 33.4 21.5001 32.3 20.5001 32L14.0001 29.8C13.0001 29.5 11.9001 30 11.6001 31C11.3001 32.1 11.8001 33.1 12.8001 33.5Z" fill="white" stroke="#005896" stroke-width="2" stroke-miterlimit="10"/>
<path d="M22.0007 52.7999C21.7007 51.7999 20.6007 51.1999 19.6007 51.5999L13.1007 53.6999C12.1007 53.9999 11.5007 55.0999 11.9007 56.0999C12.2007 56.8999 12.9007 57.3999 13.7007 57.3999C13.9007 57.3999 14.1007 57.3999 14.3007 57.2999L20.8007 55.1999C21.8007 54.8999 22.4007 53.7999 22.0007 52.7999Z" fill="white" stroke="#005896" stroke-width="2" stroke-miterlimit="10"/>
<path d="M25.5008 78C24.6008 77.4 23.4008 77.6 22.8008 78.4L21.1008 80.8C20.5008 81.7 20.7008 82.9 21.5008 83.5C21.8008 83.7 22.2008 83.9 22.6008 83.9C23.2008 83.9 23.8008 83.6 24.2008 83.1L25.9008 80.7C26.5008 79.8 26.3008 78.6 25.5008 78Z" fill="white" stroke="#005896" stroke-width="2" stroke-miterlimit="10"/>
<path d="M31.6004 69.6C30.7004 69 29.5004 69.2 28.9004 70L27.2004 72.3C26.6004 73.2 26.8004 74.4 27.6004 75C27.9004 75.2 28.3004 75.4 28.7004 75.4C29.3004 75.4 29.9004 75.1 30.3004 74.6L32.0004 72.3C32.6004 71.4 32.5004 70.2 31.6004 69.6Z" fill="white" stroke="#005896" stroke-width="2" stroke-miterlimit="10"/>
<path d="M70.8002 67.5C70.2002 66.6 69.0002 66.4 68.1002 67.1C67.2002 67.7 67.0002 68.9 67.7002 69.8L71.7002 75.3C72.1002 75.8 72.7002 76.1 73.3002 76.1C73.7002 76.1 74.1002 76 74.4002 75.7C75.3002 75.1 75.5002 73.9 74.8002 73L70.8002 67.5Z" fill="white" stroke="#005896" stroke-width="2" stroke-miterlimit="10"/>
<path d="M87.6993 52.9L81.1993 50.8C80.1993 50.5 79.0994 51 78.7994 52C78.4994 53 78.9994 54.1 79.9994 54.4L86.4994 56.5C86.6994 56.6 86.8994 56.6 87.0994 56.6C87.8994 56.6 88.6994 56.1 88.8994 55.3C89.1994 54.3 88.6993 53.2 87.6993 52.9Z" fill="white" stroke="#005896" stroke-width="2" stroke-miterlimit="10"/>
<path d="M96.4003 27.6999C96.1003 26.6999 95.0003 26.0999 94.0003 26.4999L91.2003 27.3999C90.2003 27.6999 89.6003 28.7999 90.0003 29.7999C90.3003 30.5999 91.0003 31.0999 91.8003 31.0999C92.0003 31.0999 92.2003 31.0999 92.4003 30.9999L95.2003 30.0999C96.2003 29.7999 96.7003 28.7999 96.4003 27.6999Z" fill="white" stroke="#005896" stroke-width="2" stroke-miterlimit="10"/>
<path d="M80.3003 34.8999C80.5003 34.8999 80.7003 34.8999 80.9003 34.7999L85.9003 33.1999C86.9003 32.8999 87.5003 31.7999 87.1003 30.7999C86.8003 29.7999 85.7003 29.1999 84.7003 29.5999L79.7003 31.1999C78.7003 31.4999 78.1003 32.5999 78.5003 33.5999C78.8003 34.3999 79.5003 34.8999 80.3003 34.8999Z" fill="white" stroke="#005896" stroke-width="2" stroke-miterlimit="10"/>
<path d="M67.3993 18.7999C67.6993 18.9999 68.0993 19.1999 68.4993 19.1999C69.0993 19.1999 69.6993 18.8999 70.0993 18.3999L74.0993 12.8999C74.6993 11.9999 74.4993 10.7999 73.6993 10.1999C72.7993 9.59994 71.5993 9.79994 70.9993 10.5999L66.9993 16.0999C66.3993 16.9999 66.5993 18.1999 67.3993 18.7999Z" fill="white" stroke="#005896" stroke-width="2" stroke-miterlimit="10"/>
<path d="M61.201 28.7C59.001 27 56.501 25.8 53.801 25.2C52.801 25 51.701 25.6 51.501 26.7C51.301 27.7 51.901 28.8 53.001 29C55.101 29.5 57.101 30.4 58.901 31.7C59.301 32 59.701 32.1 60.101 32.1C60.701 32.1 61.201 31.8 61.601 31.4C62.201 30.6 62.001 29.4 61.201 28.7Z" fill="white" stroke="#005896" stroke-width="2" stroke-miterlimit="10"/>
<path d="M44.7008 25.6C36.8008 27.9 31.3008 35.2 31.3008 43.4C31.3008 44.5 32.2008 45.3 33.2008 45.3C34.2008 45.3 35.1008 44.4 35.1008 43.4C35.1008 36.9 39.5008 31.1 45.7008 29.3C46.7008 29 47.3008 27.9 47.0008 26.9C46.8008 25.9 45.8008 25.3 44.7008 25.6Z" fill="white" stroke="#005896" stroke-width="2" stroke-miterlimit="10"/>
</g>
<defs>
<clipPath id="clip0">
<rect width="100" height="100" fill="white"/>
</clipPath>
</defs>
</svg>
