<svg width="100" height="100" viewBox="0 0 100 100" fill="none" xmlns="http://www.w3.org/2000/svg">
<path d="M46.4008 65.5C46.1008 65.2 45.6008 65 45.1008 65C44.6008 65 44.2008 65.2 43.8008 65.5C43.5008 65.8 43.3008 66.3 43.3008 66.8C43.3008 67.3 43.5008 67.7 43.8008 68.1C44.1008 68.4 44.6008 68.6 45.1008 68.6C45.6008 68.6 46.0008 68.4 46.4008 68.1C46.7008 67.8 46.9008 67.3 46.9008 66.8C46.9008 66.3 46.8008 65.8 46.4008 65.5Z" fill="#005896" stroke="white" stroke-width="2" stroke-miterlimit="10"/>
<path d="M81.2992 11.1H62.9992C61.9992 11.1 61.1992 11.9 61.1992 12.9C61.1992 13.9 61.9992 14.7 62.9992 14.7H81.2992C82.0992 14.7 82.6992 15.3 82.6992 16.1V29.6C82.6992 30.6 83.4992 31.4 84.4992 31.4C85.4992 31.4 86.2992 30.6 86.2992 29.6V16.1C86.2992 13.3 84.0992 11.1 81.2992 11.1Z" fill="#005896" stroke="white" stroke-width="2" stroke-miterlimit="10"/>
<path d="M57.6996 11.6C57.3996 11.3 56.8996 11.1 56.3996 11.1C55.8996 11.1 55.4996 11.3 55.0996 11.6C54.7996 11.9 54.5996 12.4 54.5996 12.9C54.5996 13.4 54.7996 13.8 55.0996 14.2C55.3996 14.5 55.8996 14.7 56.3996 14.7C56.8996 14.7 57.2996 14.5 57.6996 14.2C57.9996 13.9 58.1996 13.4 58.1996 12.9C58.2996 12.4 58.0996 11.9 57.6996 11.6Z" fill="#005896" stroke="white" stroke-width="2" stroke-miterlimit="10"/>
<path d="M80.7 59.3C83 57.1 84.4 53.9 84.4 50.5V37.3C84.4 36.3 83.6 35.5 82.6 35.5H69.6C64.2 35.5 59.8 39.9 59.8 45.3V50.4C59.8 53.8 61.2 56.9 63.5 59.2H51.8V55.5C51.8 48.7 46.7 43 40 42.2C41.3 40.6 42.1 38.5 42.1 36.3V29C42.1 28.9 42.1 28.9 42.1 28.8C42.1 28.7 42.1 28.5 42.1 28.4V23.7C42.1 22.7 41.3 21.9 40.3 21.9H30.9C26.7 21.9 23.3 25.3 23.3 29.5V31.3V32.8V36.4C23.3 38.6 24.1 40.7 25.4 42.3C18.8 43.1 13.6 48.8 13.6 55.6V59.3H7.6V16.1C7.6 15.3 8.2 14.7 9 14.7H11.1C12.1 14.7 12.9 13.9 12.9 12.9C12.9 11.9 12.1 11.1 11.1 11.1H9C6.2 11.1 4 13.3 4 16.1V69.4C4 72.1 6.2 74.4 9 74.4H36.3V82.7C31.8 83.2 28.2 87 28.2 91.6C28.2 92.6 29 93.4 30 93.4H94.1C95.1 93.4 95.9 92.6 95.9 91.6V75.9C96 67.2 89.3 60 80.7 59.3ZM63.3 50.5V45.4C63.3 42 66.1 39.2 69.5 39.2H80.8V50.6C80.8 55.4 76.9 59.4 72 59.4C67.1 59.4 63.3 55.3 63.3 50.5ZM27 29.5C27 27.3 28.8 25.5 31 25.5H38.6V28.4C38.6 29.8 37.4 31 36 31H27V29.5ZM27 34.6H36C36.9 34.6 37.8 34.4 38.6 34V36.4C38.6 39.6 36 42.2 32.8 42.2C29.6 42.2 27 39.6 27 36.4V34.6ZM32.6 48.6L30.4 46H35.1L32.9 48.6C32.8 48.7 32.7 48.7 32.6 48.6ZM17.3 55.6C17.3 50.7 20.9 46.6 25.7 45.9L31.5 51.7C31.9 52.1 32.3 52.2 32.8 52.2C33.3 52.2 33.7 52 34.1 51.7L39.9 45.9C44.6 46.6 48.3 50.7 48.3 55.6V59.3H17.3V55.6ZM48.2 89.8H32.2C32.9 87.7 34.9 86.2 37.3 86.2H48.2V89.8ZM48.2 75.9V82.6H39.9V74.3H48.2C48.2 74.8 48.2 75.4 48.2 75.9ZM9 70.7C8.2 70.7 7.6 70.1 7.6 69.3V62.8H54.6C52.1 64.8 50.1 67.6 49.1 70.7H9ZM92.4 82.6H78.7C77.7 82.6 76.9 83.4 76.9 84.4C76.9 85.4 77.7 86.2 78.7 86.2H92.4V89.8H51.8V75.9C51.8 68.7 57.6 62.9 64.8 62.8H70.1H79.3C86.5 62.8 92.4 68.7 92.4 75.9V82.6Z" fill="#005896" stroke="white" stroke-width="2" stroke-miterlimit="10"/>
<path d="M32.8 1.40002C31.8 1.40002 31 2.20002 31 3.20002V12.9C31 13.9 31.8 14.7 32.8 14.7C33.8 14.7 34.6 13.9 34.6 12.9V3.20002C34.6 2.20002 33.8 1.40002 32.8 1.40002Z" fill="#005896" stroke="white" stroke-width="2" stroke-miterlimit="10"/>
<path d="M48.0004 8.4C47.3004 7.7 46.2004 7.7 45.5004 8.4L42.3004 11.6C41.6004 12.3 41.6004 13.4 42.3004 14.1C42.7004 14.5 43.1004 14.6 43.6004 14.6C44.1004 14.6 44.5004 14.4 44.9004 14.1L48.0004 11C48.7004 10.3 48.7004 9.1 48.0004 8.4Z" fill="#005896" stroke="white" stroke-width="2" stroke-miterlimit="10"/>
<path d="M23.1996 11.6L19.9996 8.4C19.2996 7.7 18.1996 7.7 17.4996 8.4C16.7996 9.1 16.7996 10.2 17.4996 10.9L20.6996 14.1C21.0996 14.5 21.4996 14.6 21.9996 14.6C22.4996 14.6 22.8996 14.4 23.2996 14.1C23.8996 13.4 23.8996 12.3 23.1996 11.6Z" fill="#005896" stroke="white" stroke-width="2" stroke-miterlimit="10"/>
<path d="M73.4008 83.1C73.1008 82.8 72.6008 82.6 72.1008 82.6C71.6008 82.6 71.2008 82.8 70.8008 83.1C70.5008 83.4 70.3008 83.9 70.3008 84.4C70.3008 84.9 70.5008 85.3 70.8008 85.7C71.1008 86 71.6008 86.2 72.1008 86.2C72.6008 86.2 73.0008 86 73.4008 85.7C73.7008 85.4 73.9008 84.9 73.9008 84.4C73.9008 83.9 73.7008 83.4 73.4008 83.1Z" fill="#005896" stroke="white" stroke-width="2" stroke-miterlimit="10"/>
</svg>
