<svg width="92" height="92" viewBox="0 0 92 92" fill="none" xmlns="http://www.w3.org/2000/svg">
<g clip-path="url(#clip0)">
<path d="M42.4188 64.1301C42.0846 63.7943 41.6228 63.6036 41.1484 63.6036C40.6759 63.6036 40.2123 63.7943 39.878 64.1301C39.5438 64.4643 39.3516 64.9263 39.3516 65.4005C39.3516 65.8731 39.5438 66.3367 39.878 66.6709C40.2123 67.0049 40.6759 67.1974 41.1484 67.1974C41.621 67.1974 42.0846 67.0051 42.4188 66.6709C42.753 66.3367 42.9453 65.8731 42.9453 65.4005C42.9453 64.9263 42.753 64.4645 42.4188 64.1301Z" fill="#005896"/>
<path d="M59.0273 10.2024H77.3006C79.7805 10.2024 81.7968 12.2165 81.7968 14.6894V28.2109C81.7968 28.927 81.2162 29.5078 80.5 29.5078C79.7837 29.5078 79.2031 28.927 79.2031 28.2109V14.6894C79.2031 13.6421 78.3471 12.7961 77.3006 12.7961H59.0273C58.3111 12.7961 57.7305 12.2154 57.7305 11.4993C57.7305 10.7831 58.3111 10.2024 59.0273 10.2024Z" fill="#005896" stroke="white"/>
<path d="M51.5519 12.4167L51.5518 12.4166C51.3113 12.1762 51.1719 11.8398 51.1719 11.5C51.1719 11.159 51.3108 10.824 51.5524 10.5809C51.792 10.3415 52.1279 10.2031 52.4687 10.2031C52.8096 10.2031 53.1455 10.3415 53.3851 10.5809C53.6267 10.824 53.7656 11.159 53.7656 11.5C53.7656 11.8398 53.6262 12.1762 53.3857 12.4166L53.3855 12.4167C53.1449 12.6574 52.8085 12.7969 52.4687 12.7969C52.129 12.7969 51.7927 12.6575 51.5519 12.4167Z" fill="#005896" stroke="white"/>
<mask id="path-4-inside-1" fill="white">
<path d="M76.7367 57.9141C79.025 55.6718 80.4483 52.5499 80.4483 49.1008V35.9374C80.4483 34.9452 79.6438 34.1406 78.6514 34.1406H65.5835C60.1639 34.1406 55.7549 38.5496 55.7549 43.9689V49.1008C55.7549 52.5195 57.1524 55.6177 59.4053 57.8557H47.7968V54.1944C47.7968 47.3616 42.6588 41.7099 36.0443 40.8903C37.3516 39.2771 38.1368 37.2245 38.1368 34.9912V27.6165C38.1368 27.5448 38.1314 27.4745 38.1233 27.405C38.1314 27.2762 38.1368 27.1468 38.1368 27.016V22.3502C38.1368 21.358 37.3323 20.5533 36.3399 20.5533H26.9383C22.7613 20.5533 19.3633 23.9516 19.3633 28.1284V29.9062V31.3976V34.9912C19.3633 37.2245 20.1485 39.2771 21.4557 40.8903C14.8411 41.7099 9.70311 47.3614 9.70311 54.1944V57.8557H3.59374V14.6894C3.59374 13.9213 4.22283 13.2961 4.9962 13.2961H7.12765C8.12006 13.2961 8.92452 12.4915 8.92452 11.4993C8.92452 10.507 8.12006 9.70239 7.12765 9.70239H4.9962C2.24142 9.70239 0 11.9395 0 14.6894V67.9624C0 70.7123 2.24124 72.9494 4.9962 72.9494H32.3399V81.2537C27.8071 81.7128 24.2578 85.5512 24.2578 90.2031C24.2578 91.1954 25.0622 92 26.0546 92H90.2029C91.1954 92 91.9998 91.1954 91.9998 90.2031V74.5301C91.9998 65.8106 85.2729 58.6339 76.7367 57.9141ZM59.3487 49.1008V43.9689C59.3487 40.5311 62.1455 37.7343 65.5835 37.7343H76.8545V49.1008C76.8545 53.927 72.928 57.8537 68.1016 57.8537C63.2752 57.8537 59.3487 53.927 59.3487 49.1008ZM22.9568 28.1284C22.9568 25.933 24.7427 24.1471 26.9382 24.1471H34.5429V27.016C34.5429 28.4413 33.3834 29.6008 31.9581 29.6008H22.9568V28.1284ZM22.9568 33.1943H31.9581C32.8806 33.1943 33.7558 32.9897 34.5429 32.6256V34.991H34.5431C34.5431 38.1851 31.9442 40.784 28.7499 40.784C25.5556 40.784 22.9568 38.1851 22.9568 34.991V33.1943ZM30.8467 44.3779L28.7499 46.4747L26.6532 44.3779H30.8467ZM13.2968 54.1944C13.2968 49.2695 16.9427 45.1813 21.6767 44.4841L27.4792 50.2865C27.8301 50.6373 28.2899 50.8128 28.7498 50.8128C29.2096 50.8128 29.6696 50.6373 30.0203 50.2865L35.8228 44.4841C40.5568 45.1813 44.2027 49.2695 44.2027 54.1944V57.8557H13.2968V54.1944ZM44.203 88.4061H28.1584C28.9005 86.3081 30.904 84.8012 33.2531 84.8012H44.203V88.4061ZM44.203 74.5299V81.2073H35.9337V72.9492H44.2785C44.2293 73.4698 44.203 73.9968 44.203 74.5299ZM4.9962 69.3557C4.22283 69.3555 3.59374 68.7305 3.59374 67.9624V61.4494H50.5473C48.002 63.4643 46.0567 66.2048 45.0258 69.3557H4.9962ZM88.4061 81.2073H74.66C73.6676 81.2073 72.8631 82.0119 72.8631 83.0042C72.8631 83.9964 73.6676 84.801 74.66 84.801H88.4061V88.4061H47.7968V74.5299C47.7968 67.3415 53.6246 61.4906 60.8033 61.4492H66.1249C66.1378 61.4492 66.1502 61.4476 66.1631 61.4473H75.3234C82.5371 61.4473 88.4061 67.316 88.4061 74.5299V81.2073Z"/>
</mask>
<path d="M76.7367 57.9141C79.025 55.6718 80.4483 52.5499 80.4483 49.1008V35.9374C80.4483 34.9452 79.6438 34.1406 78.6514 34.1406H65.5835C60.1639 34.1406 55.7549 38.5496 55.7549 43.9689V49.1008C55.7549 52.5195 57.1524 55.6177 59.4053 57.8557H47.7968V54.1944C47.7968 47.3616 42.6588 41.7099 36.0443 40.8903C37.3516 39.2771 38.1368 37.2245 38.1368 34.9912V27.6165C38.1368 27.5448 38.1314 27.4745 38.1233 27.405C38.1314 27.2762 38.1368 27.1468 38.1368 27.016V22.3502C38.1368 21.358 37.3323 20.5533 36.3399 20.5533H26.9383C22.7613 20.5533 19.3633 23.9516 19.3633 28.1284V29.9062V31.3976V34.9912C19.3633 37.2245 20.1485 39.2771 21.4557 40.8903C14.8411 41.7099 9.70311 47.3614 9.70311 54.1944V57.8557H3.59374V14.6894C3.59374 13.9213 4.22283 13.2961 4.9962 13.2961H7.12765C8.12006 13.2961 8.92452 12.4915 8.92452 11.4993C8.92452 10.507 8.12006 9.70239 7.12765 9.70239H4.9962C2.24142 9.70239 0 11.9395 0 14.6894V67.9624C0 70.7123 2.24124 72.9494 4.9962 72.9494H32.3399V81.2537C27.8071 81.7128 24.2578 85.5512 24.2578 90.2031C24.2578 91.1954 25.0622 92 26.0546 92H90.2029C91.1954 92 91.9998 91.1954 91.9998 90.2031V74.5301C91.9998 65.8106 85.2729 58.6339 76.7367 57.9141ZM59.3487 49.1008V43.9689C59.3487 40.5311 62.1455 37.7343 65.5835 37.7343H76.8545V49.1008C76.8545 53.927 72.928 57.8537 68.1016 57.8537C63.2752 57.8537 59.3487 53.927 59.3487 49.1008ZM22.9568 28.1284C22.9568 25.933 24.7427 24.1471 26.9382 24.1471H34.5429V27.016C34.5429 28.4413 33.3834 29.6008 31.9581 29.6008H22.9568V28.1284ZM22.9568 33.1943H31.9581C32.8806 33.1943 33.7558 32.9897 34.5429 32.6256V34.991H34.5431C34.5431 38.1851 31.9442 40.784 28.7499 40.784C25.5556 40.784 22.9568 38.1851 22.9568 34.991V33.1943ZM30.8467 44.3779L28.7499 46.4747L26.6532 44.3779H30.8467ZM13.2968 54.1944C13.2968 49.2695 16.9427 45.1813 21.6767 44.4841L27.4792 50.2865C27.8301 50.6373 28.2899 50.8128 28.7498 50.8128C29.2096 50.8128 29.6696 50.6373 30.0203 50.2865L35.8228 44.4841C40.5568 45.1813 44.2027 49.2695 44.2027 54.1944V57.8557H13.2968V54.1944ZM44.203 88.4061H28.1584C28.9005 86.3081 30.904 84.8012 33.2531 84.8012H44.203V88.4061ZM44.203 74.5299V81.2073H35.9337V72.9492H44.2785C44.2293 73.4698 44.203 73.9968 44.203 74.5299ZM4.9962 69.3557C4.22283 69.3555 3.59374 68.7305 3.59374 67.9624V61.4494H50.5473C48.002 63.4643 46.0567 66.2048 45.0258 69.3557H4.9962ZM88.4061 81.2073H74.66C73.6676 81.2073 72.8631 82.0119 72.8631 83.0042C72.8631 83.9964 73.6676 84.801 74.66 84.801H88.4061V88.4061H47.7968V74.5299C47.7968 67.3415 53.6246 61.4906 60.8033 61.4492H66.1249C66.1378 61.4492 66.1502 61.4476 66.1631 61.4473H75.3234C82.5371 61.4473 88.4061 67.316 88.4061 74.5299V81.2073Z" fill="#005896" stroke="white" stroke-width="2" mask="url(#path-4-inside-1)"/>
<path d="M27.4902 1.79687C27.4902 1.08075 28.0709 0.5 28.7871 0.5C29.5035 0.5 30.084 1.08072 30.084 1.79687V11.5C30.084 12.2161 29.5033 12.7969 28.7871 12.7969C28.0709 12.7969 27.4902 12.2161 27.4902 11.5V1.79687Z" fill="#005896" stroke="white"/>
<path d="M38.6728 10.5604L38.6728 10.5604C38.1664 11.0667 38.1663 11.8879 38.6727 12.3945C38.6728 12.3946 38.6728 12.3946 38.6728 12.3946M38.6728 10.5604L38.3192 12.7481L38.6728 12.3946M38.6728 10.5604L41.8309 7.40211M38.6728 10.5604L43.6652 7.40206M38.6728 12.3946C38.9263 12.6477 39.2573 12.7743 39.59 12.7743C39.9226 12.7743 40.2538 12.6476 40.507 12.3944L43.6652 9.23623L43.6652 9.23618C44.1717 8.72981 44.1718 7.90869 43.6652 7.40206M38.6728 12.3946L43.6652 7.40206M43.6652 7.40206L44.0187 7.04849L43.6652 7.40202M43.6652 7.40206C43.6652 7.40205 43.6652 7.40203 43.6652 7.40202M43.6652 7.40206L43.6652 7.40202M43.6652 7.40202C43.1588 6.89579 42.3375 6.89574 41.8309 7.40211M41.8309 7.40211L41.831 7.40201L41.4778 7.04887L41.8309 7.40211Z" fill="#005896" stroke="white"/>
<path d="M15.6672 7.39366L18.8556 10.5819L18.8556 10.5819C19.3621 11.0884 19.3619 11.9096 18.8554 12.4161C18.6022 12.6693 18.271 12.796 17.9384 12.796C17.6059 12.796 17.2749 12.6694 17.0214 12.4161C17.0213 12.4161 17.0213 12.416 17.0213 12.416L13.833 9.22774C13.3265 8.72119 13.3266 7.90002 13.833 7.39357C13.833 7.39356 13.833 7.39354 13.833 7.39353M15.6672 7.39366L13.833 7.39353M15.6672 7.39366C15.6671 7.39364 15.6671 7.39362 15.6671 7.39359C15.6671 7.39358 15.6671 7.39356 15.667 7.39354C15.1603 6.88736 14.3393 6.8874 13.833 7.39353M15.6672 7.39366L13.833 7.39353" fill="#005896" stroke="white"/>
<path d="M69.3719 81.7343C69.0377 81.3983 68.5741 81.2076 68.1016 81.2076C67.629 81.2076 67.1654 81.3983 66.8312 81.7343C66.497 82.0683 66.3047 82.5303 66.3047 83.0045C66.3047 83.4771 66.497 83.9407 66.8312 84.2749C67.1654 84.6091 67.629 84.8014 68.1016 84.8014C68.5741 84.8014 69.0377 84.6093 69.3719 84.2749C69.7062 83.9405 69.8984 83.4771 69.8984 83.0045C69.8984 82.5301 69.7062 82.0683 69.3719 81.7343Z" fill="#005896"/>
</g>
<defs>
<clipPath id="clip0">
<rect width="92" height="92" fill="white"/>
</clipPath>
</defs>
</svg>
