<svg width="100" height="100" viewBox="0 0 100 100" fill="none" xmlns="http://www.w3.org/2000/svg">
<path d="M85.5992 50.4C86.5992 50.4 87.3992 49.6 87.3992 48.6V20.5C87.3992 15.6 83.3992 11.6 78.4992 11.6H66.4992C65.5992 10.5 64.1992 9.7 62.6992 9.7H59.7992C58.3992 6.6 55.1992 4.5 51.6992 4.5H51.3992C47.8992 4.5 44.6992 6.6 43.2992 9.7H40.3992C38.8992 9.7 37.4992 10.4 36.5992 11.6H24.5992C19.6992 11.6 15.6992 15.6 15.6992 20.5V86.6C15.6992 91.5 19.6992 95.5 24.5992 95.5H78.5992C83.4992 95.5 87.4992 91.5 87.4992 86.6V63.5C87.4992 62.5 86.6992 61.7 85.6992 61.7C84.6992 61.7 83.8992 62.5 83.8992 63.5V86.6C83.8992 89.5 81.4992 91.9 78.5992 91.9H24.5992C21.6992 91.9 19.2992 89.5 19.2992 86.6V20.5C19.2992 17.6 21.6992 15.2 24.5992 15.2H35.5992V18.8H26.3992C24.3992 18.8 22.7992 20.4 22.7992 22.4V85C22.7992 87 24.3992 88.6 26.3992 88.6H76.8992C78.8992 88.6 80.4992 87 80.4992 85V22.3C80.4992 20.3 78.8992 18.7 76.8992 18.7H67.6992V15.1H78.6992C81.5992 15.1 83.9992 17.5 83.9992 20.4V48.5C83.7992 49.6 84.5992 50.4 85.5992 50.4ZM38.9992 14.6C38.9992 13.9 39.5992 13.3 40.2992 13.3H44.3992C45.1992 13.3 45.8992 12.8 46.0992 12C46.6992 9.7 48.7992 8.1 51.1992 8.1H51.4992C53.8992 8.1 55.9992 9.7 56.5992 12C56.7992 12.8 57.4992 13.3 58.2992 13.3H62.3992C63.0992 13.3 63.6992 13.9 63.6992 14.6V18.7H38.9992V14.6ZM76.6992 22.3V84.9H26.1992V22.3H37.1992H65.5992H76.6992Z" fill="#005896" stroke="white" stroke-width="2" stroke-miterlimit="10"/>
<path d="M86.7992 54.9C86.4992 54.6 85.9992 54.4 85.4992 54.4C84.9992 54.4 84.5992 54.6 84.1992 54.9C83.8992 55.2 83.6992 55.7 83.6992 56.2C83.6992 56.7 83.8992 57.1 84.1992 57.5C84.4992 57.8 84.9992 58 85.4992 58C85.9992 58 86.3992 57.8 86.7992 57.5C87.0992 57.2 87.2992 56.7 87.2992 56.2C87.3992 55.7 87.1992 55.3 86.7992 54.9Z" fill="#005896"/>
<path d="M54.0004 36.3C53.7004 36 53.2004 35.8 52.7004 35.8C52.2004 35.8 51.8004 36 51.4004 36.3C51.1004 36.6 50.9004 37.1 50.9004 37.6C50.9004 38.1 51.1004 38.5001 51.4004 38.9001C51.7004 39.2001 52.2004 39.4001 52.7004 39.4001C53.2004 39.4001 53.6004 39.2001 54.0004 38.9001C54.3004 38.6001 54.5004 38.1 54.5004 37.6C54.5004 37.1 54.3004 36.6 54.0004 36.3Z" fill="#005896" stroke="white" stroke-width="2" stroke-miterlimit="10"/>
<path d="M71.0992 35.8H60.4992C59.4992 35.8 58.6992 36.6 58.6992 37.6C58.6992 38.6 59.4992 39.4001 60.4992 39.4001H71.0992C72.0992 39.4001 72.8992 38.6 72.8992 37.6C72.8992 36.6 72.0992 35.8 71.0992 35.8Z" fill="#005896" stroke="white" stroke-width="2" stroke-miterlimit="10"/>
<path d="M71.1004 55H52.7004C51.7004 55 50.9004 55.8 50.9004 56.8C50.9004 57.8 51.7004 58.6 52.7004 58.6H71.1004C72.1004 58.6 72.9004 57.8 72.9004 56.8C72.9004 55.8 72.1004 55 71.1004 55Z" fill="#005896" stroke="white" stroke-width="2" stroke-miterlimit="10"/>
<path d="M71.1004 74.2H52.7004C51.7004 74.2 50.9004 75 50.9004 76C50.9004 77 51.7004 77.8 52.7004 77.8H71.1004C72.1004 77.8 72.9004 77 72.9004 76C72.9004 75 72.1004 74.2 71.1004 74.2Z" fill="#005896" stroke="white" stroke-width="2" stroke-miterlimit="10"/>
<path d="M41.4996 35.7999H34.6996V29C34.6996 28 33.8996 27.2 32.8996 27.2C31.8996 27.2 31.0996 28 31.0996 29V37.5C31.0996 38.5 31.8996 39.2999 32.8996 39.2999H41.3996C42.3996 39.2999 43.1996 38.5 43.1996 37.5C43.1996 36.5 42.4996 35.7999 41.4996 35.7999Z" fill="#005896" stroke="white" stroke-width="2" stroke-miterlimit="10"/>
<path d="M45.1996 27.2C44.4996 26.5 43.3996 26.5 42.6996 27.2L40.1996 29.7L39.9996 29.5C39.2996 28.8 38.1996 28.8 37.4996 29.5C36.7996 30.2 36.7996 31.3 37.4996 32L38.9996 33.5C39.2996 33.8 39.7996 34 40.2996 34C40.7996 34 41.1996 33.8 41.5996 33.5L45.2996 29.8C45.8996 29 45.8996 27.9 45.1996 27.2Z" fill="#005896" stroke="white" stroke-width="2" stroke-miterlimit="10"/>
<path d="M41.4996 54.9001H34.6996V48.1C34.6996 47.1 33.8996 46.3 32.8996 46.3C31.8996 46.3 31.0996 47.1 31.0996 48.1V56.6C31.0996 57.6 31.8996 58.4001 32.8996 58.4001H41.3996C42.3996 58.4001 43.1996 57.6 43.1996 56.6C43.2996 55.7 42.4996 54.9001 41.4996 54.9001Z" fill="#005896" stroke="white" stroke-width="2" stroke-miterlimit="10"/>
<path d="M45.1996 46.3C44.4996 45.6 43.3996 45.6 42.6996 46.3L40.1996 48.8L39.9996 48.6C39.2996 47.9 38.1996 47.9 37.4996 48.6C36.7996 49.3 36.7996 50.4 37.4996 51.1L38.9996 52.6C39.2996 52.9 39.7996 53.1 40.2996 53.1C40.7996 53.1 41.1996 52.9 41.5996 52.6L45.2996 48.9C45.8996 48.2 45.8996 47 45.1996 46.3Z" fill="#005896" stroke="white" stroke-width="2" stroke-miterlimit="10"/>
<path d="M41.4996 74.2H34.6996V67.4C34.6996 66.4 33.8996 65.6 32.8996 65.6C31.8996 65.6 31.0996 66.4 31.0996 67.4V75.9C31.0996 76.9 31.8996 77.7 32.8996 77.7H41.3996C42.3996 77.7 43.1996 76.9 43.1996 75.9C43.1996 74.9 42.4996 74.2 41.4996 74.2Z" fill="#005896" stroke="white" stroke-width="2" stroke-miterlimit="10"/>
<path d="M45.1992 65.6C44.4992 64.9 43.3992 64.9 42.6992 65.6L40.2992 68L40.0992 67.8C39.3992 67.1 38.2992 67.1 37.5992 67.8C36.8992 68.5 36.8992 69.6 37.5992 70.3L39.0992 71.8C39.3992 72.1 39.8992 72.3 40.3992 72.3C40.8992 72.3 41.2992 72.1 41.6992 71.8L45.3992 68.1C45.8992 67.4 45.8992 66.3 45.1992 65.6Z" fill="#005896" stroke="white" stroke-width="2" stroke-miterlimit="10"/>
</svg>
