<svg width="91" height="91" viewBox="0 0 91 91" fill="none" xmlns="http://www.w3.org/2000/svg">
   <path
      d="M58.4416 14.7188H57.9416H33.0586H32.5586V14.2188V10.0864C32.5586 9.0997 33.3604 8.29785 34.3472 8.29785H38.4839C39.0605 8.29785 39.5656 7.91159 39.7167 7.35513C40.4042 4.82223 42.7178 3.05469 45.3441 3.05469H45.656C48.2822 3.05469 50.5959 4.82222 51.2835 7.35513L58.4416 14.7188ZM58.4416 14.7188V14.2188M58.4416 14.7188V14.2188M58.4416 14.2188V10.0864C58.4416 9.0997 57.6397 8.29785 56.653 8.29785H52.5162C51.9397 8.29785 51.4346 7.91163 51.2835 7.3552L58.4416 14.2188ZM60.0751 7.41737L60.2252 7.60938H60.469H72.5156C77.1396 7.60938 80.9023 11.3721 80.9023 15.9961V44.0963C80.9023 44.8017 80.3305 45.3736 79.625 45.3736C78.9195 45.3736 78.3477 44.8017 78.3477 44.0963V15.9961C78.3477 12.7799 75.7318 10.1641 72.5156 10.1641H61.4961H60.9961V10.6641V14.2188V14.7188H61.4961H70.7383C72.4222 14.7188 73.793 16.0895 73.793 17.7734V80.3359C73.793 82.0199 72.4222 83.3906 70.7383 83.3906H20.2617C18.5778 83.3906 17.207 82.0198 17.207 80.3359V17.7734C17.207 16.0895 18.5778 14.7188 20.2617 14.7188H29.5039H30.0039V14.2188V10.6641V10.1641H29.5039H18.4844C15.2682 10.1641 12.6523 12.7799 12.6523 15.9961V82.1133C12.6523 85.3295 15.2682 87.9453 18.4844 87.9453H72.5156C75.7318 87.9453 78.3477 85.3295 78.3477 82.1133V58.9966C78.3477 58.2911 78.9195 57.7193 79.625 57.7193C80.3305 57.7193 80.9023 58.2911 80.9023 58.9966V82.1133C80.9023 86.7373 77.1396 90.5 72.5156 90.5H18.4844C13.8604 90.5 10.0977 86.7373 10.0977 82.1133V15.9961C10.0977 11.3721 13.8604 7.60938 18.4844 7.60938H30.531H30.7748L30.9249 7.41737C31.722 6.39799 32.9596 5.74316 34.3472 5.74316H37.2382H37.5615L37.6942 5.44828C39.0292 2.48038 42.0128 0.5 45.3439 0.5H45.6559C48.987 0.5 51.9708 2.48039 53.3058 5.44828L53.4385 5.74316H53.7618H56.6528C58.0404 5.74316 59.278 6.39799 60.0751 7.41737ZM71.2383 17.7734L71.2383 17.2734H70.7383H59.7188H31.2812H20.2617H19.7617V17.7734V80.3359V80.8359H20.2617H70.7383H70.7383H70.7384H70.7385H70.7385H70.7386H70.7386H70.7387H70.7388H70.7388H70.7389H70.7389H70.739H70.7391H70.7391H70.7392H70.7392H70.7393H70.7393H70.7394H70.7395H70.7395H70.7396H70.7396H70.7397H70.7398H70.7398H70.7399H70.7399H70.74H70.74H70.7401H70.7402H70.7402H70.7403H70.7403H70.7404H70.7404H70.7405H70.7406H71.2406L71.2406 80.3359L71.2383 17.7734Z"
      fill="#005896" stroke="white" />
   <path
      d="M80.8816 50.4463C80.551 50.1157 80.0924 49.9255 79.625 49.9255C79.1576 49.9255 78.699 50.1157 78.3684 50.4463C78.0378 50.7769 77.8477 51.2354 77.8477 51.7029C77.8477 52.1721 78.0378 52.6289 78.3684 52.9595C78.699 53.2918 79.1576 53.4802 79.625 53.4802C80.0924 53.4802 80.551 53.2918 80.8816 52.9595C81.2122 52.6289 81.4023 52.1721 81.4023 51.7029C81.4023 51.2354 81.2122 50.7787 80.8816 50.4463Z"
      fill="#005896" />
   <path
      d="M47.6472 32.1556L48.0007 31.802L47.6472 32.1556C47.8841 32.3925 48.0215 32.7239 48.0215 33.0586C48.0215 33.3932 47.8841 33.7247 47.6472 33.9616C47.4102 34.1986 47.0788 34.3359 46.7441 34.3359C46.4095 34.3359 46.0781 34.1986 45.8411 33.9616L45.4876 34.3152L45.8411 33.9616C45.6042 33.7247 45.4668 33.3932 45.4668 33.0586C45.4668 32.7239 45.6042 32.3925 45.8411 32.1556C46.0781 31.9186 46.4095 31.7812 46.7441 31.7812C47.0788 31.7812 47.4102 31.9186 47.6472 32.1556Z"
      fill="#005896" stroke="white" />
   <path
      d="M54.5645 31.7812H65.1368C65.8423 31.7812 66.4141 32.3531 66.4141 33.0586C66.4141 33.7641 65.8423 34.3359 65.1368 34.3359H54.5645C53.859 34.3359 53.2871 33.7641 53.2871 33.0586C53.2871 32.3531 53.859 31.7812 54.5645 31.7812Z"
      fill="#005896" stroke="white" />
   <path
      d="M46.7441 50.9766H65.1368C65.8423 50.9766 66.4141 51.5484 66.4141 52.2539C66.4141 52.9594 65.8423 53.5312 65.1368 53.5312H46.7441C46.0387 53.5312 45.4668 52.9594 45.4668 52.2539C45.4668 51.5484 46.0387 50.9766 46.7441 50.9766Z"
      fill="#005896" stroke="white" />
   <path
      d="M46.7441 70.1719H65.1368C65.8423 70.1719 66.4141 70.7437 66.4141 71.4492C66.4141 72.1547 65.8423 72.7266 65.1368 72.7266H46.7441C46.0387 72.7266 45.4668 72.1547 45.4668 71.4492C45.4668 70.7437 46.0387 70.1719 46.7441 70.1719Z"
      fill="#005896" stroke="white" />
   <path
      d="M28.293 31.2812V31.7812H28.793H35.5469C36.2524 31.7812 36.8242 32.3531 36.8242 33.0586C36.8242 33.7641 36.2524 34.3359 35.5469 34.3359H27.0156C26.3101 34.3359 25.7383 33.7641 25.7383 33.0586V24.5273C25.7383 23.8219 26.3101 23.25 27.0156 23.25C27.7211 23.25 28.293 23.8219 28.293 24.5273V31.2812Z"
      fill="#005896" stroke="white" />
   <path
      d="M33.9666 25.5033L34.3202 25.8568L34.6738 25.5033L37.1244 23.0527C37.6232 22.5539 38.432 22.5539 38.9305 23.0526C39.4294 23.5516 39.4293 24.3605 38.9306 24.8593L35.2232 28.5666L35.2231 28.5667C34.9738 28.8162 34.6477 28.9408 34.32 28.9408C33.9924 28.9408 33.6664 28.8162 33.4168 28.5666L31.9523 27.1021C31.9523 27.1021 31.9523 27.1021 31.9523 27.1021C31.4534 26.603 31.4534 25.7942 31.9522 25.2956C32.4512 24.7967 33.2601 24.7967 33.7589 25.2955C33.7589 25.2955 33.7589 25.2955 33.7589 25.2955L33.9666 25.5033Z"
      fill="#005896" stroke="white" />
   <path
      d="M28.293 50.4249V50.9249H28.793H35.5469C36.2524 50.9249 36.8242 51.4968 36.8242 52.2023C36.8242 52.9078 36.2524 53.4796 35.5469 53.4796H27.0156C26.3101 53.4796 25.7383 52.9078 25.7383 52.2023V43.671C25.7383 42.9655 26.3101 42.3937 27.0156 42.3937C27.7211 42.3937 28.293 42.9655 28.293 43.671V50.4249Z"
      fill="#005896" stroke="white" />
   <path
      d="M33.9666 44.647L34.3202 45.0005L34.6738 44.647L37.1244 42.1964L36.7744 41.8465L37.1244 42.1964C37.6232 41.6975 38.432 41.6976 38.9305 42.1963L39.2841 41.8428L38.9305 42.1963C39.4294 42.6953 39.4293 43.5042 38.9306 44.0029L35.2232 47.7103L35.2231 47.7104C34.9738 47.9598 34.6477 48.0844 34.32 48.0844C33.9924 48.0844 33.6664 47.9599 33.4168 47.7103L31.9523 46.2458C31.4534 45.7468 31.4534 44.9379 31.9522 44.4392C32.4512 43.9404 33.2601 43.9404 33.7589 44.4392L33.9666 44.647Z"
      fill="#005896" stroke="white" />
   <path
      d="M28.293 69.6719V70.1719H28.793H35.5469C36.2524 70.1719 36.8242 70.7437 36.8242 71.4492C36.8242 72.1547 36.2524 72.7266 35.5469 72.7266H27.0156C26.3101 72.7266 25.7383 72.1547 25.7383 71.4492V62.918C25.7383 62.2125 26.3101 61.6406 27.0156 61.6406C27.7211 61.6406 28.293 62.2125 28.293 62.918V69.6719Z"
      fill="#005896" stroke="white" />
   <path
      d="M33.9666 63.8939L34.3202 64.2475L34.6738 63.8939L37.1244 61.4433C37.6232 60.9445 38.432 60.9446 38.9305 61.4433C39.4294 61.9423 39.4293 62.7511 38.9306 63.2499L35.2232 66.9573L35.2231 66.9573C34.9738 67.2068 34.6477 67.3314 34.32 67.3314C33.9924 67.3314 33.6664 67.2068 33.4168 66.9573L31.9523 65.4928C31.9523 65.4928 31.9523 65.4927 31.9523 65.4927C31.4534 64.9937 31.4534 64.1849 31.9522 63.6862C32.4512 63.1873 33.2601 63.1874 33.7589 63.6861C33.7589 63.6861 33.7589 63.6861 33.7589 63.6861L33.9666 63.8939Z"
      fill="#005896" stroke="white" />
</svg>