<svg width="94" height="94" viewBox="0 0 94 94" fill="none" xmlns="http://www.w3.org/2000/svg">
<path d="M84.2101 49.0136L83.7948 49.6293L84.5215 49.7825C89.6433 50.8617 93.5 55.416 93.5 60.8524V64.5489C93.5 65.2866 92.9017 65.8849 92.1641 65.8849H73.0703C72.3326 65.8849 71.7344 65.2866 71.7344 64.5489C71.7344 63.8113 72.3326 63.213 73.0703 63.213H90.3281H90.8281V62.713V60.8524C90.8281 56.0869 86.9519 52.2106 82.1863 52.2106H73.497H73.0979L73.0094 52.5998C70.3108 64.4691 59.6728 73.3551 47 73.3551C38.8813 73.3551 31.5989 69.708 26.7018 63.9645L26.3505 63.5526L25.9677 63.9354L5.40395 84.499L5.7575 84.8526L5.40392 84.499C3.95787 85.9453 3.95787 88.2973 5.40392 89.7436L5.404 89.7437C6.85024 91.1895 9.20208 91.1897 10.6485 89.7435L10.295 89.3899L10.6486 89.7434L22.1969 78.1948C22.1969 78.1947 22.1969 78.1947 22.197 78.1947C22.7191 77.6731 23.5647 77.6732 24.0865 78.1948C24.6082 78.7167 24.608 79.5625 24.0864 80.0841L12.5379 91.6329C11.2944 92.8762 9.66139 93.4983 8.02617 93.4983C6.39095 93.4983 4.75834 92.8764 3.51487 91.6329C1.02762 89.1455 1.02763 85.0971 3.51467 82.6099L24.4625 61.662L24.7472 61.3774L24.5299 61.0386C22.8942 58.4878 21.6821 55.6415 20.9906 52.5998L20.9021 52.2106H20.503H11.8137C7.04815 52.2106 3.17188 56.0869 3.17188 60.8524V62.713V63.213H3.67188H11.3828C12.1205 63.213 12.7188 63.8113 12.7188 64.5489C12.7188 65.2866 12.1205 65.8849 11.3828 65.8849H1.83594C1.09828 65.8849 0.5 65.2866 0.5 64.5489V60.8524C0.5 55.416 4.35669 50.8617 9.47849 49.7825L10.2052 49.6293L9.78994 49.0136C9.01313 47.8618 8.5594 46.4759 8.5594 44.985V43.5124C8.5594 39.5286 11.8014 36.2866 15.7852 36.2866C17.7727 36.2866 19.5749 37.093 20.8837 38.3976L21.454 38.9661L21.7106 38.2028C25.2623 27.6396 35.2582 20.0114 47 20.0114C58.7418 20.0114 68.7377 27.6398 72.2894 38.2028L72.5461 38.9661L73.1163 38.3976C74.425 37.093 76.2274 36.2866 78.2148 36.2866C82.1986 36.2866 85.4406 39.5286 85.4406 43.5124V44.985C85.4406 46.4759 84.9869 47.8618 84.2101 49.0136ZM15.7852 49.5389C18.2968 49.5389 20.3391 47.4966 20.3391 44.9852V43.5126C20.3391 41.001 18.2968 38.9586 15.7852 38.9586C13.2736 38.9586 11.2313 41.001 11.2313 43.5126V44.9852C11.2313 47.4966 13.2736 49.5389 15.7852 49.5389ZM23 46.6832C23 59.9172 33.766 70.6832 47 70.6832C60.234 70.6832 71 59.9172 71 46.6832C71 33.4492 60.234 22.6832 47 22.6832C33.766 22.6832 23 33.4492 23 46.6832ZM78.2146 49.5389C80.7262 49.5389 82.7685 47.4966 82.7685 44.9852V43.5126C82.7685 41.001 80.7262 38.9586 78.2146 38.9586C75.703 38.9586 73.6607 41.001 73.6607 43.5126V44.9852C73.6607 47.4966 75.703 49.5389 78.2146 49.5389Z" fill="white" stroke="#005896"/>
<path d="M33.7698 60.7613L33.7582 60.7489L33.7458 60.7372C30.0076 57.2096 27.6719 52.2143 27.6719 46.6832C27.6719 36.026 36.3428 27.3551 47 27.3551C57.6572 27.3551 66.3281 36.0262 66.3281 46.6832C66.3281 52.2143 63.9924 57.2096 60.2542 60.7372L60.2418 60.7489L60.2302 60.7614C60.1789 60.8169 60.1281 60.8648 60.076 60.9055L60.0608 60.9175L60.0465 60.9305C56.605 64.0846 52.0237 66.0114 47 66.0114C41.9763 66.0114 37.395 64.0848 33.9535 60.9305L33.9395 60.9177L33.9246 60.906C33.8718 60.8645 33.8207 60.8165 33.7698 60.7613ZM36.5526 59.126L36.3583 59.4938L36.6845 59.7518C39.5229 61.9969 43.1078 63.3395 47 63.3395C50.8922 63.3395 54.4771 61.9969 57.3155 59.7518L57.6417 59.4938L57.4474 59.126C55.4104 55.2718 51.4391 52.8464 47 52.8464C42.5609 52.8464 38.5896 55.2718 36.5526 59.126ZM59.2673 56.9361L59.6441 57.5373L60.0835 56.9802C62.3197 54.1448 63.6562 50.5669 63.6562 46.6832C63.6562 37.4986 56.1847 30.027 47 30.027C37.8153 30.027 30.3438 37.4986 30.3438 46.6832C30.3438 50.5669 31.6803 54.1448 33.9165 56.9802L34.3559 57.5373L34.7327 56.9361C36.3587 54.3421 38.7375 52.3648 41.5218 51.2369L42.1743 50.9727L41.7099 50.4436C40.6205 49.2029 39.9593 47.5808 39.9593 45.8058V44.3795C39.9593 40.4978 43.1183 37.3387 47 37.3387C50.8817 37.3387 54.0407 40.4978 54.0407 44.3795V45.8058C54.0407 47.5807 53.3793 49.2028 52.2901 50.4437L51.8257 50.9727L52.4782 51.2369C55.2625 52.3646 57.6415 54.3421 59.2673 56.9361ZM42.6311 44.3793V45.8057C42.6311 48.2152 44.5905 50.1745 47 50.1745C49.4095 50.1745 51.3689 48.2152 51.3689 45.8057V44.3793C51.3689 41.9698 49.4095 40.0104 47 40.0104C44.5905 40.0104 42.6311 41.9698 42.6311 44.3793Z" fill="white" stroke="#005896"/>
<path d="M29.3507 72.9305C29.0093 72.589 28.5356 72.3926 28.0527 72.3926C27.5699 72.3926 27.0962 72.589 26.7547 72.9305C26.4134 73.272 26.2168 73.7457 26.2168 74.2285C26.2168 74.7114 26.4132 75.185 26.7547 75.5265C27.0962 75.8678 27.5699 76.0645 28.0527 76.0645C28.5356 76.0645 29.0093 75.868 29.3507 75.5265C29.692 75.185 29.8887 74.7114 29.8887 74.2285C29.8887 73.7457 29.6922 73.272 29.3507 72.9305Z" fill="white"/>
<path d="M45.7012 1.83752C45.7012 1.09986 46.2994 0.501587 47.0371 0.501587C47.7748 0.501587 48.3731 1.09986 48.3731 1.83752V8.08412C48.3731 8.82178 47.7748 9.42006 47.0371 9.42006C46.2994 9.42006 45.7012 8.82193 45.7012 8.08412V1.83752Z" fill="white" stroke="#005896"/>
<path d="M48.3349 12.8403C47.9936 12.4988 47.5216 12.3024 47.0371 12.3024C46.5541 12.3024 46.0806 12.4986 45.7391 12.8403C45.3976 13.182 45.2012 13.6555 45.2012 14.1383C45.2012 14.6212 45.3974 15.0948 45.7391 15.4361C46.0806 15.7776 46.5541 15.9742 47.0371 15.9742C47.5218 15.9742 47.9936 15.7778 48.3349 15.4361C48.6764 15.0948 48.8731 14.6212 48.8731 14.1383C48.8731 13.6555 48.6766 13.1818 48.3349 12.8403Z" fill="white"/>
<path d="M60.3583 7.55695C60.3582 7.55698 60.3582 7.557 60.3582 7.55702L57.1315 10.7837C56.6098 11.3054 56.6098 12.1513 57.1315 12.6732C57.3929 12.9342 57.7338 13.0645 58.0763 13.0645C58.419 13.0645 58.7598 12.9342 59.021 12.6732C59.021 12.6732 59.021 12.6731 59.021 12.6731L62.2478 9.44635C62.7694 8.92475 62.7695 8.07888 62.2479 7.55698C62.2479 7.55694 62.2478 7.55691 62.2478 7.55687C62.2478 7.55686 62.2478 7.55685 62.2478 7.55684C61.7259 7.03544 60.8804 7.03537 60.3583 7.55689M60.3583 7.55695L60.3583 7.55689M60.3583 7.55695C60.3583 7.55693 60.3583 7.55691 60.3583 7.55689M60.3583 7.55695L60.3583 7.55689" fill="white" stroke="#005896"/>
<path d="M33.6402 7.54807L36.8979 10.8058C36.8979 10.8058 36.8979 10.8058 36.898 10.8058L33.6402 7.54807ZM33.6402 7.54807C33.6401 7.54804 33.6401 7.54801 33.6401 7.54798C33.1183 7.02653 32.2727 7.02645 31.7506 7.54798C31.7506 7.54802 31.7505 7.54807 31.7505 7.54811M33.6402 7.54807L31.7505 7.54811M31.7505 7.54811C31.229 8.06975 31.229 8.91558 31.7506 9.43743L31.7505 7.54811ZM36.898 12.6953C36.6368 12.9562 36.2958 13.0866 35.9533 13.0866C35.6108 13.0866 35.2698 12.9562 35.0087 12.6953C35.0086 12.6953 35.0086 12.6952 35.0086 12.6952L31.7507 9.43748L36.898 12.6953Z" fill="white" stroke="#005896"/>
</svg>
