<svg width="100" height="100" viewBox="0 0 100 100" fill="none" xmlns="http://www.w3.org/2000/svg">
<path d="M89.4992 50.5C90.2992 49.3 90.7992 47.8001 90.7992 46.2001V44.7001C90.7992 40.4001 87.2992 37 83.0992 37C80.9992 37 78.9992 37.9 77.5992 39.3C73.9992 28.5 63.7992 20.8 51.7992 20.8C39.7992 20.8 29.6992 28.6 25.9992 39.3C24.5992 37.9 22.6992 37 20.4992 37C16.1992 37 12.7992 40.5 12.7992 44.7001V46.2001C12.7992 47.8001 13.2992 49.3 14.0992 50.5C8.79922 51.6 4.69922 56.4 4.69922 62.1V65.8001C4.69922 66.8001 5.49922 67.6 6.49922 67.6H15.9992C16.9992 67.6 17.7992 66.8001 17.7992 65.8001C17.7992 64.8001 16.9992 64 15.9992 64H8.49922V62.1C8.49922 57.6 12.1992 54 16.5992 54H25.2992C25.9992 57.1 27.1992 60 28.8992 62.6L7.99922 83.5C5.29922 86.2001 5.29922 90.5 7.99922 93.2C9.29922 94.5 11.0992 95.2 12.8992 95.2C14.6992 95.2 16.3992 94.5 17.7992 93.2L29.2992 81.7C29.9992 81 29.9992 79.8 29.2992 79.1C28.5992 78.4 27.3992 78.4 26.6992 79.1L15.0992 90.6001C13.7992 91.9001 11.7992 91.9001 10.5992 90.6001C9.29922 89.3 9.29922 87.3 10.5992 86.1001L31.1992 65.5C36.1992 71.3 43.5992 75.1 51.8992 75.1C64.7992 75.1 75.5992 66 78.3992 54H86.9992C91.4992 54 95.0992 57.7 95.0992 62.1V64H77.8992C76.8992 64 76.0992 64.8001 76.0992 65.8001C76.0992 66.8001 76.8992 67.6 77.8992 67.6H96.9992C97.9992 67.6 98.7992 66.8001 98.7992 65.8001V62.1C98.7992 56.4 94.7992 51.7001 89.4992 50.5ZM24.6992 46.2001C24.6992 48.4001 22.8992 50.3 20.5992 50.3C18.2992 50.3 16.4992 48.5 16.4992 46.2001V44.7001C16.4992 42.5 18.2992 40.6 20.5992 40.6C22.8992 40.6 24.6992 42.4001 24.6992 44.7001V46.2001ZM51.7992 71.4001C38.7992 71.4001 28.2992 60.9001 28.2992 47.9001C28.2992 34.9001 38.7992 24.4 51.7992 24.4C64.7992 24.4 75.2992 35.0001 75.2992 47.9001C75.2992 60.8 64.7992 71.4001 51.7992 71.4001ZM87.0992 46.2001C87.0992 48.4001 85.2992 50.3 82.9992 50.3C80.6992 50.3 78.9992 48.5 78.9992 46.2001V44.7001C78.9992 42.5 80.7992 40.6 83.0992 40.6C85.3992 40.6 87.1992 42.4001 87.1992 44.7001V46.2001H87.0992Z" fill="white" stroke="#005896" stroke-width="2" stroke-miterlimit="10"/>
<path d="M51.8 28.1C40.9 28.1 32 37 32 47.9C32 53.6 34.4 58.7 38.2 62.3C38.3 62.4 38.3 62.4 38.4 62.5C41.9 65.7 46.6 67.7 51.8 67.7C57 67.7 61.7 65.7 65.2 62.5C65.3 62.4 65.3 62.4 65.4 62.3C69.2 58.7 71.6 53.6 71.6 47.9C71.7 37 62.8 28.1 51.8 28.1ZM51.8 64.1C48 64.1 44.5 62.8 41.8 60.6C43.8 56.9 47.6 54.6 51.8 54.6C56 54.6 59.9 56.9 61.8 60.6C59.1 62.8 55.6 64.1 51.8 64.1ZM48 47.1V45.7C48 43.6 49.7 41.8 51.9 41.8C54.1 41.8 55.8 43.5 55.8 45.7V47.1C55.8 49.2 54.1 51 51.9 51C49.7 51 48 49.2 48 47.1ZM64.5 57.9C62.8 55.2 60.4 53.2 57.5 52C58.7 50.7 59.4 48.9 59.4 47V45.6C59.4 41.4 56 38.1 51.9 38.1C47.8 38.1 44.4 41.5 44.4 45.6V47C44.4 48.9 45.1 50.6 46.3 52C43.4 53.2 41 55.2 39.3 57.9C37.1 55.1 35.8 51.7 35.8 47.9C35.8 39 43 31.7 52 31.7C61 31.7 68 39 68 47.9C68 51.7 66.7 55.2 64.5 57.9Z" fill="white" stroke="#005896" stroke-width="2" stroke-miterlimit="10"/>
<path d="M34.2 74.2C33.9 73.9 33.4 73.7 32.9 73.7C32.4 73.7 31.9 73.9 31.6 74.2C31.2 74.5 31 75 31 75.5C31 76 31.2 76.5 31.5 76.8C31.8 77.1 32.3 77.3 32.8 77.3C33.3 77.3 33.8 77.1 34.1 76.8C34.4 76.5 34.6 76 34.6 75.5C34.7 75 34.5 74.5 34.2 74.2Z" fill="white" stroke="#005896" stroke-width="2" stroke-miterlimit="10"/>
<path d="M51.8996 1.30005C50.8996 1.30005 50.0996 2.10005 50.0996 3.10005V9.30005C50.0996 10.3 50.8996 11.1 51.8996 11.1C52.8996 11.1 53.6996 10.3 53.6996 9.30005V3.10005C53.6996 2.10005 52.8996 1.30005 51.8996 1.30005Z" fill="white" stroke="#005896" stroke-width="2" stroke-miterlimit="10"/>
<path d="M53.2 14.1C52.9 13.8 52.4 13.6 51.9 13.6C51.4 13.6 50.9 13.8 50.6 14.1C50.3 14.4 50 14.9 50 15.4C50 15.9 50.2 16.4 50.5 16.7C50.8 17 51.3 17.2 51.8 17.2C52.3 17.2 52.8 17 53.1 16.7C53.4 16.4 53.6 15.9 53.6 15.4C53.7 14.9 53.5 14.4 53.2 14.1Z" fill="white" stroke="#005896" stroke-width="2" stroke-miterlimit="10"/>
<path d="M67.3992 8.49998C66.6992 7.79998 65.4992 7.79998 64.7992 8.49998L61.5992 11.7C60.8992 12.4 60.8992 13.6 61.5992 14.3C61.9992 14.7 62.3992 14.8 62.8992 14.8C63.3992 14.8 63.7992 14.6 64.1992 14.3L67.3992 11.1C68.0992 10.3 68.0992 9.19998 67.3992 8.49998Z" fill="white" stroke="#005896" stroke-width="2" stroke-miterlimit="10"/>
<path d="M42.1008 11.7L38.8008 8.4C38.1008 7.7 36.9008 7.7 36.2008 8.4C35.5008 9.1 35.5008 10.3 36.2008 11L39.5008 14.3C39.9008 14.7 40.3008 14.8 40.8008 14.8C41.3008 14.8 41.7008 14.6 42.1008 14.3C42.8008 13.6 42.8008 12.4 42.1008 11.7Z" fill="white" stroke="#005896" stroke-width="2" stroke-miterlimit="10"/>
</svg>
