<svg width="100" height="100" viewBox="0 0 100 100" fill="none" xmlns="http://www.w3.org/2000/svg">
<path d="M50.7004 14C51.7004 14 52.5004 13.2 52.5004 12.2V4.10005C52.5004 3.10005 51.7004 2.30005 50.7004 2.30005C49.7004 2.30005 48.9004 3.10005 48.9004 4.10005V12.2C48.9004 13.2 49.7004 14 50.7004 14Z" fill="white" stroke="#005896" stroke-width="2" stroke-miterlimit="10"/>
<path d="M95.0996 64.6L91.8996 61.4C90.7996 60.3 89.1996 59.6 87.5996 59.6C86.5996 59.6 85.5996 59.9 84.6996 60.3L78.6996 54.3L78.9996 54C81.4996 51.5 81.4996 47.5 78.9996 45.1C78.0996 44.2 76.9996 43.6 75.7996 43.4C75.9996 42.8 76.0996 42.2 76.0996 41.6C76.0996 39.9 75.3996 38.3 74.2996 37.2C73.3996 36.3 72.2996 35.7 71.0996 35.5C71.2996 34.9 71.3996 34.3 71.3996 33.7C71.3996 32 70.6996 30.4 69.5996 29.2C68.6996 28.3 67.5996 27.7 66.3996 27.5C66.9996 25.4 66.4996 23 64.7996 21.3C63.3996 19.9 61.4996 19.3 59.6996 19.5L47.6996 17.2C45.8996 16.9 43.5996 16.6 42.1996 17.9C42.0996 18 41.9996 18.1 41.8996 18.2C39.6996 17.4 37.0996 17.9 35.2996 19.7C34.0996 20.9 33.4996 22.5 33.4996 24.2C33.4996 24.8 33.5996 25.4 33.6996 26C32.4996 26.2 31.3996 26.8 30.4996 27.7C29.2996 28.9 28.6996 30.5 28.6996 32.1C28.6996 32.7 28.7996 33.3 28.9996 33.9C27.7996 34.1 26.6996 34.7 25.7996 35.6C24.5996 36.8 23.9996 38.4 23.9996 40.1C23.9996 41.4 24.3996 42.6 25.0996 43.7C24.1996 44 23.3996 44.5 22.6996 45.2C20.1996 47.7 20.1996 51.6 22.6996 54.1L22.9996 54.4L16.9996 60.4C14.7996 59.3 11.9996 59.7 10.0996 61.6L6.89961 64.8C5.79961 65.9 5.09961 67.5 5.09961 69.1C5.09961 70.7 5.69961 72.2 6.89961 73.4L10.8996 77.4C11.5996 78.1 12.7996 78.1 13.4996 77.4C14.1996 76.7 14.1996 75.5 13.4996 74.8L9.49961 70.8C8.99961 70.3 8.79961 69.7 8.79961 69.1C8.79961 68.4 9.09961 67.8 9.49961 67.4L12.6996 64.2C13.4996 63.4 14.6996 63.3 15.6996 63.8C15.7996 63.9 15.7996 64 15.8996 64.1C16.0996 64.3 16.1996 64.4 16.3996 64.5L34.7996 82.9C34.8996 83.1 34.9996 83.3 35.1996 83.4C35.3996 83.6 35.4996 83.7 35.6996 83.8C36.0996 84.2 36.2996 84.8 36.2996 85.4C36.2996 86.1 35.9996 86.7 35.5996 87.1L32.3996 90.3C31.4996 91.2 29.8996 91.2 28.9996 90.3L24.9996 86.3C24.2996 85.6 23.0996 85.6 22.3996 86.3C21.6996 87 21.6996 88.2 22.3996 88.9L26.3996 92.9C27.5996 94.1 29.0996 94.7 30.6996 94.7C32.2996 94.7 33.7996 94.1 34.9996 92.9L38.1996 89.7C39.2996 88.6 39.9996 87 39.9996 85.4C39.9996 84.2 39.6996 83.1 39.0996 82.2L45.8996 75.4C46.6996 74.6 48.7996 74.7 50.8996 74.9C52.3996 75 54.0996 75.1 55.6996 74.9L63.1996 82.3C62.6996 83.2 62.4996 84.2 62.4996 85.2C62.4996 86.8 63.0996 88.3 64.2996 89.5L67.4996 92.7C68.5996 93.8 70.1996 94.5 71.7996 94.5C73.3996 94.5 74.8996 93.9 76.0996 92.7L95.5996 73.3C96.6996 72.2 97.3996 70.6 97.3996 69C96.8996 67.3 96.1996 65.8 95.0996 64.6ZM46.8996 20.9L54.7996 22.4L50.0996 27.1C49.3996 26.7 48.3996 26.1 47.2996 25C45.7996 23.6 44.6996 21.9 44.5996 20.9C44.5996 20.8 44.5996 20.8 44.5996 20.7C44.7996 20.7 45.3996 20.6 46.8996 20.9ZM37.6996 22.4C38.5996 21.5 39.9996 21.4 41.0996 22.1C41.6996 24.6 43.7996 26.8 44.6996 27.7C45.3996 28.4 47.6996 30.4 49.8996 30.9C50.1996 31.3 50.3996 31.9 50.3996 32.4C50.3996 33.1 50.0996 33.8 49.5996 34.3C49.0996 34.8 48.3996 35.1 47.6996 35.1C46.9996 35.1 46.2996 34.8 45.7996 34.3L37.5996 26.1C37.0996 25.6 36.7996 24.9 36.7996 24.2C36.8996 23.5 37.1996 22.9 37.6996 22.4ZM32.8996 30.3C33.3996 29.8 34.0996 29.5 34.7996 29.5C35.4996 29.5 36.1996 29.8 36.6996 30.3L43.2996 36.9C44.2996 37.9 44.2996 39.6 43.2996 40.7C42.7996 41.2 42.0996 41.5 41.3996 41.5C40.6996 41.5 39.9996 41.2 39.4996 40.7L34.4996 35.7L32.8996 34.1C32.3996 33.6 32.0996 32.9 32.0996 32.2C32.1996 31.5 32.3996 30.8 32.8996 30.3ZM28.1996 38.2C28.6996 37.7 29.3996 37.4 30.0996 37.4C30.7996 37.4 31.4996 37.7 31.9996 38.2L36.9996 43.2C37.4996 43.7 37.7996 44.4 37.7996 45.1C37.7996 45.8 37.4996 46.5 36.9996 47C36.4996 47.5 35.7996 47.8 35.0996 47.8C34.3996 47.8 33.6996 47.5 33.1996 47L31.3996 45.2L28.1996 42C27.6996 41.5 27.3996 40.8 27.3996 40.1C27.3996 39.4 27.6996 38.7 28.1996 38.2ZM24.9996 47.7C25.4996 47.2 26.1996 46.9 26.8996 46.9C27.5996 46.9 28.2996 47.2 28.7996 47.7L30.5996 49.5C31.0996 50 31.3996 50.7 31.3996 51.4C31.3996 52.1 31.0996 52.8 30.5996 53.3C30.0996 53.8 29.3996 54.1 28.6996 54.1C27.9996 54.1 27.2996 53.8 26.7996 53.3L26.5996 53.1L24.9996 51.5C23.9996 50.5 23.9996 48.8 24.9996 47.7ZM61.9996 68.4C61.2996 67.7 60.0996 67.7 59.3996 68.4L57.8996 70C56.3996 71.5 53.5996 71.3 50.8996 71.2C47.9996 71 44.9996 70.8 42.9996 72.8L36.2996 79.5L19.4996 62.7L25.3996 56.8C26.3996 57.4 27.4996 57.7 28.6996 57.7C30.3996 57.7 31.9996 57 33.1996 55.9C34.3996 54.7 34.9996 53.1 34.9996 51.4C36.6996 51.4 38.2996 50.7 39.4996 49.6C40.6996 48.4 41.2996 46.8 41.2996 45.1C42.9996 45.1 44.5996 44.4 45.7996 43.3C46.9996 42.1 47.5996 40.4 47.5996 38.8C49.2996 38.8 50.8996 38.1 52.0996 37C53.2996 35.8 53.8996 34.2 53.8996 32.5C53.8996 31.3 53.5996 30.2 52.9996 29.2L58.1996 24C58.5996 23.6 59.0996 23.4 59.5996 23.3C59.6996 23.3 59.6996 23.3 59.7996 23.3C60.5996 23.2 61.3996 23.4 62.0996 24C63.0996 25 63.0996 26.7 62.0996 27.8L60.4996 29.4L58.6996 31.2C57.9996 31.9 57.9996 33.1 58.6996 33.8C59.3996 34.5 60.5996 34.5 61.2996 33.8L62.8996 32.2L63.0996 32C64.0996 31 65.7996 31 66.8996 32C67.3996 32.5 67.6996 33.2 67.6996 33.9C67.6996 34.6 67.3996 35.3 66.8996 35.8L65.2996 37.4L63.4996 39.2C62.7996 39.9 62.7996 41.1 63.4996 41.8C64.1996 42.5 65.3996 42.5 66.0996 41.8L67.8996 40C68.3996 39.5 69.0996 39.2 69.7996 39.2C70.4996 39.2 71.1996 39.5 71.6996 40C72.1996 40.5 72.4996 41.2 72.4996 41.9C72.4996 42.6 72.1996 43.3 71.6996 43.8L68.4996 47C67.7996 47.7 67.7996 48.9 68.4996 49.6C68.8996 50 69.2996 50.1 69.7996 50.1C70.2996 50.1 70.6996 49.9 71.0996 49.6L72.6996 48C73.1996 47.5 73.8996 47.2 74.5996 47.2C75.2996 47.2 75.9996 47.5 76.4996 48C77.4996 49 77.4996 50.7 76.4996 51.8L74.8996 53.4L72.3996 55.9C71.6996 56.6 71.6996 57.8 72.3996 58.5C72.7996 58.9 73.1996 59 73.6996 59C74.1996 59 74.5996 58.8 74.9996 58.5L76.1996 57.3L82.0996 63.2L65.1996 79.5L59.1996 73.5C59.5996 73.2 59.9996 72.9 60.3996 72.5L61.9996 71C62.6996 70.2 62.6996 69.1 61.9996 68.4ZM92.4996 70.6L73.0996 90.1C72.5996 90.6 71.9996 90.8 71.3996 90.8C70.7996 90.8 70.0996 90.5 69.6996 90.1L66.4996 86.9C65.9996 86.4 65.7996 85.8 65.7996 85.2C65.7996 84.6 66.0996 83.9 66.4996 83.5L85.8996 64C86.3996 63.5 86.9996 63.3 87.5996 63.3C88.2996 63.3 88.8996 63.6 89.2996 64L92.4996 67.2C92.9996 67.7 93.1996 68.3 93.1996 68.9C93.1996 69.6 92.9996 70.2 92.4996 70.6Z" fill="white" stroke="#005896" stroke-width="2" stroke-miterlimit="10"/>
<path d="M26.5996 12.4C26.9996 12.8 27.3996 12.9 27.8996 12.9C28.3996 12.9 28.7996 12.7 29.1996 12.4C29.8996 11.7 29.8996 10.5 29.1996 9.80005L22.5996 3.20005C21.8996 2.50005 20.6996 2.50005 19.9996 3.20005C19.2996 3.90005 19.2996 5.10005 19.9996 5.80005L26.5996 12.4Z" fill="white" stroke="#005896" stroke-width="2" stroke-miterlimit="10"/>
<path d="M73.5008 13C74.0008 13 74.4008 12.8 74.8008 12.5L81.4008 5.90002C82.1008 5.20002 82.1008 4.00002 81.4008 3.30002C80.7008 2.60002 79.5008 2.60002 78.8008 3.30002L72.2008 9.90002C71.5008 10.6 71.5008 11.8 72.2008 12.5C72.6008 12.8 73.1008 13 73.5008 13Z" fill="white" stroke="#005896" stroke-width="2" stroke-miterlimit="10"/>
<path d="M15.9996 80.4C15.2996 81.1 15.2996 82.3 15.9996 83C16.3996 83.3 16.7996 83.5 17.2996 83.5C17.7996 83.5 18.1996 83.3 18.5996 83C19.2996 82.3 19.2996 81.1 18.5996 80.4C17.8996 79.6 16.6996 79.6 15.9996 80.4Z" fill="white" stroke="#005896" stroke-width="2" stroke-miterlimit="10"/>
<path d="M66.4995 65.7999C66.7995 65.7999 67.0995 65.6999 67.2995 65.5999C68.1995 65.0999 68.5995 64.0999 68.0995 63.1999C67.5995 62.2999 66.5995 61.8999 65.6995 62.3999C64.7995 62.8999 64.3995 63.8999 64.8995 64.7999C65.1995 65.3999 65.7995 65.7999 66.4995 65.7999Z" fill="white" stroke="#005896" stroke-width="2" stroke-miterlimit="10"/>
</svg>
