<svg width="92" height="92" viewBox="0 0 92 92" fill="none" xmlns="http://www.w3.org/2000/svg">
<path d="M47.1505 9.88084C47.1505 10.6041 46.5642 11.1905 45.8409 11.1905C45.1179 11.1905 44.5314 10.6042 44.5312 9.88084C44.5312 9.88081 44.5312 9.88078 44.5312 9.88075V1.80963C44.5312 1.08635 45.1176 0.5 45.8409 0.5C46.5642 0.5 47.1505 1.08635 47.1505 1.80963V9.88084Z" fill="white" stroke="#005896"/>
<mask id="path-2-inside-1" fill="white">
<path d="M90.0733 62.1692L86.8764 58.9814C85.7392 57.8456 84.2235 57.2199 82.6085 57.2199C81.5758 57.2199 80.5845 57.4768 79.706 57.9582L73.6818 51.9412L73.9752 51.6481C76.4192 49.1994 76.4183 45.2202 73.9751 42.7797C73.102 41.905 72.0125 41.3217 70.825 41.0762C70.9885 40.5118 71.0745 39.9207 71.0745 39.3157C71.0745 37.6347 70.4216 36.0585 69.2396 34.8813C68.3663 34.0066 67.277 33.4233 66.0895 33.1779C66.253 32.6135 66.3391 32.0225 66.3391 31.4173C66.3391 29.7362 65.6861 28.1601 64.5021 26.9812C63.608 26.0881 62.5088 25.5228 61.3547 25.2822C61.9721 23.1535 61.4446 20.7584 59.7699 19.0809C58.3759 17.6928 56.4843 17.0962 54.6613 17.2896L42.7238 15.03C40.9032 14.6846 38.6296 14.4562 37.1945 15.7653C37.1039 15.8479 37.0115 15.943 36.9206 16.0488C34.6954 15.2377 32.1 15.7207 30.318 17.5007C29.1358 18.6814 28.4847 20.2569 28.4847 21.937C28.4847 22.5422 28.5704 23.1332 28.7337 23.6978C27.5474 23.943 26.4594 24.5256 25.5892 25.3974C24.4047 26.5771 23.7515 28.1508 23.7502 29.8289C23.7497 30.4355 23.8358 31.0285 24 31.5945C22.8132 31.8392 21.7245 32.4207 20.8515 33.2925C19.667 34.4758 19.0148 36.0522 19.0148 37.7313C19.0148 39.0176 19.3988 40.2428 20.1103 41.2778C19.2119 41.5824 18.3889 42.0893 17.6998 42.7777C15.2543 45.2202 15.2534 49.1995 17.7014 51.6519L17.9938 51.943L11.9689 57.957C9.72977 56.9027 6.97103 57.2977 5.1233 59.1431L1.92451 62.3329C0.786727 63.4692 0.160336 64.9851 0.160156 66.601C0.160156 68.2171 0.786727 69.7332 1.92451 70.8697L5.91662 74.8569C6.62369 75.5633 7.76956 75.5626 8.47573 74.8555C9.18209 74.1484 9.18137 73.0026 8.4743 72.2964L4.48218 68.3091C4.02901 67.8565 3.77942 67.2499 3.77942 66.6012C3.77942 65.9527 4.02901 65.3463 4.4811 64.8947L7.68008 61.7047C8.47933 60.9064 9.70264 60.7874 10.6316 61.3428C10.697 61.4411 10.7727 61.5346 10.8593 61.6213C11.0144 61.7768 11.1914 61.8959 11.3793 61.9831L29.7241 80.3009C29.8113 80.4909 29.931 80.6697 30.0871 80.826C30.2391 80.9782 30.4125 81.0959 30.5965 81.1825C30.9845 81.6211 31.1988 82.1814 31.1988 82.779C31.1988 83.4277 30.9492 84.0341 30.4961 84.4868L27.3003 87.6787C26.3561 88.6189 24.8201 88.6187 23.8787 87.6816L19.8866 83.6891C19.1799 82.9824 18.0342 82.9824 17.3275 83.6891C16.6208 84.3958 16.6208 85.5415 17.3275 86.2482L21.3225 90.2436C22.4984 91.4146 24.0426 91.9999 25.5876 91.9999C27.1329 91.9999 28.6789 91.4137 29.8562 90.2416L33.0539 87.0477C34.1917 85.9111 34.8183 84.3953 34.8183 82.779C34.8183 81.6256 34.4975 80.5241 33.9012 79.5743L40.6818 72.8019C40.689 72.7945 40.6962 72.7871 40.7036 72.7798C41.48 71.9771 43.6422 72.1273 45.7332 72.2725C47.2189 72.3758 48.8752 72.4906 50.4935 72.3041L57.9189 79.7207C57.4379 80.5978 57.1811 81.5879 57.1811 82.6189C57.1811 84.2334 57.8077 85.7483 58.9455 86.8849L62.1434 90.0788C63.2804 91.2146 64.7961 91.8403 66.4111 91.8403C68.026 91.8403 69.5416 91.2148 70.6789 90.0788L90.0745 70.7067C91.2123 69.5704 91.8389 68.0545 91.8389 66.4384C91.8387 64.8225 91.2121 63.3066 90.0733 62.1692ZM42.05 18.586L49.9 20.0718L45.2013 24.7687C44.4745 24.4194 43.4783 23.7678 42.3855 22.7224C40.8896 21.2914 39.8195 19.6392 39.7221 18.6086L39.722 18.607C39.7149 18.533 39.713 18.4733 39.7139 18.4282C39.9505 18.3707 40.5791 18.3069 42.05 18.586ZM32.8755 20.0614C33.7923 19.1456 35.2165 19.0399 36.2524 19.7414C36.8394 22.2028 38.9391 24.4336 39.8837 25.3374C40.5837 26.0073 42.83 28.0156 45.0973 28.5676C45.404 29.0073 45.571 29.5315 45.571 30.0846C45.571 30.797 45.2969 31.4631 44.7976 31.9619C44.2997 32.4608 43.6325 32.7353 42.9188 32.7353C42.2049 32.7353 41.5377 32.4608 41.0374 31.9596L41.0364 31.9585L32.8753 23.8122C32.3778 23.3154 32.1037 22.6493 32.1037 21.937C32.1039 21.2245 32.3779 20.5584 32.8755 20.0614ZM28.1468 27.9581C28.6448 27.4595 29.3112 27.1848 30.0239 27.1848C30.7374 27.1848 31.406 27.4601 31.9072 27.9607L38.4787 34.5191C39.5135 35.5555 39.5135 37.2421 38.4823 38.2749C37.9817 38.7735 37.3122 39.0481 36.5972 39.0481C35.8822 39.0481 35.2127 38.7735 34.7142 38.2771L29.7286 33.2925C29.7209 33.2848 29.7125 33.2776 29.7046 33.2697L28.1449 31.7107C27.6444 31.2108 27.369 30.5435 27.3695 29.8316C27.3702 29.122 27.6448 28.458 28.1468 27.9581ZM23.4092 35.8533C23.9075 35.3557 24.5754 35.0817 25.2902 35.0817C25.999 35.0817 26.6612 35.3517 27.1573 35.8407L32.158 40.839C32.6566 41.3357 32.9314 42.0011 32.9314 42.7126C32.9314 43.424 32.6566 44.0894 32.156 44.588C31.6579 45.0854 30.9908 45.3594 30.2772 45.3594C29.5626 45.3594 28.8933 45.0847 28.3945 44.588L26.5816 42.7773L26.5803 42.7761L23.4094 39.6089C22.9095 39.1096 22.6342 38.4426 22.6342 37.731C22.6342 37.0196 22.9095 36.3524 23.4092 35.8533ZM20.2575 45.3382C20.7579 44.8383 21.4267 44.5631 22.1406 44.5631C22.8543 44.5631 23.5229 44.8382 24.0232 45.3377L25.8386 47.1509C26.3374 47.6476 26.612 48.313 26.612 49.0245C26.612 49.7361 26.3372 50.4013 25.8348 50.9019C25.3369 51.4005 24.6697 51.6753 23.956 51.6753C23.2421 51.6753 22.5749 51.4007 22.0734 50.8983L21.8461 50.6719C21.843 50.6688 21.8407 50.6656 21.8378 50.6627C21.8344 50.6595 21.8308 50.6566 21.8274 50.6534L20.2593 49.0914C19.2245 48.0544 19.2236 46.3709 20.2575 45.3382ZM57.1355 65.9049C56.4291 65.1977 55.2832 65.1971 54.5764 65.9033L52.9664 67.5113C51.4365 69.0412 48.6645 68.8486 45.9837 68.6626C43.0726 68.4603 40.0623 68.2514 38.1143 70.2514L31.4488 76.9088L14.7804 60.2649L20.6792 54.3767C21.6542 54.9743 22.7792 55.2947 23.9564 55.2947C25.638 55.2947 27.215 54.6428 28.3928 53.4628C29.5786 52.2819 30.2318 50.7059 30.2318 49.0247C30.2318 49.0091 30.2307 48.9936 30.2307 48.978C30.2463 48.9782 30.2619 48.9791 30.2776 48.9791C31.9569 48.9791 33.5326 48.3291 34.7121 47.1511C35.8978 45.9702 36.551 44.394 36.551 42.713C36.551 42.6974 36.5499 42.6819 36.5499 42.6663C36.5657 42.6663 36.5816 42.6674 36.5975 42.6674C38.2764 42.6674 39.8529 42.0182 41.0403 40.8356C42.273 39.601 42.8827 37.9755 42.871 36.3535C42.8871 36.3537 42.9033 36.3546 42.9195 36.3546C44.6012 36.3544 46.1779 35.7027 47.3576 34.5209C48.5398 33.3401 49.1909 31.7646 49.1909 30.0846C49.1909 28.9096 48.8715 27.7864 48.2758 26.8134L53.4459 21.6454C53.8312 21.2617 54.3063 21.0209 54.8042 20.9216C54.8581 20.9158 54.9113 20.9072 54.9639 20.8968C55.7628 20.7866 56.6018 21.0332 57.2127 21.6416C58.2475 22.6782 58.2475 24.3648 57.2165 25.3976L55.6419 26.9657C55.6367 26.9709 55.6311 26.9756 55.6259 26.9808L53.8123 28.7914C53.1051 29.4975 53.1044 30.6434 53.8107 31.3505C54.5172 32.0577 55.6629 32.0583 56.3698 31.3521L57.9507 29.7734L57.9518 29.7723L58.1908 29.5342C59.2285 28.506 60.9096 28.5082 61.9462 29.5433C62.4451 30.04 62.7198 30.7054 62.7198 31.417C62.7198 32.1283 62.445 32.7937 61.9423 33.2943L60.3587 34.8811L58.5448 36.6879C57.8366 37.3932 57.8343 38.539 58.5395 39.247C59.2448 39.9552 60.3905 39.9573 61.0986 39.2522L62.9203 37.4379C63.4182 36.9391 64.0854 36.6645 64.7991 36.6645C65.513 36.6645 66.1804 36.9391 66.6819 37.4415C67.1807 37.9383 67.4553 38.6037 67.4553 39.3153C67.4553 40.0267 67.1807 40.6921 66.679 41.1916L63.5219 44.35C62.8154 45.0568 62.8156 46.2025 63.5223 46.9091C63.8757 47.2623 64.3386 47.4388 64.8017 47.4388C65.2649 47.4388 65.7281 47.262 66.0814 46.9085L67.6287 45.3607C67.6375 45.3523 67.647 45.3449 67.6558 45.3361C68.1537 44.8373 68.8209 44.5627 69.5346 44.5627C70.2485 44.5627 70.9157 44.8373 71.4154 45.3379C72.4492 46.3705 72.4482 48.0542 71.4154 49.0889L69.8422 50.6602L69.8404 50.6618L69.8388 50.6636L67.3419 53.1575C66.6348 53.8639 66.6341 55.0097 67.3403 55.7168C67.6937 56.0706 68.1573 56.2476 68.6207 56.2476C69.0834 56.2476 69.5463 56.0712 69.8996 55.7184L71.1209 54.4985L76.9746 60.3454L60.3077 76.992L54.3359 71.0274C54.7523 70.7597 55.1506 70.4449 55.5246 70.071L57.1337 68.4638C57.8411 67.7579 57.8418 66.612 57.1355 65.9049ZM87.5167 68.146L68.121 87.5181C67.6673 87.9713 67.06 88.2208 66.4109 88.2208C65.7619 88.2208 65.1546 87.9713 64.7007 87.5179L61.5028 84.324C61.0496 83.8715 60.8 83.266 60.8 82.6189C60.8 81.972 61.0496 81.3665 61.5028 80.9138L80.8984 61.5417C81.3523 61.0884 81.9595 60.8388 82.6087 60.8388C83.2577 60.8388 83.8651 61.0884 84.32 61.5428L87.5168 64.7307C87.97 65.1833 88.2196 65.7896 88.2196 66.4382C88.2194 67.0871 87.9698 67.6935 87.5167 68.146Z"/>
</mask>
<path d="M90.0733 62.1692L86.8764 58.9814C85.7392 57.8456 84.2235 57.2199 82.6085 57.2199C81.5758 57.2199 80.5845 57.4768 79.706 57.9582L73.6818 51.9412L73.9752 51.6481C76.4192 49.1994 76.4183 45.2202 73.9751 42.7797C73.102 41.905 72.0125 41.3217 70.825 41.0762C70.9885 40.5118 71.0745 39.9207 71.0745 39.3157C71.0745 37.6347 70.4216 36.0585 69.2396 34.8813C68.3663 34.0066 67.277 33.4233 66.0895 33.1779C66.253 32.6135 66.3391 32.0225 66.3391 31.4173C66.3391 29.7362 65.6861 28.1601 64.5021 26.9812C63.608 26.0881 62.5088 25.5228 61.3547 25.2822C61.9721 23.1535 61.4446 20.7584 59.7699 19.0809C58.3759 17.6928 56.4843 17.0962 54.6613 17.2896L42.7238 15.03C40.9032 14.6846 38.6296 14.4562 37.1945 15.7653C37.1039 15.8479 37.0115 15.943 36.9206 16.0488C34.6954 15.2377 32.1 15.7207 30.318 17.5007C29.1358 18.6814 28.4847 20.2569 28.4847 21.937C28.4847 22.5422 28.5704 23.1332 28.7337 23.6978C27.5474 23.943 26.4594 24.5256 25.5892 25.3974C24.4047 26.5771 23.7515 28.1508 23.7502 29.8289C23.7497 30.4355 23.8358 31.0285 24 31.5945C22.8132 31.8392 21.7245 32.4207 20.8515 33.2925C19.667 34.4758 19.0148 36.0522 19.0148 37.7313C19.0148 39.0176 19.3988 40.2428 20.1103 41.2778C19.2119 41.5824 18.3889 42.0893 17.6998 42.7777C15.2543 45.2202 15.2534 49.1995 17.7014 51.6519L17.9938 51.943L11.9689 57.957C9.72977 56.9027 6.97103 57.2977 5.1233 59.1431L1.92451 62.3329C0.786727 63.4692 0.160336 64.9851 0.160156 66.601C0.160156 68.2171 0.786727 69.7332 1.92451 70.8697L5.91662 74.8569C6.62369 75.5633 7.76956 75.5626 8.47573 74.8555C9.18209 74.1484 9.18137 73.0026 8.4743 72.2964L4.48218 68.3091C4.02901 67.8565 3.77942 67.2499 3.77942 66.6012C3.77942 65.9527 4.02901 65.3463 4.4811 64.8947L7.68008 61.7047C8.47933 60.9064 9.70264 60.7874 10.6316 61.3428C10.697 61.4411 10.7727 61.5346 10.8593 61.6213C11.0144 61.7768 11.1914 61.8959 11.3793 61.9831L29.7241 80.3009C29.8113 80.4909 29.931 80.6697 30.0871 80.826C30.2391 80.9782 30.4125 81.0959 30.5965 81.1825C30.9845 81.6211 31.1988 82.1814 31.1988 82.779C31.1988 83.4277 30.9492 84.0341 30.4961 84.4868L27.3003 87.6787C26.3561 88.6189 24.8201 88.6187 23.8787 87.6816L19.8866 83.6891C19.1799 82.9824 18.0342 82.9824 17.3275 83.6891C16.6208 84.3958 16.6208 85.5415 17.3275 86.2482L21.3225 90.2436C22.4984 91.4146 24.0426 91.9999 25.5876 91.9999C27.1329 91.9999 28.6789 91.4137 29.8562 90.2416L33.0539 87.0477C34.1917 85.9111 34.8183 84.3953 34.8183 82.779C34.8183 81.6256 34.4975 80.5241 33.9012 79.5743L40.6818 72.8019C40.689 72.7945 40.6962 72.7871 40.7036 72.7798C41.48 71.9771 43.6422 72.1273 45.7332 72.2725C47.2189 72.3758 48.8752 72.4906 50.4935 72.3041L57.9189 79.7207C57.4379 80.5978 57.1811 81.5879 57.1811 82.6189C57.1811 84.2334 57.8077 85.7483 58.9455 86.8849L62.1434 90.0788C63.2804 91.2146 64.7961 91.8403 66.4111 91.8403C68.026 91.8403 69.5416 91.2148 70.6789 90.0788L90.0745 70.7067C91.2123 69.5704 91.8389 68.0545 91.8389 66.4384C91.8387 64.8225 91.2121 63.3066 90.0733 62.1692ZM42.05 18.586L49.9 20.0718L45.2013 24.7687C44.4745 24.4194 43.4783 23.7678 42.3855 22.7224C40.8896 21.2914 39.8195 19.6392 39.7221 18.6086L39.722 18.607C39.7149 18.533 39.713 18.4733 39.7139 18.4282C39.9505 18.3707 40.5791 18.3069 42.05 18.586ZM32.8755 20.0614C33.7923 19.1456 35.2165 19.0399 36.2524 19.7414C36.8394 22.2028 38.9391 24.4336 39.8837 25.3374C40.5837 26.0073 42.83 28.0156 45.0973 28.5676C45.404 29.0073 45.571 29.5315 45.571 30.0846C45.571 30.797 45.2969 31.4631 44.7976 31.9619C44.2997 32.4608 43.6325 32.7353 42.9188 32.7353C42.2049 32.7353 41.5377 32.4608 41.0374 31.9596L41.0364 31.9585L32.8753 23.8122C32.3778 23.3154 32.1037 22.6493 32.1037 21.937C32.1039 21.2245 32.3779 20.5584 32.8755 20.0614ZM28.1468 27.9581C28.6448 27.4595 29.3112 27.1848 30.0239 27.1848C30.7374 27.1848 31.406 27.4601 31.9072 27.9607L38.4787 34.5191C39.5135 35.5555 39.5135 37.2421 38.4823 38.2749C37.9817 38.7735 37.3122 39.0481 36.5972 39.0481C35.8822 39.0481 35.2127 38.7735 34.7142 38.2771L29.7286 33.2925C29.7209 33.2848 29.7125 33.2776 29.7046 33.2697L28.1449 31.7107C27.6444 31.2108 27.369 30.5435 27.3695 29.8316C27.3702 29.122 27.6448 28.458 28.1468 27.9581ZM23.4092 35.8533C23.9075 35.3557 24.5754 35.0817 25.2902 35.0817C25.999 35.0817 26.6612 35.3517 27.1573 35.8407L32.158 40.839C32.6566 41.3357 32.9314 42.0011 32.9314 42.7126C32.9314 43.424 32.6566 44.0894 32.156 44.588C31.6579 45.0854 30.9908 45.3594 30.2772 45.3594C29.5626 45.3594 28.8933 45.0847 28.3945 44.588L26.5816 42.7773L26.5803 42.7761L23.4094 39.6089C22.9095 39.1096 22.6342 38.4426 22.6342 37.731C22.6342 37.0196 22.9095 36.3524 23.4092 35.8533ZM20.2575 45.3382C20.7579 44.8383 21.4267 44.5631 22.1406 44.5631C22.8543 44.5631 23.5229 44.8382 24.0232 45.3377L25.8386 47.1509C26.3374 47.6476 26.612 48.313 26.612 49.0245C26.612 49.7361 26.3372 50.4013 25.8348 50.9019C25.3369 51.4005 24.6697 51.6753 23.956 51.6753C23.2421 51.6753 22.5749 51.4007 22.0734 50.8983L21.8461 50.6719C21.843 50.6688 21.8407 50.6656 21.8378 50.6627C21.8344 50.6595 21.8308 50.6566 21.8274 50.6534L20.2593 49.0914C19.2245 48.0544 19.2236 46.3709 20.2575 45.3382ZM57.1355 65.9049C56.4291 65.1977 55.2832 65.1971 54.5764 65.9033L52.9664 67.5113C51.4365 69.0412 48.6645 68.8486 45.9837 68.6626C43.0726 68.4603 40.0623 68.2514 38.1143 70.2514L31.4488 76.9088L14.7804 60.2649L20.6792 54.3767C21.6542 54.9743 22.7792 55.2947 23.9564 55.2947C25.638 55.2947 27.215 54.6428 28.3928 53.4628C29.5786 52.2819 30.2318 50.7059 30.2318 49.0247C30.2318 49.0091 30.2307 48.9936 30.2307 48.978C30.2463 48.9782 30.2619 48.9791 30.2776 48.9791C31.9569 48.9791 33.5326 48.3291 34.7121 47.1511C35.8978 45.9702 36.551 44.394 36.551 42.713C36.551 42.6974 36.5499 42.6819 36.5499 42.6663C36.5657 42.6663 36.5816 42.6674 36.5975 42.6674C38.2764 42.6674 39.8529 42.0182 41.0403 40.8356C42.273 39.601 42.8827 37.9755 42.871 36.3535C42.8871 36.3537 42.9033 36.3546 42.9195 36.3546C44.6012 36.3544 46.1779 35.7027 47.3576 34.5209C48.5398 33.3401 49.1909 31.7646 49.1909 30.0846C49.1909 28.9096 48.8715 27.7864 48.2758 26.8134L53.4459 21.6454C53.8312 21.2617 54.3063 21.0209 54.8042 20.9216C54.8581 20.9158 54.9113 20.9072 54.9639 20.8968C55.7628 20.7866 56.6018 21.0332 57.2127 21.6416C58.2475 22.6782 58.2475 24.3648 57.2165 25.3976L55.6419 26.9657C55.6367 26.9709 55.6311 26.9756 55.6259 26.9808L53.8123 28.7914C53.1051 29.4975 53.1044 30.6434 53.8107 31.3505C54.5172 32.0577 55.6629 32.0583 56.3698 31.3521L57.9507 29.7734L57.9518 29.7723L58.1908 29.5342C59.2285 28.506 60.9096 28.5082 61.9462 29.5433C62.4451 30.04 62.7198 30.7054 62.7198 31.417C62.7198 32.1283 62.445 32.7937 61.9423 33.2943L60.3587 34.8811L58.5448 36.6879C57.8366 37.3932 57.8343 38.539 58.5395 39.247C59.2448 39.9552 60.3905 39.9573 61.0986 39.2522L62.9203 37.4379C63.4182 36.9391 64.0854 36.6645 64.7991 36.6645C65.513 36.6645 66.1804 36.9391 66.6819 37.4415C67.1807 37.9383 67.4553 38.6037 67.4553 39.3153C67.4553 40.0267 67.1807 40.6921 66.679 41.1916L63.5219 44.35C62.8154 45.0568 62.8156 46.2025 63.5223 46.9091C63.8757 47.2623 64.3386 47.4388 64.8017 47.4388C65.2649 47.4388 65.7281 47.262 66.0814 46.9085L67.6287 45.3607C67.6375 45.3523 67.647 45.3449 67.6558 45.3361C68.1537 44.8373 68.8209 44.5627 69.5346 44.5627C70.2485 44.5627 70.9157 44.8373 71.4154 45.3379C72.4492 46.3705 72.4482 48.0542 71.4154 49.0889L69.8422 50.6602L69.8404 50.6618L69.8388 50.6636L67.3419 53.1575C66.6348 53.8639 66.6341 55.0097 67.3403 55.7168C67.6937 56.0706 68.1573 56.2476 68.6207 56.2476C69.0834 56.2476 69.5463 56.0712 69.8996 55.7184L71.1209 54.4985L76.9746 60.3454L60.3077 76.992L54.3359 71.0274C54.7523 70.7597 55.1506 70.4449 55.5246 70.071L57.1337 68.4638C57.8411 67.7579 57.8418 66.612 57.1355 65.9049ZM87.5167 68.146L68.121 87.5181C67.6673 87.9713 67.06 88.2208 66.4109 88.2208C65.7619 88.2208 65.1546 87.9713 64.7007 87.5179L61.5028 84.324C61.0496 83.8715 60.8 83.266 60.8 82.6189C60.8 81.972 61.0496 81.3665 61.5028 80.9138L80.8984 61.5417C81.3523 61.0884 81.9595 60.8388 82.6087 60.8388C83.2577 60.8388 83.8651 61.0884 84.32 61.5428L87.5168 64.7307C87.97 65.1833 88.2196 65.7896 88.2196 66.4382C88.2194 67.0871 87.9698 67.6935 87.5167 68.146Z" fill="white" stroke="#005896" stroke-width="2" mask="url(#path-2-inside-1)"/>
<path d="M24.0144 7.95697L24.0144 7.95698C24.5263 8.46787 24.5272 9.29698 24.0162 9.80898C23.7603 10.0654 23.4255 10.1935 23.0893 10.1935C22.7538 10.1935 22.4199 10.0662 22.1642 9.81097C22.1642 9.81096 22.1642 9.81096 22.1642 9.81095L15.57 3.22973L15.57 3.22972C15.0581 2.71882 15.0573 1.88972 15.5682 1.37772L15.5683 1.37767C16.0791 0.865647 16.9084 0.864943 17.4202 1.37588L17.4202 1.37591L24.0144 7.95697Z" fill="white" stroke="#005896"/>
<path d="M76.1055 3.22937L76.1055 3.22938L69.5164 9.81056C69.5164 9.81058 69.5164 9.8106 69.5163 9.81062C69.2606 10.066 68.9264 10.1936 68.5908 10.1936C68.2546 10.1936 67.9202 10.0657 67.6643 9.80957C67.1531 9.29789 67.1537 8.46864 67.6653 7.95761L67.6653 7.9576L74.2545 1.37638C74.7664 0.86513 75.5955 0.865719 76.1065 1.37737L76.1065 1.37741C76.6177 1.8891 76.6172 2.71835 76.1055 3.22937Z" fill="white" stroke="#005896"/>
<path d="M11.2887 77.8414C10.5881 78.5541 10.5978 79.6999 11.3106 80.4005L11.3158 80.4056C11.6675 80.7513 12.124 80.9234 12.5804 80.9234C13.0489 80.9234 13.5173 80.7421 13.8722 80.3811C14.5728 79.6685 14.5604 78.5201 13.8478 77.8195C13.1353 77.1189 11.9896 77.1288 11.2887 77.8414Z" fill="white"/>
<path d="M61.5623 63.298C61.8375 63.298 62.1168 63.2353 62.3789 63.1033C63.2713 62.6531 63.6298 61.565 63.1798 60.6726C62.7297 59.7803 61.6413 59.4216 60.7492 59.8718L60.7391 59.8768C59.8468 60.3269 59.4934 61.4126 59.9433 62.3049C60.261 62.9353 60.8999 63.298 61.5623 63.298Z" fill="white"/>
</svg>
