<svg width="100" height="100" viewBox="0 0 100 100" fill="none" xmlns="http://www.w3.org/2000/svg">
<path d="M37.2 69C37.1 69 37 69 36.9 69C38.8 67 39.9 64.3001 39.9 61.4001V52.4001C39.9 52.3001 39.9 52.2001 39.9 52.2001C39.9 52.0001 39.9 51.9001 39.9 51.7001V46C39.9 45.1 39.1 44.3 38.2 44.3H26.6C21.7 44.3 17.8 48.2 17.8 53.1V61.5C17.8 64.4 19 67.1 20.8 69.1C20.7 69.1 20.5 69.1 20.4 69.2C12.4 69.8 6 76.6001 6 84.9001V92.2C6 93.2 6.8 94 7.7 94H50C50.9 94 51.7 93.2001 51.7 92.3001V85C51.7 76.6001 45.4 69.8 37.2 69ZM21.3 55.2001V53C21.3 50 23.7 47.6 26.7 47.6H36.5V51.6C36.5 53.6 34.9 55.3 32.8 55.3H21.3V55.2001ZM21.3 58.7001H32.8C34.1 58.7001 35.4 58.3001 36.5 57.7001V61.4001C36.5 65.6001 33.1 69 28.9 69C24.7 69 21.3 65.6001 21.3 61.4001V58.7001ZM32.6 72.4001L28.9 76.1L25.2 72.4001H32.6ZM48.3 90.6H9.4V87.2H16.5C17.4 87.2 18.2 86.4001 18.2 85.5C18.2 84.6 17.4 83.8001 16.5 83.8001H9.5C10.1 78.0001 14.6 73.4 20.4 72.6L27.7 79.9001C28 80.2001 28.5 80.4001 28.9 80.4001C29.4 80.4001 29.8 80.2001 30.1 79.9001L37.4 72.6C43.6 73.4 48.3 78.7001 48.3 85V90.6Z" fill="#005896" stroke="white" stroke-width="2" stroke-miterlimit="10"/>
<path d="M79.4992 30.9C79.3992 30.9 79.1992 30.8 79.0992 30.8C80.9992 28.8 82.0992 26.1 82.0992 23.2V14.2C82.0992 14.1 82.0992 14 82.0992 14C82.0992 13.8 82.0992 13.7 82.0992 13.5V7.7C82.0992 6.8 81.2992 6 80.3992 6H68.8992C63.9992 6 60.0992 9.9 60.0992 14.8V23.2C60.0992 26.1 61.2992 28.8 63.0992 30.8C62.9992 30.8 62.7992 30.8 62.6992 30.9C54.5992 31.6 48.1992 38.5 48.1992 46.8V54.1C48.1992 55 48.9992 55.8 49.8992 55.8H63.6992C64.5992 55.8 65.3992 55 65.3992 54.1C65.3992 53.2 64.5992 52.4 63.6992 52.4H51.6992V46.8C51.6992 40.4 56.4992 35.2 62.5992 34.4L69.8992 41.7C70.1992 42 70.6992 42.2 71.0992 42.2C71.4992 42.2 71.9992 42 72.2992 41.7L79.5992 34.4C85.7992 35.2 90.4992 40.5 90.4992 46.8V52.4H77.8992C76.9992 52.4 76.1992 53.2 76.1992 54.1C76.1992 55 76.9992 55.8 77.8992 55.8H92.2992C93.1992 55.8 93.9992 55 93.9992 54.1V46.8C93.9992 38.5 87.5992 31.6 79.4992 30.9ZM71.0992 38L67.3992 34.3H74.8992L71.0992 38ZM78.6992 23.2C78.6992 27.4 75.2992 30.8 71.0992 30.8C66.8992 30.8 63.4992 27.4 63.4992 23.2V20.5H74.9992C76.2992 20.5 77.5992 20.1 78.6992 19.5V23.2ZM78.6992 13.4C78.6992 15.4 77.0992 17.1 74.9992 17.1H63.4992V17V14.8C63.4992 11.8 65.8992 9.4 68.8992 9.4H78.6992V13.4Z" fill="#005896" stroke="white" stroke-width="2" stroke-miterlimit="10"/>
<path d="M72.3004 52.9C72.0004 52.6 71.5004 52.4 71.1004 52.4C70.6004 52.4 70.2004 52.6 69.9004 52.9C69.6004 53.2 69.4004 53.7 69.4004 54.1C69.4004 54.6 69.6004 55 69.9004 55.3C70.2004 55.6 70.7004 55.8 71.1004 55.8C71.6004 55.8 72.0004 55.6 72.3004 55.3C72.6004 55 72.8004 54.5 72.8004 54.1C72.8004 53.7 72.7004 53.2 72.3004 52.9Z" fill="#005896" stroke="white" stroke-width="2" stroke-miterlimit="10"/>
<path d="M52 30.1L44.8 22.9V14.6C44.8 9.9 40.9 6 36.2 6H14.6C9.9 6 6 9.9 6 14.6V29.7C6 34.4 9.9 38.3 14.6 38.3H36.2C39.8 38.3 42.9 36.2 44.2 33H50.8C51.5 33 52.1 32.6 52.4 31.9C52.6 31.3 52.5 30.5 52 30.1ZM42.9 29.5C42.1 29.5 41.4 30.1 41.2 30.8C40.7 33.2 38.6 34.8 36.2 34.8H14.6C11.8 34.8 9.4 32.5 9.4 29.6V14.6C9.4 11.8 11.7 9.4 14.6 9.4H36.2C39 9.4 41.4 11.7 41.4 14.6V23.6C41.4 24.1 41.6 24.5 41.9 24.8L46.7 29.6H42.9V29.5Z" fill="#005896" stroke="white" stroke-width="2" stroke-miterlimit="10"/>
<path d="M85.3999 61.7H63.7999C60.1999 61.7 57.0999 63.8 55.7999 67H49.1999C48.4999 67 47.8999 67.3999 47.5999 68.0999C47.2999 68.6999 47.4999 69.5 47.9999 70L55.1999 77.1999V85.5C55.1999 90.2 59.0999 94.0999 63.7999 94.0999H85.3999C90.0999 94.0999 93.9999 90.2 93.9999 85.5V70.3C93.9999 65.5 90.0999 61.7 85.3999 61.7ZM90.5999 85.4C90.5999 88.2 88.2999 90.5999 85.3999 90.5999H63.7999C60.9999 90.5999 58.5999 88.3 58.5999 85.4V76.4C58.5999 75.9 58.3999 75.4999 58.0999 75.1999L53.2999 70.4H56.9999C57.7999 70.4 58.4999 69.7999 58.6999 69.0999C59.1999 66.6999 61.2999 65.0999 63.6999 65.0999H85.2999C88.0999 65.0999 90.4999 67.4 90.4999 70.3V85.4H90.5999Z" fill="#005896" stroke="white" stroke-width="2" stroke-miterlimit="10"/>
<path d="M82.3004 73.3C81.6004 72.6 80.5004 72.6 79.9004 73.3L75.3004 77.9L73.2004 75.8C72.5004 75.1 71.4004 75.1 70.8004 75.8C70.1004 76.5 70.1004 77.6 70.8004 78.2L74.1004 81.5C74.4004 81.8 74.9004 82 75.3004 82C75.7004 82 76.2004 81.8 76.5004 81.5L82.3004 75.7C83.0004 75 83.0004 73.9 82.3004 73.3Z" fill="#005896" stroke="white" stroke-width="2" stroke-miterlimit="10"/>
<path d="M33.2008 17.4C33.0008 14.5 30.6008 12.1 27.7008 11.9C26.0008 11.8 24.4008 12.3 23.2008 13.5C22.0008 14.6 21.3008 16.2 21.3008 17.9C21.3008 18.8 22.1008 19.6 23.0008 19.6C23.9008 19.6 24.7008 18.8 24.7008 17.9C24.7008 17.2 25.0008 16.5 25.5008 16.1C26.0008 15.6 26.7008 15.4 27.4008 15.4C28.6008 15.5 29.6008 16.5 29.7008 17.7C29.8008 19 29.0008 20.1 27.7008 20.3C26.4008 20.6 25.4008 21.8 25.4008 23.1V24C25.4008 24.9 26.2008 25.7 27.1008 25.7C28.0008 25.7 28.8008 24.9 28.8008 24V23.5C31.6008 22.7 33.4008 20.2 33.2008 17.4Z" fill="#005896" stroke="white" stroke-width="2" stroke-miterlimit="10"/>
<path d="M28.4996 29.4C28.1996 29.1 27.6996 28.9 27.2996 28.9C26.7996 28.9 26.3996 29.1 26.0996 29.4C25.7996 29.7 25.5996 30.2 25.5996 30.6C25.5996 31 25.7996 31.5 26.0996 31.8C26.3996 32.1 26.8996 32.3 27.2996 32.3C27.7996 32.3 28.1996 32.1 28.4996 31.8C28.7996 31.5 28.9996 31 28.9996 30.6C28.9996 30.2 28.7996 29.7 28.4996 29.4Z" fill="#005896" stroke="white" stroke-width="2" stroke-miterlimit="10"/>
<path d="M24.7008 84.2C24.4008 83.9 23.9008 83.7 23.5008 83.7C23.1008 83.7 22.6008 83.9 22.3008 84.2C22.0008 84.5 21.8008 85 21.8008 85.4C21.8008 85.8 22.0008 86.3 22.3008 86.6C22.6008 86.9 23.1008 87.1 23.5008 87.1C23.9008 87.1 24.4008 86.9 24.7008 86.6C25.0008 86.3 25.2008 85.8 25.2008 85.4C25.2008 85 25.0008 84.5 24.7008 84.2Z" fill="#005896" stroke="white" stroke-width="2" stroke-miterlimit="10"/>
</svg>
