<svg width="88" height="88" viewBox="0 0 88 88" fill="none" xmlns="http://www.w3.org/2000/svg">
<g clip-path="url(#clip0)">
<path d="M31.0961 63.5271L31.1413 63.5399L31.188 63.5442C39.0551 64.2567 45.2406 70.8891 45.2406 78.9381V86.2813C45.2406 86.9544 44.695 87.5 44.0218 87.5H1.71875C1.04563 87.5 0.5 86.9544 0.5 86.2813V78.9381C0.5 70.8889 6.68576 64.2565 14.5531 63.5442L14.5999 63.5399L14.6452 63.527C14.7301 63.5028 14.82 63.4883 14.914 63.4833L15.997 63.425L15.2493 62.6393C13.4508 60.7492 12.3449 58.1979 12.3449 55.3916V46.9769C12.3449 42.3986 16.0704 38.673 20.6489 38.673H32.1771C32.8502 38.673 33.3958 39.2186 33.3958 39.8917V45.6128C33.3958 45.7635 33.3888 45.9156 33.3779 46.0717L33.3743 46.1241L33.3816 46.176C33.3909 46.2421 33.3958 46.2978 33.3958 46.3491V55.3916C33.3958 58.1979 32.2898 60.7492 30.4914 62.6393L29.7438 63.4251L30.8268 63.4833C30.9209 63.4883 31.0108 63.5028 31.0961 63.5271ZM30.9583 41.6103V41.1103H30.4583H20.6489C17.4137 41.1103 14.7824 43.7416 14.7824 46.9768V49.1565V49.2666V49.7666H15.2824H26.8042C29.0953 49.7666 30.9583 47.9036 30.9583 45.6126V41.6103ZM15.2824 52.2041H14.7824V52.7041V55.3914C14.7824 59.8515 18.4103 63.4793 22.8704 63.4793C27.3305 63.4793 30.9583 59.8515 30.9583 55.3914V51.6877V50.8016L30.1998 51.2597C29.2075 51.8589 28.0461 52.2041 26.8042 52.2041H15.2824ZM26.9648 66.7706L27.8183 65.917H26.6112H19.1295H17.9224L18.776 66.7706L22.5168 70.5116L22.8704 70.8652L23.2239 70.5116L26.9648 66.7706ZM42.3032 85.0625H42.8032V84.5625V78.9381C42.8032 72.3162 37.8349 66.8388 31.4316 66.025L31.1884 65.9941L31.015 66.1674L23.7321 73.4503C23.5036 73.6788 23.1936 73.8073 22.8704 73.8073C22.5472 73.8073 22.2371 73.6788 22.0086 73.4503L14.7257 66.1674L14.5524 65.9941L14.3091 66.025C8.32984 66.7851 3.60322 71.6102 3.0027 77.638L2.94795 78.1875H3.50023H10.5703C11.2434 78.1875 11.7891 78.7332 11.7891 79.4063C11.7891 80.0794 11.2434 80.625 10.5703 80.625H3.4375H2.9375V81.125V84.5625V85.0625H3.4375H42.3032Z" fill="#005896" stroke="white"/>
<path d="M73.3564 25.3543L73.4015 25.3671L73.4483 25.3714C81.3151 26.0841 87.5005 32.7164 87.5005 40.7653V48.1083C87.5005 48.7815 86.9549 49.3271 86.2818 49.3271H71.9015C71.2284 49.3271 70.6828 48.7815 70.6828 48.1083C70.6828 47.4352 71.2284 46.8896 71.9015 46.8896H84.563H85.063V46.3896V40.7653C85.063 34.1434 80.0948 28.6662 73.6912 27.8522L73.448 27.8213L73.2746 27.9946L65.9917 35.2775L65.9917 35.2776C65.7538 35.5156 65.4427 35.6345 65.13 35.6345C64.8173 35.6345 64.5063 35.5156 64.2682 35.2775L56.9853 27.9946L56.812 27.8213L56.5687 27.8522C50.1654 28.666 45.1973 34.1434 45.1973 40.7653V46.3894V46.8894H45.6973H57.8076C58.4807 46.8894 59.0263 47.435 59.0263 48.1082C59.0263 48.7813 58.4807 49.3269 57.8076 49.3269H43.9785C43.3054 49.3269 42.7598 48.7813 42.7598 48.1082V40.7651C42.7598 32.7163 48.945 26.0839 56.812 25.3712L56.8587 25.367L56.9039 25.3541C56.989 25.3298 57.0793 25.3154 57.1735 25.3103L58.2566 25.2521L57.509 24.4664C55.7106 22.5762 54.6047 20.0249 54.6047 17.2186V8.80395C54.6047 4.22565 58.3302 0.5 62.9087 0.5H74.4368C75.11 0.5 75.6556 1.04563 75.6556 1.71875V7.43978C75.6556 7.59056 75.6485 7.74262 75.6377 7.89876L75.6341 7.9511L75.6414 8.00305C75.6507 8.06912 75.6556 8.12483 75.6556 8.17609V17.2188C75.6556 20.0251 74.5497 22.5764 72.7513 24.4665L72.0036 25.2524L73.0868 25.3105C73.1811 25.3155 73.2712 25.33 73.3564 25.3543ZM64.7768 32.3386L65.1303 32.6922L65.4839 32.3386L69.2247 28.5978L70.0783 27.7442H68.8712H61.3895H60.1823L61.0359 28.5978L64.7768 32.3386ZM57.5424 14.0313H57.0424V14.5313V17.2188C57.0424 21.6789 60.6702 25.3065 65.1303 25.3065C69.5904 25.3065 73.2183 21.6787 73.2183 17.2186V13.5149V12.629L72.4598 13.0868C71.4674 13.686 70.306 14.0313 69.0642 14.0313H57.5424ZM57.0424 11.0938V11.5938H57.5424H69.0642C71.3552 11.5938 73.2183 9.73081 73.2183 7.43978V3.4375V2.9375H72.7183H62.9088C59.6737 2.9375 57.0424 5.56881 57.0424 8.80395V10.9837V11.0938Z" fill="#005896" stroke="white"/>
<path d="M66.346 46.8928C66.0263 46.5731 65.5829 46.3892 65.1309 46.3892C64.6771 46.3892 64.2354 46.5731 63.9157 46.8928C63.5943 47.2124 63.4121 47.6559 63.4121 48.1079C63.4121 48.5617 63.5943 49.0034 63.9157 49.3231C64.2354 49.6445 64.6771 49.8267 65.1309 49.8267C65.5829 49.8267 66.0263 49.6445 66.346 49.3231C66.6657 49.0034 66.8496 48.5617 66.8496 48.1079C66.8496 47.6559 66.6657 47.2124 66.346 46.8928Z" fill="#005896"/>
<path d="M38.2723 16.8623V17.0694L38.4187 17.2159L45.6066 24.4038C45.6066 24.4038 45.6067 24.4038 45.6067 24.4039C45.9551 24.7525 46.0594 25.2768 45.8708 25.732C45.6821 26.1873 45.2375 26.4844 44.7447 26.4844H38.1303H37.7939L37.6672 26.796C36.4432 29.8045 33.527 31.8125 30.1783 31.8125H8.59375C4.1313 31.8125 0.5 28.1812 0.5 23.7188V8.59375C0.5 4.1313 4.1313 0.5 8.59375 0.5H30.1785C34.641 0.5 38.2723 4.1313 38.2723 8.59375V16.8623ZM40.5953 24.0469H41.8024L35.2014 24.8803L35.6886 24.9924C35.6886 24.9924 35.6886 24.9924 35.6886 24.9924C35.816 24.4389 36.3086 24.0469 36.8765 24.0469H40.5953Z" fill="#005896" stroke="white"/>
<path d="M49.8704 61.5156H50.2068L50.3335 61.204C51.5574 58.1955 54.4737 56.1875 57.8224 56.1875H79.4069C83.8694 56.1875 87.5007 59.8188 87.5007 64.2812V79.4062C87.5007 83.8687 83.8694 87.5 79.4069 87.5H57.8222C53.3597 87.5 49.7284 83.8687 49.7284 79.4062V71.1377V70.9306L49.582 70.7841L42.3941 63.5962C42.394 63.5962 42.394 63.5962 42.394 63.5962C42.0456 63.2475 41.9413 62.7232 42.1299 62.268C42.3186 61.8127 42.7631 61.5156 43.256 61.5156H49.8704ZM47.4054 63.9531H46.1983L47.0518 64.8067L51.8091 69.564C52.0376 69.7925 52.1661 70.1026 52.1661 70.4258V79.4062C52.1661 82.5255 54.7031 85.0625 57.8224 85.0625H79.4069C82.5262 85.0625 85.0632 82.5255 85.0632 79.4062V64.2812C85.0632 61.162 82.5262 58.625 79.4069 58.625H57.8224C55.1732 58.625 52.9054 60.4283 52.312 63.0076C52.1847 63.5611 51.692 63.9531 51.1242 63.9531H47.4054Z" fill="#005896" stroke="white"/>
<path d="M69.34 72.5465L68.9864 72.193L66.8619 70.0684C66.386 69.5926 65.6143 69.5925 65.1382 70.0684C65.1382 70.0684 65.1382 70.0685 65.1381 70.0685M69.34 72.5465L64.7846 72.1457C64.1135 71.4744 64.1135 70.3861 64.7846 69.7149L65.1381 70.0685M69.34 72.5465L69.6936 72.193L74.2625 67.624C74.7384 67.1481 75.5101 67.1482 75.9858 67.624C76.4618 68.1001 76.4618 68.8719 75.9859 69.3477L70.2016 75.132L70.2015 75.1321C69.9636 75.3701 69.6526 75.489 69.3398 75.489C69.0272 75.489 68.7162 75.3702 68.4781 75.132L65.1382 71.7922M69.34 72.5465L65.1382 71.7922M65.1381 70.0685C64.6623 70.5444 64.6622 71.316 65.1382 71.7922C65.1382 71.7922 65.1382 71.7922 65.1382 71.7922M65.1381 70.0685L65.1382 71.7922" fill="#005896" stroke="white"/>
<path d="M26.702 11.4243L26.702 11.4243C26.516 8.72618 24.3386 6.54876 21.6405 6.36274L26.702 11.4243ZM26.702 11.4243C26.8804 14.0126 25.2707 16.3097 22.8319 17.0372L22.4749 17.1437V17.5164V18.0165C22.4749 18.6896 21.9293 19.2353 21.2561 19.2353C20.583 19.2353 20.0374 18.6896 20.0374 18.0165V17.0996C20.0374 15.9681 20.8086 15.0061 21.9199 14.7576L21.9199 14.7576M26.702 11.4243L21.9199 14.7576M17.5316 7.81736L17.5316 7.81738C16.4296 8.84604 15.7969 10.3018 15.7969 11.8086L17.5316 7.81736ZM17.5316 7.81736C18.6502 6.77318 20.1069 6.25723 21.6404 6.36273L17.5316 7.81736ZM21.9199 14.7576C23.3862 14.4295 24.374 13.0941 24.2703 11.592M21.9199 14.7576L15.7969 11.8087C15.797 12.4821 16.3428 13.0277 17.0158 13.0277C17.6889 13.0277 18.2345 12.482 18.2345 11.8089C18.2345 10.9636 18.5768 10.1765 19.1949 9.5994C19.8131 9.02221 20.6259 8.73526 21.4735 8.79473C22.9666 8.89789 24.1674 10.0989 24.2703 11.592M24.2703 11.592L23.7715 11.6264L24.2703 11.592C24.2703 11.592 24.2703 11.592 24.2703 11.592Z" fill="#005896" stroke="white"/>
<path d="M22.471 23.3785C22.1513 23.0588 21.7079 22.8749 21.2559 22.8749C20.8021 22.8749 20.3604 23.0588 20.0407 23.3785C19.7193 23.6982 19.5371 24.1416 19.5371 24.5936C19.5371 25.0457 19.7193 25.4891 20.0407 25.8088C20.3604 26.1285 20.8021 26.3124 21.2559 26.3124C21.7079 26.3124 22.1513 26.1285 22.471 25.8088C22.7907 25.4891 22.9746 25.0457 22.9746 24.5936C22.9746 24.1416 22.7907 23.6982 22.471 23.3785Z" fill="#005896"/>
<path d="M18.6605 78.1911C18.3408 77.8714 17.8973 77.6875 17.4453 77.6875C16.9933 77.6875 16.5498 77.8714 16.2302 78.1911C15.9105 78.5108 15.7266 78.9542 15.7266 79.4062C15.7266 79.8583 15.9105 80.3017 16.2302 80.6214C16.5498 80.9411 16.9933 81.125 17.4453 81.125C17.8973 81.125 18.3408 80.9411 18.6605 80.6214C18.9802 80.3017 19.1641 79.8583 19.1641 79.4062C19.1641 78.9542 18.9802 78.5108 18.6605 78.1911Z" fill="#005896"/>
</g>
<defs>
<clipPath id="clip0">
<rect width="88" height="88" fill="white"/>
</clipPath>
</defs>
</svg>
