<svg width="25" height="25" viewBox="0 0 25 25" fill="none" xmlns="http://www.w3.org/2000/svg">
<g clip-path="url(#clip0)">
<path d="M13.0726 12.497L24.882 0.687597C25.0394 0.530168 25.0394 0.274975 24.882 0.117546C24.7246 -0.039833 24.4694 -0.039833 24.3119 0.117546L12.5025 11.927L0.693123 0.117546C0.532972 -0.0371117 0.277779 -0.0326771 0.123071 0.127473C-0.0278066 0.283693 -0.0278066 0.531377 0.123071 0.687597L11.9325 12.497L0.123071 24.3064C-0.037079 24.4611 -0.0415136 24.7163 0.113194 24.8765C0.267902 25.0366 0.523095 25.041 0.683245 24.8863C0.686622 24.8831 0.689897 24.8798 0.693123 24.8765L12.5025 13.0671L24.3119 24.8765C24.4721 25.0312 24.7273 25.0267 24.882 24.8666C25.0329 24.7104 25.0329 24.4626 24.882 24.3064L13.0726 12.497Z" fill="#005896" stroke="#005896" stroke-width="0.6"/>
</g>
<defs>
<clipPath id="clip0">
<rect width="25" height="25" fill="white"/>
</clipPath>
</defs>
</svg>
