<svg width="57" height="71" viewBox="0 0 57 71" fill="none" xmlns="http://www.w3.org/2000/svg">
<path d="M25.6973 62.9797H31.3053C31.8759 62.9797 32.3529 63.4582 32.3529 64.0664C32.3529 64.6746 31.8759 65.1531 31.3053 65.1531H25.6973C25.1267 65.1531 24.6496 64.6746 24.6496 64.0664C24.6496 63.4582 25.1267 62.9797 25.6973 62.9797Z" fill="#005896" stroke="white" stroke-width="0.6"/>
<path d="M47.0672 11.0939V11.3939H47.3672H55.4531C56.0237 11.3939 56.5008 11.8724 56.5008 12.4806V22.1876C56.5008 28.1472 51.7906 32.9814 46.0195 32.9814H44.8801H44.7039L44.6181 33.1353C44.3629 33.593 44.0906 34.0417 43.7979 34.4789C41.9191 37.2854 39.3846 39.5029 36.4256 40.9495L36.2353 41.0425L36.2593 41.2529C36.2764 41.4029 36.2859 41.5536 36.2859 41.7057C36.2859 43.5135 35.0755 45.0287 33.4566 45.449L33.1574 45.5267L33.244 45.8235C33.8483 47.8929 34.8429 50.751 36.2735 53.1854C36.8298 54.132 37.5568 55.1835 38.4165 56.0018C39.2728 56.8169 40.2952 57.4328 41.4375 57.4328H44.6719C45.1933 57.4328 45.6446 57.8336 45.7113 58.3837L47.059 69.4775C47.097 69.7896 47.0024 70.1023 46.8022 70.3357L46.8021 70.3357C46.6023 70.5687 46.3169 70.7 46.0195 70.7H10.9805C10.6831 70.7 10.3977 70.5686 10.1978 70.3357C9.99759 70.1023 9.90305 69.7897 9.941 69.4775L9.64319 69.4413L9.941 69.4775L11.2887 58.3838C11.3555 57.8336 11.8068 57.4328 12.3281 57.4328H15.5625C16.5047 57.4328 17.3888 57.0285 18.1982 56.3654C19.0067 55.7031 19.7568 54.7704 20.4407 53.6773C21.8087 51.4908 22.9424 48.6139 23.7563 45.8237L23.8428 45.527L23.5437 45.4493C21.9248 45.0289 20.7141 43.5138 20.7141 41.7058C20.7141 41.5537 20.7236 41.4029 20.7407 41.2531L20.7647 41.0426L20.5744 40.9496C17.616 39.5032 15.0817 37.2862 13.203 34.4803L12.9537 34.6472L13.203 34.4803C12.91 34.0426 12.6374 33.5934 12.3819 33.1353L12.2961 32.9814H12.1199H10.9805C5.2094 32.9814 0.499219 28.1472 0.499219 22.1876V12.4806C0.499219 11.8724 0.976292 11.3939 1.54688 11.3939H9.63281H9.93281V11.0939V8.0818V7.87193L9.73566 7.79998C8.28548 7.27074 7.2375 5.84197 7.2375 4.1603C7.2375 2.02379 8.92489 0.3 10.9805 0.3H46.0195C48.0751 0.3 49.7625 2.02379 49.7625 4.16016C49.7625 5.84197 48.7145 7.27074 47.2643 7.79998L47.0672 7.87193V8.0818V11.0939ZM2.89453 13.5673H2.59453V13.8673V22.1876C2.59453 26.8851 6.27281 30.7266 10.8402 30.8044L11.278 30.8119L11.1269 30.4009C10.3416 28.2664 9.93281 25.9976 9.93281 23.6784V13.8673V13.5673H9.63281H2.89453ZM44.4929 68.5266H44.8316L44.7907 68.1904L43.78 59.8701L43.7479 59.6063H43.4822H13.5178H13.2521L13.22 59.8701L12.2093 68.1904L12.1684 68.5266H12.5071H44.4929ZM36.1248 57.4328H36.7917L36.3492 56.9338C35.7073 56.2098 35.0848 55.3382 34.4844 54.3166C32.7859 51.4267 31.6657 48.0159 31.0493 45.7859L30.9885 45.5659H30.7602H26.24H26.0117L25.9508 45.7859C25.3349 48.0136 24.2125 51.433 22.5096 54.3269C21.9111 55.3441 21.2906 56.2123 20.6509 56.9338L20.2084 57.4328H20.8754H36.1248ZM35.1534 38.9432L35.3043 39.0949L35.4968 39.0016C41.284 36.1975 44.9719 30.2819 44.9719 23.6784V8.32031V8.02031H44.6719H34.564C33.9935 8.02031 33.5164 7.54181 33.5164 6.93359C33.5164 6.32538 33.9935 5.84688 34.564 5.84688H46.0195C46.9363 5.84688 47.6672 5.08252 47.6672 4.1603C47.6672 3.23799 46.9364 2.47344 46.0195 2.47344H10.9805C10.0637 2.47344 9.33281 3.23797 9.33281 4.16016C9.33281 5.08234 10.0637 5.84688 10.9805 5.84688H22.4351C23.0057 5.84688 23.4828 6.32538 23.4828 6.93359C23.4828 7.54181 23.0057 8.02031 22.4351 8.02031H12.3281H12.0281V8.32031V23.6784C12.0281 30.2822 15.7159 36.1975 21.5032 39.0016L21.6957 39.0949L21.8466 38.9432C22.5232 38.2632 23.4442 37.8455 24.457 37.8455H32.543C33.5558 37.8455 34.4769 38.2632 35.1534 38.9432ZM45.8731 30.4009L45.7219 30.8119L46.1598 30.8044C50.7272 30.7266 54.4055 26.8851 54.4055 22.1876V13.8673V13.5673H54.1055H47.3672H47.0672V13.8673V23.6784C47.0672 25.9976 46.6584 28.2666 45.8731 30.4009ZM24.457 43.3924H32.543C33.4598 43.3924 34.1906 42.6279 34.1906 41.7057C34.1906 40.7835 33.4598 40.019 32.543 40.019H24.457C23.5402 40.019 22.8094 40.7835 22.8094 41.7057C22.8094 42.6279 23.5402 43.3924 24.457 43.3924Z" fill="#005896" stroke="white" stroke-width="0.6"/>
<path d="M29.5481 6.93359C29.5481 7.54181 29.071 8.02031 28.5004 8.02031C27.9297 8.02031 27.4523 7.54169 27.4523 6.93359C27.4523 6.32522 27.929 5.84688 28.4995 5.84688H28.5004C29.071 5.84688 29.5481 6.32538 29.5481 6.93359Z" fill="#005896" stroke="white" stroke-width="0.6"/>
</svg>
