<svg width="19" height="18" viewBox="0 0 19 18" fill="none" xmlns="http://www.w3.org/2000/svg">
<path d="M10.2056 18H7.15668C6.64729 18 6.23457 17.6098 6.23457 17.1281V10.6242H4.45727C3.94788 10.6242 3.53516 10.234 3.53516 9.75234V6.96797C3.53516 6.48633 3.94788 6.09609 4.45727 6.09609H6.23457V4.70039C6.23457 3.31875 6.69563 2.14102 7.56197 1.29727C8.43574 0.446484 9.65531 0 11.0905 0L13.4144 0.00351563C13.9238 0.00351563 14.3365 0.397266 14.3365 0.875391V3.46289C14.3365 3.94453 13.9238 4.33477 13.4144 4.33477H11.8491C11.3731 4.33477 11.2504 4.42617 11.2244 4.4543C11.1798 4.5 11.1314 4.63008 11.1314 4.98867V6.09258H13.2991C13.4627 6.09258 13.6189 6.13125 13.7565 6.20156C14.0502 6.35625 14.2324 6.64805 14.2324 6.96445V9.74883C14.2324 10.2305 13.8197 10.6207 13.3103 10.6207H11.1352V17.1211C11.1277 17.6098 10.715 18 10.2056 18Z" fill="white"/>
</svg>
