<svg width="51" height="51" viewBox="0 0 51 51" fill="none" xmlns="http://www.w3.org/2000/svg">
<path d="M3.80354 25.5342C3.80514 25.5267 3.80697 25.5199 3.80881 25.513C3.80955 25.5102 3.81029 25.5074 3.81102 25.5046M3.80354 25.5342L3.9076 25.5305L3.81102 25.5046M3.80354 25.5342C3.7977 25.5588 3.79336 25.5846 3.79007 25.6102L3.80354 25.5342ZM3.81102 25.5046C3.81746 25.4806 3.82479 25.4567 3.83272 25.4332L3.93441 25.447C3.93224 25.4529 3.92937 25.4607 3.92664 25.4676C3.91969 25.4884 3.91331 25.5093 3.90772 25.5301M3.81102 25.5046L3.90786 25.5295C3.90781 25.5297 3.90777 25.5299 3.90772 25.5301M3.90772 25.5301C3.90654 25.5347 3.90559 25.5382 3.9048 25.5411C3.90335 25.5466 3.9024 25.5501 3.90132 25.5552L3.90085 25.5574L3.90083 25.5573C3.89603 25.5775 3.89224 25.5998 3.88925 25.623L3.88878 25.6267L3.88871 25.6267C3.88786 25.6317 3.88723 25.6353 3.88673 25.6381C3.88594 25.6426 3.88549 25.6452 3.88508 25.6487L3.78573 25.6373L3.8851 25.6486C3.8815 25.6804 3.8793 25.7115 3.8793 25.7421V46.66C3.8793 47.9437 4.9238 48.9879 6.20733 48.9879H44.3081C44.8858 48.9879 45.4147 48.7759 45.8224 48.4255L45.8277 48.4203L45.8278 48.4205C46.3224 47.9933 46.6354 47.3627 46.6354 46.66L46.6362 25.7492L46.6354 25.744V25.7368C46.6354 25.7078 46.6336 25.6784 46.6302 25.6488L46.63 25.6469C46.63 25.647 46.63 25.6465 46.6298 25.6453L46.6289 25.6401C46.6284 25.6369 46.6273 25.631 46.6264 25.6245C46.6262 25.6231 46.626 25.6217 46.6258 25.6203L46.7251 25.6081L46.6261 25.6224C46.6227 25.5986 46.6191 25.5773 46.6145 25.5575L46.6132 25.5523L46.6134 25.5523C46.6126 25.548 46.6117 25.5447 46.61 25.538C46.6094 25.5357 46.6087 25.533 46.6078 25.5298C46.6013 25.5071 46.5952 25.4866 46.5883 25.4671L46.5877 25.4654C46.586 25.4602 46.5849 25.4572 46.5834 25.4533C46.5822 25.4501 46.5807 25.4462 46.5784 25.4397C46.5703 25.419 46.5615 25.3989 46.5524 25.3802L46.5518 25.379L46.5502 25.3757L3.90772 25.5301ZM46.4973 25.1201L46.423 25.187C46.4274 25.192 46.4303 25.1951 46.4325 25.1974C46.4354 25.2006 46.4371 25.2023 46.4394 25.2053L46.4394 25.2053L46.442 25.2083C46.4603 25.2293 46.4778 25.2528 46.4943 25.2779L46.4965 25.2811L46.4961 25.2813L46.5011 25.2889C46.5151 25.3102 46.5285 25.3331 46.5413 25.3574L4.14818 24.9997M46.4973 25.1201L46.4233 25.1873C46.4075 25.17 46.3934 25.1549 46.3785 25.1406L46.3769 25.1391C46.3727 25.1348 46.3691 25.1316 46.3635 25.1266C46.361 25.1245 46.3582 25.1219 46.3547 25.1188C46.3382 25.1044 46.3233 25.0921 46.3086 25.0813L46.3007 25.0756L46.301 25.0753C46.2973 25.072 46.295 25.0699 46.2933 25.0683C46.2919 25.0671 46.2909 25.0662 46.2897 25.0652L42.9417 22.6308L42.9005 22.6009V22.5499V3.37615C42.9005 2.27308 42.0031 1.37539 40.9002 1.37539H17.0858C16.6254 1.37539 16.252 1.74872 16.252 2.20934C16.252 2.66994 16.6254 3.04315 17.0858 3.04315H40.9002C41.0817 3.04315 41.2329 3.19455 41.2329 3.37615V27.9832V28.0341L41.1917 28.0641L30.4527 35.8745L30.3939 35.9173L30.3351 35.8745L27.0184 33.4625L27.0772 33.3816L27.0184 33.4625C26.0315 32.7445 24.508 32.7267 23.559 33.4173L23.559 33.4173L20.1804 35.8741L20.1216 35.9168L20.0628 35.874L9.32375 28.0641L9.28256 28.0341V27.9832V3.37615C9.28256 3.19451 9.43414 3.04315 9.61512 3.04315H10.6456C11.1061 3.04315 11.4794 2.66994 11.4794 2.20934C11.4794 1.74872 11.106 1.37539 10.6456 1.37539H9.61512C8.51225 1.37539 7.61496 2.27307 7.61496 3.37615V22.5499V22.6009L7.57377 22.6308L4.22407 25.0665C4.22425 25.0664 4.22433 25.0663 4.22401 25.0666C4.22367 25.0669 4.22291 25.0676 4.22138 25.0689C4.2194 25.0706 4.21455 25.0749 4.20883 25.0792M46.4973 25.1201C46.4812 25.1023 46.4652 25.0851 46.4477 25.0684L46.5172 25.1424C46.514 25.1384 46.5106 25.1346 46.5072 25.1309C46.5039 25.1273 46.5006 25.1238 46.4973 25.1201ZM4.20883 25.0792C4.20849 25.0794 4.20815 25.0797 4.20781 25.0799L4.14818 24.9997M4.20883 25.0792C4.20899 25.0791 4.20914 25.0789 4.2093 25.0788L4.14818 24.9997M4.20883 25.0792C4.19236 25.0919 4.17616 25.1052 4.16088 25.1186M4.14818 24.9997C4.12977 25.0139 4.11152 25.0288 4.09416 25.0441M4.16088 25.1186C4.16114 25.1184 4.1614 25.1181 4.16167 25.1179L4.09416 25.0441M4.16088 25.1186C4.16065 25.1188 4.16042 25.119 4.16019 25.1192L4.09416 25.0441M4.16088 25.1186L4.09416 25.0441M4.01801 25.2822C4.01841 25.2816 4.01875 25.281 4.01904 25.2805L4.02 25.2789L4.0201 25.2787L4.02032 25.2784C4.02029 25.2784 4.02018 25.2786 4.02 25.2789C4.01937 25.2799 4.01786 25.2823 4.01559 25.2852M4.01801 25.2822C4.01731 25.2834 4.01645 25.2848 4.01544 25.2863C4.01509 25.2868 4.01471 25.2874 4.01432 25.2879L4.01423 25.2879M4.01801 25.2822L4.01587 25.2854M4.01801 25.2822L4.01587 25.2854M4.01559 25.2852L3.98576 25.2661L3.93179 25.2315L3.99732 25.2763L4.01375 25.2875M4.01559 25.2852L4.01587 25.2854M4.01559 25.2852C4.01502 25.286 4.01441 25.2867 4.01375 25.2875M4.01375 25.2875C4.01325 25.2881 4.01272 25.2888 4.01216 25.2894L4.01281 25.29L4.01423 25.2879M4.01375 25.2875L4.01423 25.2879M4.01423 25.2879L4.01587 25.2854M7.58469 47.2203V47.1203H7.72219L7.58469 47.2203ZM7.58469 47.2203L7.64351 47.3012L7.75471 47.2203H7.58469ZM42.9308 47.2203H42.7608L42.872 47.3012L42.9308 47.2203ZM42.9308 47.2203V47.1203H42.7933L42.9308 47.2203ZM4.09123 25.1883L4.09249 25.1869L4.01724 25.121L4.09123 25.1883ZM43.0593 24.7784L42.9005 24.6629V24.8593V26.6248V26.8212L43.0593 26.7057L44.2734 25.8229L44.3847 25.7421L44.2734 25.6612L43.0593 24.7784ZM44.9681 27.5762V27.3798L44.8093 27.4953L31.923 36.8673L31.8118 36.9482L31.923 37.029L44.8093 46.4012L44.9681 46.5167V46.3203V27.5762ZM24.5398 34.7657L24.5398 34.7658L26.0378 34.8114L25.9785 34.892L26.0373 34.8111L26.0374 34.8112C25.9855 34.773 25.929 34.74 25.8696 34.7121C25.6626 34.6135 25.4136 34.5684 25.1778 34.5757C24.943 34.5829 24.7095 34.6425 24.5398 34.7657ZM5.54735 46.3203V46.5167L5.70617 46.4012L18.5924 37.029L18.7035 36.9482L18.5924 36.8673L5.70617 27.495L5.54735 27.3795V27.5759V46.3203ZM7.61496 24.8593V24.6629L7.45614 24.7784L6.24235 25.6612L6.13115 25.7421L6.24235 25.8229L7.45614 26.7057L7.61496 26.8212V26.6248V24.8593ZM3.93661 25.4411C3.94478 25.42 3.95374 25.3994 3.96365 25.3789L3.93661 25.4411Z" fill="#005896" stroke="white" stroke-width="0.2"/>
<path d="M13.3553 3.23944H13.3303C12.8697 3.23944 12.4965 2.86624 12.4965 2.40563C12.4965 1.945 12.8697 1.57168 13.3303 1.57168H13.3553C13.816 1.57168 14.1891 1.94499 14.1891 2.40563C14.1891 2.86625 13.816 3.23944 13.3553 3.23944Z" fill="#005896" stroke="white" stroke-width="0.2"/>
<path d="M22.0767 13.82L22.1218 13.7391C22.4416 13.1662 22.6239 12.5066 22.6239 11.8052V10.2285C22.6239 8.03001 20.8359 6.2416 18.6372 6.2416C16.439 6.2416 14.6503 8.03002 14.6503 10.2285V11.8052C14.6503 12.5065 14.8333 13.1662 15.1527 13.7392L15.1978 13.82L15.1207 13.8712C13.369 15.0345 12.2856 17.0074 12.2855 19.162L22.0767 13.82ZM22.0767 13.82L22.1538 13.8712M22.0767 13.82L22.1538 13.8712M22.1538 13.8712C23.9055 15.0345 24.9889 17.0074 24.9889 19.162C24.9889 19.6225 24.6156 19.9958 24.1551 19.9958H13.1199M22.1538 13.8712L13.1199 19.9958M13.1199 19.9958C12.659 19.9958 12.2857 19.6225 12.2855 19.162L13.1199 19.9958ZM17.0723 13.5148L17.072 13.5151L17.0787 13.5212C17.4909 13.8952 18.0378 14.124 18.6371 14.1243H18.6372C19.2367 14.1243 19.7837 13.8952 20.1956 13.5211L20.1958 13.5214L20.2011 13.5158C20.2217 13.494 20.2425 13.4742 20.2651 13.4552L20.2653 13.4555L20.2712 13.4496C20.6939 13.0295 20.9564 12.4474 20.9564 11.8052V10.3307V10.1726L20.8136 10.2403C20.2288 10.5177 19.5249 10.8027 18.8117 11.0207L18.841 11.1163L18.8117 11.0207C17.9565 11.2823 17.2299 11.4113 16.6222 11.4113C16.5551 11.4113 16.49 11.4083 16.4239 11.4047L16.3185 11.399V11.5045V11.8052C16.3185 12.4474 16.5811 13.0293 17.0039 13.4496L17.0037 13.4498L17.0091 13.4545C17.0322 13.4744 17.0533 13.4941 17.0723 13.5148ZM20.1876 8.69127L20.3196 8.62755L20.2121 8.52788C19.7985 8.14441 19.2449 7.90921 18.6372 7.90921C17.5723 7.90921 16.6741 8.63048 16.4026 9.60946L16.3694 9.72922L16.4935 9.73603C16.8443 9.75528 17.4361 9.69999 18.3508 9.41747L18.3508 9.41746C19.0202 9.21057 19.6788 8.93684 20.1876 8.69127ZM16.4052 15.1067L16.3534 15.0716L16.2992 15.1028C15.135 15.7726 14.3209 16.9057 14.0509 18.2079L14.0259 18.3282H14.1488H23.1254H23.2483L23.2233 18.2079C22.9531 16.9057 22.1393 15.7727 20.9756 15.1028L20.9214 15.0716L20.8696 15.1067C20.2322 15.5391 19.4638 15.7916 18.6372 15.7916C17.8107 15.7916 17.0427 15.5391 16.4052 15.1067Z" fill="#005896" stroke="white" stroke-width="0.2"/>
<path d="M32.645 7.90921H27.891C27.4304 7.90921 27.057 7.53599 27.057 7.0754C27.057 6.61454 27.4303 6.2416 27.891 6.2416H32.645C33.1056 6.2416 33.4788 6.61452 33.4788 7.0754C33.4788 7.53601 33.1056 7.90921 32.645 7.90921Z" fill="#005896" stroke="white" stroke-width="0.2"/>
<path d="M37.399 11.9375H27.891C27.4304 11.9375 27.057 11.5642 27.057 11.1037C27.057 10.6433 27.4304 10.2699 27.891 10.2699H37.399C37.8598 10.2699 38.2328 10.6432 38.2328 11.1037C38.2328 11.5642 37.8598 11.9375 37.399 11.9375Z" fill="#005896" stroke="white" stroke-width="0.2"/>
<path d="M37.399 15.9668H27.891C27.4303 15.9668 27.057 15.5939 27.057 15.133C27.057 14.6726 27.4304 14.2992 27.891 14.2992H37.399C37.8598 14.2992 38.2328 14.6725 38.2328 15.133C38.2328 15.5939 37.8598 15.9668 37.399 15.9668Z" fill="#005896" stroke="white" stroke-width="0.2"/>
<path d="M32.645 19.9961H27.891C27.4304 19.9961 27.057 19.6228 27.057 19.1623C27.057 18.7017 27.4304 18.3285 27.891 18.3285H32.645C33.1056 18.3285 33.4788 18.7017 33.4788 19.1623C33.4788 19.6228 33.1056 19.9961 32.645 19.9961Z" fill="#005896" stroke="white" stroke-width="0.2"/>
<path d="M32.6444 23.7306H13.1198C12.6588 23.7306 12.2855 23.3574 12.2855 22.8968C12.2855 22.4361 12.6589 22.0629 13.1198 22.0629H32.6444C33.105 22.0629 33.4782 22.4361 33.4782 22.8968C33.4782 23.3575 33.105 23.7306 32.6444 23.7306Z" fill="#005896" stroke="white" stroke-width="0.2"/>
<path d="M37.3984 27.4659H13.1198C12.6589 27.4659 12.2855 27.0923 12.2855 26.632C12.2855 26.1713 12.6588 25.7982 13.1198 25.7982H37.3984C37.8591 25.7982 38.2322 26.1713 38.2322 26.632C38.2322 27.0924 37.8591 27.4659 37.3984 27.4659Z" fill="#005896" stroke="white" stroke-width="0.2"/>
<path d="M25.2738 30.3684C25.2738 29.9075 25.6471 29.5346 26.1079 29.5346H26.1296C26.5902 29.5346 26.9634 29.9075 26.9634 30.3684C26.9634 30.8288 26.5902 31.2022 26.1296 31.2022H26.1079C25.6471 31.2022 25.2738 30.8288 25.2738 30.3684Z" fill="#005896" stroke="white" stroke-width="0.2"/>
<path d="M27.9789 30.3684C27.9789 29.9075 28.3518 29.5346 28.8127 29.5346H32.6444C33.1051 29.5346 33.4782 29.9075 33.4782 30.3684C33.4782 30.8286 33.105 31.2022 32.6444 31.2022H28.8127C28.3519 31.2022 27.9789 30.8286 27.9789 30.3684Z" fill="#005896" stroke="white" stroke-width="0.2"/>
</svg>
