<svg width="133" height="30" viewBox="0 0 133 30" fill="none" xmlns="http://www.w3.org/2000/svg">
<path d="M44.7198 21.7C45.2131 21.7 45.6598 21.8133 46.0598 22.04C46.4598 22.26 46.7731 22.5733 46.9998 22.98C47.2265 23.3867 47.3398 23.85 47.3398 24.37C47.3398 24.8967 47.2265 25.3633 46.9998 25.77C46.7731 26.1767 46.4598 26.4933 46.0598 26.72C45.6665 26.94 45.2198 27.05 44.7198 27.05C44.2931 27.05 43.9065 26.9633 43.5598 26.79C43.2198 26.61 42.9398 26.35 42.7198 26.01V28.94H42.0098V21.74H42.6898V22.78C42.9031 22.4333 43.1831 22.1667 43.5298 21.98C43.8831 21.7933 44.2798 21.7 44.7198 21.7ZM44.6698 26.42C45.0365 26.42 45.3698 26.3367 45.6698 26.17C45.9698 25.9967 46.2031 25.7533 46.3698 25.44C46.5431 25.1267 46.6298 24.77 46.6298 24.37C46.6298 23.97 46.5431 23.6167 46.3698 23.31C46.2031 22.9967 45.9698 22.7533 45.6698 22.58C45.3698 22.4067 45.0365 22.32 44.6698 22.32C44.2965 22.32 43.9598 22.4067 43.6598 22.58C43.3665 22.7533 43.1331 22.9967 42.9598 23.31C42.7931 23.6167 42.7098 23.97 42.7098 24.37C42.7098 24.77 42.7931 25.1267 42.9598 25.44C43.1331 25.7533 43.3665 25.9967 43.6598 26.17C43.9598 26.3367 44.2965 26.42 44.6698 26.42ZM50.646 21.7C51.3326 21.7 51.8593 21.8733 52.226 22.22C52.5926 22.56 52.776 23.0667 52.776 23.74V27H52.096V26.18C51.936 26.4533 51.6993 26.6667 51.386 26.82C51.0793 26.9733 50.7126 27.05 50.286 27.05C49.6993 27.05 49.2326 26.91 48.886 26.63C48.5393 26.35 48.366 25.98 48.366 25.52C48.366 25.0733 48.526 24.7133 48.846 24.44C49.1726 24.1667 49.6893 24.03 50.396 24.03H52.066V23.71C52.066 23.2567 51.9393 22.9133 51.686 22.68C51.4326 22.44 51.0626 22.32 50.576 22.32C50.2426 22.32 49.9226 22.3767 49.616 22.49C49.3093 22.5967 49.046 22.7467 48.826 22.94L48.506 22.41C48.7726 22.1833 49.0926 22.01 49.466 21.89C49.8393 21.7633 50.2326 21.7 50.646 21.7ZM50.396 26.49C50.796 26.49 51.1393 26.4 51.426 26.22C51.7126 26.0333 51.926 25.7667 52.066 25.42V24.56H50.416C49.516 24.56 49.066 24.8733 49.066 25.5C49.066 25.8067 49.1826 26.05 49.416 26.23C49.6493 26.4033 49.976 26.49 50.396 26.49ZM57.1186 24.26C57.492 24.3467 57.7786 24.4967 57.9786 24.71C58.1853 24.9233 58.2886 25.1833 58.2886 25.49C58.2886 25.7967 58.182 26.07 57.9686 26.31C57.762 26.55 57.4786 26.7367 57.1186 26.87C56.7586 26.9967 56.362 27.06 55.9286 27.06C55.5486 27.06 55.1753 27.0067 54.8086 26.9C54.442 26.7867 54.122 26.6233 53.8486 26.41L54.0886 25.88C54.3286 26.06 54.6086 26.2 54.9286 26.3C55.2486 26.4 55.572 26.45 55.8986 26.45C56.3853 26.45 56.782 26.36 57.0886 26.18C57.402 25.9933 57.5586 25.7433 57.5586 25.43C57.5586 25.15 57.432 24.9333 57.1786 24.78C56.9253 24.62 56.5786 24.54 56.1386 24.54H55.2386V24.02H56.0986C56.492 24.02 56.8086 23.9467 57.0486 23.8C57.2886 23.6467 57.4086 23.4433 57.4086 23.19C57.4086 22.91 57.272 22.69 56.9986 22.53C56.732 22.37 56.382 22.29 55.9486 22.29C55.382 22.29 54.822 22.4333 54.2686 22.72L54.0686 22.17C54.6953 21.8433 55.3453 21.68 56.0186 21.68C56.4186 21.68 56.7786 21.74 57.0986 21.86C57.4253 21.9733 57.6786 22.1367 57.8586 22.35C58.0453 22.5633 58.1386 22.81 58.1386 23.09C58.1386 23.3567 58.0453 23.5933 57.8586 23.8C57.6786 24.0067 57.432 24.16 57.1186 24.26ZM62.6104 21.7C63.1038 21.7 63.5504 21.8133 63.9504 22.04C64.3504 22.26 64.6638 22.5733 64.8904 22.98C65.1171 23.3867 65.2304 23.85 65.2304 24.37C65.2304 24.8967 65.1171 25.3633 64.8904 25.77C64.6638 26.1767 64.3504 26.4933 63.9504 26.72C63.5571 26.94 63.1104 27.05 62.6104 27.05C62.1838 27.05 61.7971 26.9633 61.4504 26.79C61.1104 26.61 60.8304 26.35 60.6104 26.01V28.94H59.9004V21.74H60.5804V22.78C60.7938 22.4333 61.0738 22.1667 61.4204 21.98C61.7738 21.7933 62.1704 21.7 62.6104 21.7ZM62.5604 26.42C62.9271 26.42 63.2604 26.3367 63.5604 26.17C63.8604 25.9967 64.0938 25.7533 64.2604 25.44C64.4338 25.1267 64.5204 24.77 64.5204 24.37C64.5204 23.97 64.4338 23.6167 64.2604 23.31C64.0938 22.9967 63.8604 22.7533 63.5604 22.58C63.2604 22.4067 62.9271 22.32 62.5604 22.32C62.1871 22.32 61.8504 22.4067 61.5504 22.58C61.2571 22.7533 61.0238 22.9967 60.8504 23.31C60.6838 23.6167 60.6004 23.97 60.6004 24.37C60.6004 24.77 60.6838 25.1267 60.8504 25.44C61.0238 25.7533 61.2571 25.9967 61.5504 26.17C61.8504 26.3367 62.1871 26.42 62.5604 26.42ZM68.5366 21.7C69.2233 21.7 69.7499 21.8733 70.1166 22.22C70.4833 22.56 70.6666 23.0667 70.6666 23.74V27H69.9866V26.18C69.8266 26.4533 69.5899 26.6667 69.2766 26.82C68.9699 26.9733 68.6033 27.05 68.1766 27.05C67.5899 27.05 67.1233 26.91 66.7766 26.63C66.4299 26.35 66.2566 25.98 66.2566 25.52C66.2566 25.0733 66.4166 24.7133 66.7366 24.44C67.0633 24.1667 67.5799 24.03 68.2866 24.03H69.9566V23.71C69.9566 23.2567 69.8299 22.9133 69.5766 22.68C69.3233 22.44 68.9533 22.32 68.4666 22.32C68.1333 22.32 67.8133 22.3767 67.5066 22.49C67.1999 22.5967 66.9366 22.7467 66.7166 22.94L66.3966 22.41C66.6633 22.1833 66.9833 22.01 67.3566 21.89C67.7299 21.7633 68.1233 21.7 68.5366 21.7ZM68.2866 26.49C68.6866 26.49 69.0299 26.4 69.3166 26.22C69.6033 26.0333 69.8166 25.7667 69.9566 25.42V24.56H68.3066C67.4066 24.56 66.9566 24.8733 66.9566 25.5C66.9566 25.8067 67.0733 26.05 67.3066 26.23C67.5399 26.4033 67.8666 26.49 68.2866 26.49ZM75.1067 21.87C75.5933 21.87 76.0267 21.98 76.4067 22.2C76.7933 22.4133 77.0933 22.7167 77.3067 23.11C77.52 23.4967 77.6267 23.94 77.6267 24.44C77.6267 24.9533 77.5133 25.41 77.2867 25.81C77.0667 26.2033 76.7567 26.51 76.3567 26.73C75.9567 26.95 75.4967 27.06 74.9767 27.06C74.1033 27.06 73.4267 26.7533 72.9467 26.14C72.4667 25.5267 72.2267 24.68 72.2267 23.6C72.2267 22.4733 72.44 21.61 72.8667 21.01C73.3 20.41 73.9733 20.0033 74.8867 19.79L77.2467 19.25L77.3667 19.9L75.1467 20.41C74.3933 20.5767 73.84 20.8733 73.4867 21.3C73.1333 21.72 72.94 22.3433 72.9067 23.17C73.12 22.7633 73.4167 22.4467 73.7967 22.22C74.1767 21.9867 74.6133 21.87 75.1067 21.87ZM74.9967 26.47C75.3633 26.47 75.69 26.3867 75.9767 26.22C76.27 26.0467 76.4967 25.8067 76.6567 25.5C76.8233 25.1933 76.9067 24.8467 76.9067 24.46C76.9067 24.0733 76.8267 23.7333 76.6667 23.44C76.5067 23.1467 76.28 22.92 75.9867 22.76C75.7 22.5933 75.37 22.51 74.9967 22.51C74.6233 22.51 74.29 22.5933 73.9967 22.76C73.71 22.92 73.4833 23.1467 73.3167 23.44C73.1567 23.7333 73.0767 24.0733 73.0767 24.46C73.0767 24.8467 73.1567 25.1933 73.3167 25.5C73.4833 25.8067 73.7133 26.0467 74.0067 26.22C74.3 26.3867 74.63 26.47 74.9967 26.47ZM81.3185 27.05C80.8118 27.05 80.3551 26.9367 79.9485 26.71C79.5418 26.4767 79.2218 26.1567 78.9885 25.75C78.7551 25.3433 78.6385 24.8833 78.6385 24.37C78.6385 23.8567 78.7551 23.3967 78.9885 22.99C79.2218 22.5833 79.5418 22.2667 79.9485 22.04C80.3551 21.8133 80.8118 21.7 81.3185 21.7C81.8251 21.7 82.2818 21.8133 82.6885 22.04C83.0951 22.2667 83.4118 22.5833 83.6385 22.99C83.8718 23.3967 83.9885 23.8567 83.9885 24.37C83.9885 24.8833 83.8718 25.3433 83.6385 25.75C83.4118 26.1567 83.0951 26.4767 82.6885 26.71C82.2818 26.9367 81.8251 27.05 81.3185 27.05ZM81.3185 26.42C81.6918 26.42 82.0251 26.3367 82.3185 26.17C82.6185 25.9967 82.8518 25.7533 83.0185 25.44C83.1851 25.1267 83.2685 24.77 83.2685 24.37C83.2685 23.97 83.1851 23.6133 83.0185 23.3C82.8518 22.9867 82.6185 22.7467 82.3185 22.58C82.0251 22.4067 81.6918 22.32 81.3185 22.32C80.9451 22.32 80.6085 22.4067 80.3085 22.58C80.0151 22.7467 79.7818 22.9867 79.6085 23.3C79.4418 23.6133 79.3585 23.97 79.3585 24.37C79.3585 24.77 79.4418 25.1267 79.6085 25.44C79.7818 25.7533 80.0151 25.9967 80.3085 26.17C80.6085 26.3367 80.9451 26.42 81.3185 26.42ZM89.0106 22.37H87.0206V27H86.3106V22.37H84.3206V21.74H89.0106V22.37ZM91.9471 24.66H90.7471V27H90.0371V21.74H90.7471V24.05H91.9571L93.8071 21.74H94.5771L92.5071 24.29L94.7271 27H93.8871L91.9471 24.66ZM97.56 21.7C98.2467 21.7 98.7734 21.8733 99.14 22.22C99.5067 22.56 99.69 23.0667 99.69 23.74V27H99.01V26.18C98.85 26.4533 98.6134 26.6667 98.3 26.82C97.9934 26.9733 97.6267 27.05 97.2 27.05C96.6134 27.05 96.1467 26.91 95.8 26.63C95.4534 26.35 95.28 25.98 95.28 25.52C95.28 25.0733 95.44 24.7133 95.76 24.44C96.0867 24.1667 96.6034 24.03 97.31 24.03H98.98V23.71C98.98 23.2567 98.8534 22.9133 98.6 22.68C98.3467 22.44 97.9767 22.32 97.49 22.32C97.1567 22.32 96.8367 22.3767 96.53 22.49C96.2234 22.5967 95.96 22.7467 95.74 22.94L95.42 22.41C95.6867 22.1833 96.0067 22.01 96.38 21.89C96.7534 21.7633 97.1467 21.7 97.56 21.7ZM97.31 26.49C97.71 26.49 98.0534 26.4 98.34 26.22C98.6267 26.0333 98.84 25.7667 98.98 25.42V24.56H97.33C96.43 24.56 95.98 24.8733 95.98 25.5C95.98 25.8067 96.0967 26.05 96.33 26.23C96.5634 26.4033 96.89 26.49 97.31 26.49ZM106.398 27.05C105.878 27.05 105.411 26.9367 104.998 26.71C104.591 26.4833 104.271 26.1667 104.038 25.76C103.804 25.3467 103.688 24.8833 103.688 24.37C103.688 23.8567 103.804 23.3967 104.038 22.99C104.271 22.5833 104.591 22.2667 104.998 22.04C105.411 21.8133 105.878 21.7 106.398 21.7C106.851 21.7 107.254 21.79 107.608 21.97C107.968 22.1433 108.251 22.4 108.458 22.74L107.928 23.1C107.754 22.84 107.534 22.6467 107.268 22.52C107.001 22.3867 106.711 22.32 106.398 22.32C106.018 22.32 105.674 22.4067 105.368 22.58C105.068 22.7467 104.831 22.9867 104.657 23.3C104.491 23.6133 104.408 23.97 104.408 24.37C104.408 24.7767 104.491 25.1367 104.657 25.45C104.831 25.7567 105.068 25.9967 105.368 26.17C105.674 26.3367 106.018 26.42 106.398 26.42C106.711 26.42 107.001 26.3567 107.268 26.23C107.534 26.1033 107.754 25.91 107.928 25.65L108.458 26.01C108.251 26.35 107.968 26.61 107.608 26.79C107.248 26.9633 106.844 27.05 106.398 27.05ZM111.642 21.7C112.329 21.7 112.856 21.8733 113.222 22.22C113.589 22.56 113.772 23.0667 113.772 23.74V27H113.092V26.18C112.932 26.4533 112.696 26.6667 112.382 26.82C112.076 26.9733 111.709 27.05 111.282 27.05C110.696 27.05 110.229 26.91 109.882 26.63C109.536 26.35 109.362 25.98 109.362 25.52C109.362 25.0733 109.522 24.7133 109.842 24.44C110.169 24.1667 110.686 24.03 111.392 24.03H113.062V23.71C113.062 23.2567 112.936 22.9133 112.682 22.68C112.429 22.44 112.059 22.32 111.572 22.32C111.239 22.32 110.919 22.3767 110.612 22.49C110.306 22.5967 110.042 22.7467 109.822 22.94L109.502 22.41C109.769 22.1833 110.089 22.01 110.462 21.89C110.836 21.7633 111.229 21.7 111.642 21.7ZM111.392 26.49C111.792 26.49 112.136 26.4 112.422 26.22C112.709 26.0333 112.922 25.7667 113.062 25.42V24.56H111.412C110.512 24.56 110.062 24.8733 110.062 25.5C110.062 25.8067 110.179 26.05 110.412 26.23C110.646 26.4033 110.972 26.49 111.392 26.49ZM115.662 21.74H116.372V25.92L119.882 21.74H120.512V27H119.802V22.82L116.302 27H115.662V21.74ZM118.052 20.98C117.599 20.98 117.239 20.8667 116.972 20.64C116.706 20.4133 116.569 20.0933 116.562 19.68H117.072C117.079 19.94 117.172 20.15 117.352 20.31C117.532 20.4633 117.766 20.54 118.052 20.54C118.339 20.54 118.572 20.4633 118.752 20.31C118.939 20.15 119.036 19.94 119.042 19.68H119.552C119.546 20.0933 119.406 20.4133 119.132 20.64C118.866 20.8667 118.506 20.98 118.052 20.98ZM126.247 22.37H124.257V27H123.547V22.37H121.557V21.74H126.247V22.37ZM129.084 21.7C129.77 21.7 130.297 21.8733 130.664 22.22C131.03 22.56 131.214 23.0667 131.214 23.74V27H130.534V26.18C130.374 26.4533 130.137 26.6667 129.824 26.82C129.517 26.9733 129.15 27.05 128.724 27.05C128.137 27.05 127.67 26.91 127.324 26.63C126.977 26.35 126.804 25.98 126.804 25.52C126.804 25.0733 126.964 24.7133 127.284 24.44C127.61 24.1667 128.127 24.03 128.834 24.03H130.504V23.71C130.504 23.2567 130.377 22.9133 130.124 22.68C129.87 22.44 129.5 22.32 129.014 22.32C128.68 22.32 128.36 22.3767 128.054 22.49C127.747 22.5967 127.484 22.7467 127.264 22.94L126.944 22.41C127.21 22.1833 127.53 22.01 127.904 21.89C128.277 21.7633 128.67 21.7 129.084 21.7ZM128.834 26.49C129.234 26.49 129.577 26.4 129.864 26.22C130.15 26.0333 130.364 25.7667 130.504 25.42V24.56H128.854C127.954 24.56 127.504 24.8733 127.504 25.5C127.504 25.8067 127.62 26.05 127.854 26.23C128.087 26.4033 128.414 26.49 128.834 26.49Z" fill="white"/>
<path d="M25 0H5C3.67392 0 2.40215 0.526784 1.46447 1.46447C0.526784 2.40215 0 3.67392 0 5V25C0 26.3261 0.526784 27.5979 1.46447 28.5355C2.40215 29.4732 3.67392 30 5 30H25C26.3261 30 27.5979 29.4732 28.5355 28.5355C29.4732 27.5979 30 26.3261 30 25V5C30 3.67392 29.4732 2.40215 28.5355 1.46447C27.5979 0.526784 26.3261 0 25 0ZM12.32 20.05L8.32 13.05H12.82L16.82 20.05H12.32ZM22 25L15 13H19.5C20.1885 13.0147 20.8652 12.8194 21.44 12.44C21.8186 12.0564 22.0309 11.539 22.0309 11C22.0309 10.461 21.8186 9.94365 21.44 9.56C21.2491 9.37583 21.0235 9.23147 20.7763 9.13533C20.529 9.03919 20.2652 8.99319 20 9H6L3.5 5H20C21.1859 5.00104 22.3449 5.3535 23.3307 6.01286C24.3164 6.67222 25.0846 7.60891 25.5383 8.70461C25.992 9.80032 26.1108 11.0059 25.8797 12.1691C25.6486 13.3323 25.0781 14.4009 24.24 15.24C23.5329 15.9528 22.655 16.4726 21.69 16.75L26.5 25H22Z" fill="white"/>
<path d="M50.0635 13L47.3435 9.17505C47.0375 9.20905 46.7202 9.22605 46.3915 9.22605H43.1955V13H41.9375V1.10005H46.3915C47.9102 1.10005 49.1002 1.46272 49.9615 2.18805C50.8228 2.91338 51.2535 3.91072 51.2535 5.18005C51.2535 6.10938 51.0155 6.89705 50.5395 7.54305C50.0748 8.17772 49.4062 8.63672 48.5335 8.92005L51.4405 13H50.0635ZM46.3575 8.15505C47.5362 8.15505 48.4372 7.89438 49.0605 7.37305C49.6838 6.85172 49.9955 6.12072 49.9955 5.18005C49.9955 4.21672 49.6838 3.48005 49.0605 2.97005C48.4372 2.44872 47.5362 2.18805 46.3575 2.18805H43.1955V8.15505H46.3575ZM54.2227 1.10005H55.4807V13H54.2227V1.10005ZM64.5205 13.102C63.3419 13.102 62.2765 12.8413 61.3245 12.32C60.3839 11.7987 59.6415 11.079 59.0975 10.161C58.5649 9.23172 58.2985 8.19472 58.2985 7.05005C58.2985 5.90538 58.5649 4.87405 59.0975 3.95605C59.6415 3.02672 60.3895 2.30138 61.3415 1.78005C62.2935 1.25872 63.3589 0.998047 64.5375 0.998047C65.4215 0.998047 66.2375 1.14538 66.9855 1.44005C67.7335 1.73472 68.3682 2.16538 68.8895 2.73205L68.0905 3.53105C67.1612 2.59038 65.9882 2.12005 64.5715 2.12005C63.6309 2.12005 62.7752 2.33538 62.0045 2.76605C61.2339 3.19672 60.6275 3.78605 60.1855 4.53405C59.7549 5.28205 59.5395 6.12072 59.5395 7.05005C59.5395 7.97938 59.7549 8.81805 60.1855 9.56605C60.6275 10.314 61.2339 10.9033 62.0045 11.334C62.7752 11.7647 63.6309 11.98 64.5715 11.98C65.9995 11.98 67.1725 11.504 68.0905 10.552L68.8895 11.351C68.3682 11.9177 67.7279 12.354 66.9685 12.66C66.2205 12.9547 65.4045 13.102 64.5205 13.102ZM81.5163 1.10005V13H80.2753V7.50905H72.8293V13H71.5713V1.10005H72.8293V6.40405H80.2753V1.10005H81.5163ZM92.8974 6.86305C93.6794 7.03305 94.2801 7.37305 94.6994 7.88305C95.1301 8.38172 95.3454 9.02772 95.3454 9.82105C95.3454 10.841 94.9657 11.6287 94.2064 12.184C93.4584 12.728 92.3477 13 90.8744 13H85.4004V1.10005H90.5344C91.8604 1.10005 92.8861 1.36638 93.6114 1.89905C94.3481 2.43172 94.7164 3.18538 94.7164 4.16005C94.7164 4.81738 94.5521 5.37838 94.2234 5.84305C93.9061 6.29638 93.4641 6.63638 92.8974 6.86305ZM86.6584 2.13705V6.45505H90.4494C91.4127 6.45505 92.1551 6.27372 92.6764 5.91105C93.1977 5.53705 93.4584 4.99872 93.4584 4.29605C93.4584 3.59338 93.1977 3.06072 92.6764 2.69805C92.1551 2.32405 91.4127 2.13705 90.4494 2.13705H86.6584ZM90.8574 11.963C91.9227 11.963 92.7274 11.7817 93.2714 11.419C93.8154 11.0563 94.0874 10.4897 94.0874 9.71905C94.0874 8.23438 93.0107 7.49205 90.8574 7.49205H86.6584V11.963H90.8574ZM106.632 11.912V13H98.2168V1.10005H106.376V2.18805H99.4748V6.42105H105.628V7.49205H99.4748V11.912H106.632ZM118.003 11.912V13H109.589V1.10005H117.749V2.18805H110.846V6.42105H117.001V7.49205H110.846V11.912H118.003Z" fill="white"/>
</svg>
