<svg width="90" height="90" viewBox="0 0 90 90" fill="none" xmlns="http://www.w3.org/2000/svg">
<g clip-path="url(#clip0)">
<path d="M45.4707 26.4021H59.3874C60.5991 26.4021 61.5847 25.4165 61.5847 24.2048V10.2286C61.5847 9.01687 60.5991 8.03125 59.3874 8.03125H45.4707C44.2591 8.03125 43.2734 9.01687 43.2734 10.2286V13.5354C43.2734 14.2637 43.8635 14.8538 44.5918 14.8538C45.3201 14.8538 45.9102 14.2637 45.9102 13.5354V10.668H58.948V23.7655H45.9102V19.8788C45.9102 19.1505 45.3201 18.5604 44.5918 18.5604C43.8635 18.5604 43.2734 19.1505 43.2734 19.8788V24.205C43.2734 25.4165 44.2591 26.4021 45.4707 26.4021Z" fill="#ED002F"/>
<path d="M20.916 24.2715H38.8764C39.6047 24.2715 40.1948 23.6814 40.1948 22.9531C40.1948 22.2249 39.6047 21.6348 38.8764 21.6348H20.916C20.1878 21.6348 19.5977 22.2249 19.5977 22.9531C19.5977 23.6814 20.1879 24.2715 20.916 24.2715Z" fill="#005896"/>
<path d="M50.9712 34.0982C50.9712 33.3699 50.3811 32.7798 49.6529 32.7798H31.5293C30.801 32.7798 30.2109 33.3699 30.2109 34.0982C30.2109 34.8264 30.801 35.4166 31.5293 35.4166H49.6529C50.381 35.4166 50.9712 34.8263 50.9712 34.0982Z" fill="#005896"/>
<path d="M20.916 18.5352H38.8764C39.6047 18.5352 40.1948 17.9451 40.1948 17.2168C40.1948 16.4885 39.6047 15.8984 38.8764 15.8984H20.916C20.1878 15.8984 19.5977 16.4885 19.5977 17.2168C19.5977 17.9451 20.1879 18.5352 20.916 18.5352Z" fill="#005896"/>
<path d="M20.916 12.7989H38.8764C39.6047 12.7989 40.1948 12.2088 40.1948 11.4805C40.1948 10.7522 39.6047 10.1621 38.8764 10.1621H20.916C20.1878 10.1621 19.5977 10.7522 19.5977 11.4805C19.5977 12.2088 20.1879 12.7989 20.916 12.7989Z" fill="#005896"/>
<path d="M20.916 50.0039H47.9613C48.6896 50.0039 49.2797 49.4138 49.2797 48.6856C49.2797 47.9573 48.6896 47.3672 47.9613 47.3672H20.916C20.1878 47.3672 19.5977 47.9573 19.5977 48.6856C19.5977 49.4138 20.1879 50.0039 20.916 50.0039Z" fill="#005896"/>
<path d="M20.916 42.6285H42.3051C43.0334 42.6285 43.6235 42.0384 43.6235 41.3101C43.6235 40.5818 43.0334 39.9917 42.3051 39.9917H20.916C20.1878 39.9917 19.5977 40.5818 19.5977 41.3101C19.5977 42.0384 20.1879 42.6285 20.916 42.6285Z" fill="#005896"/>
<path d="M60.347 39.9917H48.0196C47.2913 39.9917 46.7012 40.5818 46.7012 41.3101C46.7012 42.0384 47.2913 42.6285 48.0196 42.6285H60.347C61.0752 42.6285 61.6653 42.0384 61.6653 41.3101C61.6653 40.5818 61.0751 39.9917 60.347 39.9917Z" fill="#005896"/>
<path d="M88.4688 81.5507C88.4528 81.5349 88.4363 81.5196 88.4196 81.5047L80.3066 74.2858C81.5884 71.9503 82.32 69.3334 82.4172 66.6059C82.4431 65.8782 81.8742 65.2673 81.1467 65.2413C80.4177 65.2197 79.8082 65.7843 79.782 66.5119C79.5824 74.278 73.0045 80.6748 65.2227 80.5971C57.1894 80.5971 50.6537 74.0395 50.6537 65.9792C50.5319 58.08 57.334 51.2496 65.2227 51.3614C71.3681 51.3614 76.8839 55.2611 78.9481 61.0652C79.1921 61.7511 79.9468 62.1101 80.632 61.8657C81.318 61.6217 81.6763 60.8678 81.4325 60.1819C79.2304 53.99 73.6999 49.6352 67.2998 48.8522V2.1973C67.2998 0.985623 66.3141 0 65.1025 0H16.0815C14.8698 0 13.8842 0.985623 13.8842 2.1973V6.96581H9.14242C7.93074 6.96581 6.94512 7.95143 6.94512 9.16311V13.9314H2.20316C0.991482 13.9314 0.00585938 14.9171 0.00585938 16.1287V81.8977C0.00585938 83.1094 0.991482 84.095 2.20316 84.095H44.1827C45.3944 84.095 46.38 83.1094 46.38 81.8977V77.1292H52.1034C55.2619 80.8611 59.971 83.2341 65.2229 83.2341C68.1089 83.2341 70.8951 82.5205 73.3742 81.18L81.5489 88.5014C83.4927 90.4271 86.6422 90.5335 88.5925 88.6087C90.5443 86.7434 90.4263 83.3956 88.4688 81.5507ZM16.521 2.63676H64.663V48.7357C59.0597 48.9183 53.9678 51.8318 50.9248 56.3816H45.5718C44.8435 56.3816 44.2534 56.9717 44.2534 57.7C44.2534 58.4282 44.8435 59.0184 45.5718 59.0184H49.4752C49.2988 59.4198 49.1362 59.8296 48.9892 60.2483C48.3441 62.0861 48.0171 64.0145 48.0171 65.9792C48.0171 66.501 48.0417 67.0167 48.0871 67.5268H29.7454C31.5549 65.7933 32.6856 63.3525 32.6856 60.6502V59.0185H39.8574C40.5857 59.0185 41.1758 58.4284 41.1758 57.7001C41.1758 56.9719 40.5857 56.3818 39.8574 56.3818H31.3672C30.6389 56.3818 30.0488 56.9719 30.0488 57.7001V60.6502C30.0488 64.442 26.9778 67.5268 23.2034 67.5268H16.521V2.63676ZM9.58188 74.4923V56.4707C9.58188 55.7424 8.99178 55.1523 8.2635 55.1523C7.53523 55.1523 6.94512 55.7424 6.94512 56.4707V74.9318C6.94512 76.1434 7.93074 77.1291 9.14242 77.1291H43.7433V81.4581H2.64262V16.5682H6.94512V50.8982C6.94512 51.6264 7.53523 52.2166 8.2635 52.2166C8.99178 52.2166 9.58188 51.6264 9.58188 50.8982V9.60257H13.8844V68.8452C13.8844 69.5735 14.4745 70.1636 15.2028 70.1636H48.5299C48.9124 71.6977 49.4997 73.1511 50.2617 74.4925H9.58188V74.4923ZM86.7366 86.7357C85.8243 87.6452 84.2767 87.5524 83.3339 86.5602L75.6666 79.6931C76.8501 78.7864 77.9416 77.6968 78.8493 76.5182L86.6392 83.4499C87.5382 84.3155 87.6424 85.8633 86.7366 86.7357Z" fill="#005896"/>
<path d="M65.2215 54.7105C59.138 54.6239 53.8912 59.8895 53.9836 65.979C53.9836 72.1925 59.0249 77.2473 65.2215 77.2473C71.4179 77.2473 76.4592 72.1925 76.4592 65.979C76.4592 59.7656 71.4179 54.7105 65.2215 54.7105ZM65.2215 74.6104C60.479 74.6104 56.6204 70.7384 56.6204 65.9788C56.5483 61.3149 60.5643 57.2812 65.2215 57.3471C69.964 57.3471 73.8225 61.2191 73.8225 65.9788C73.8225 70.7384 69.9642 74.6104 65.2215 74.6104Z" fill="#005896"/>
</g>
<defs>
<clipPath id="clip0">
<rect width="90" height="90" fill="white"/>
</clipPath>
</defs>
</svg>
