<svg width="46" height="51" viewBox="0 0 46 51" fill="none" xmlns="http://www.w3.org/2000/svg">
<path d="M45.2008 26.0002V25.9002V25.8002C45.2008 25.8002 45.2008 25.8002 45.2008 25.7002C45.2008 25.7002 45.2008 25.7002 45.2008 25.6002V25.5002C45.2008 25.5002 45.2008 25.4002 45.1008 25.4002C45.1008 25.4002 45.1008 25.4002 45.0008 25.3002C45.0008 25.3002 45.0008 25.3002 44.9008 25.3002L41.4008 22.8002V2.90019C41.4008 1.70019 40.4008 0.700195 39.2008 0.700195H14.6008C14.1008 0.700195 13.6008 1.1002 13.6008 1.7002C13.6008 2.3002 14.0008 2.7002 14.6008 2.7002H39.2008C39.3008 2.7002 39.4008 2.80019 39.4008 2.90019V28.3002L28.3008 36.4002L24.9008 33.9002C23.8008 33.1002 22.2008 33.1002 21.2008 33.9002L17.7008 36.4002L6.60078 28.3002V2.90019C6.60078 2.80019 6.70078 2.7002 6.80078 2.7002H7.90078C8.40078 2.7002 8.90078 2.3002 8.90078 1.7002C8.90078 1.1002 8.50078 0.700195 7.90078 0.700195H6.80078C5.60078 0.700195 4.60078 1.70019 4.60078 2.90019V22.7002L1.10078 25.2002C1.10078 25.2002 1.10078 25.2002 1.00078 25.2002C1.00078 25.2002 1.00078 25.2002 0.900782 25.3002C0.900782 25.3002 0.900781 25.4002 0.800781 25.4002V25.5002C0.800781 25.5002 0.800781 25.5002 0.800781 25.6002C0.800781 25.6002 0.800781 25.6002 0.800781 25.7002V25.8002V25.9002V47.5002C0.800781 48.9002 1.90078 50.0002 3.30078 50.0002H42.7008C43.3008 50.0002 43.9008 49.8002 44.3008 49.4002C44.8008 48.9002 45.2008 48.3002 45.2008 47.5002V26.0002ZM41.3008 25.1002L42.6008 26.0002L41.3008 26.9002V25.1002ZM43.3008 27.9002V47.3002L30.0008 37.6002L43.3008 27.9002ZM22.3008 35.4002C22.6008 35.2002 23.2008 35.2002 23.6008 35.4002C23.7008 35.4002 23.7008 35.5002 23.8008 35.5002L41.3008 48.2002H4.80078L22.3008 35.4002ZM2.80078 47.2002V27.9002L16.1008 37.6002L2.80078 47.2002ZM4.70078 25.1002V26.9002L3.40078 26.0002L4.70078 25.1002Z" fill="#005896" stroke="white" stroke-width="0.75" stroke-miterlimit="10"/>
<path d="M10.6992 2.59961C11.2992 2.59961 11.6992 2.19961 11.6992 1.59961C11.6992 0.999609 11.2992 0.599609 10.6992 0.599609C10.1992 0.599609 9.69922 0.999609 9.69922 1.59961C9.69922 2.19961 10.1992 2.59961 10.6992 2.59961Z" fill="#005896" stroke="white" stroke-width="0.75" stroke-miterlimit="10"/>
<path d="M10.5 19.9H21.9C22.4 19.9 22.9 19.5 22.9 18.9C22.9 16.6 21.8 14.6 19.9 13.3C20.2 12.7 20.4 12 20.4 11.3V9.7C20.4 7.4 18.5 5.5 16.2 5.5C13.9 5.5 12 7.4 12 9.7V11.3C12 12 12.2 12.7 12.5 13.3C10.7 14.5 9.5 16.6 9.5 18.9C9.5 19.5 9.9 19.9 10.5 19.9ZM14.6 13.1C14.6 13.1 14.6 13 14.6 13.1C14.1 12.6 13.8 12 13.8 11.4V11.1C13.9 11.1 13.9 11.1 14 11.1C14.6 11.1 15.4 11 16.3 10.7C17 10.5 17.8 10.2 18.4 9.9V11.4C18.4 12 18.1 12.6 17.7 13C17.7 13 17.6 13 17.6 13.1C17.2 13.5 16.7 13.7 16.1 13.7C15.6 13.7 15 13.4 14.6 13.1ZM16.2 7.5C16.8 7.5 17.3 7.7 17.8 8.1C17.3 8.4 16.6 8.6 15.9 8.8C15 9.1 14.4 9.1 14 9.1C14.2 8.2 15.1 7.5 16.2 7.5ZM13.8 14.9C14.5 15.4 15.3 15.6 16.2 15.6C17.1 15.6 17.9 15.3 18.6 14.9C19.8 15.6 20.6 16.7 20.9 18H11.6C11.8 16.7 12.6 15.6 13.8 14.9Z" fill="#005896" stroke="white" stroke-width="0.75" stroke-miterlimit="10"/>
<path d="M25.6992 7.5H30.5992C31.0992 7.5 31.5992 7.1 31.5992 6.5C31.5992 6 31.1992 5.5 30.5992 5.5H25.6992C25.1992 5.5 24.6992 5.9 24.6992 6.5C24.7992 7 25.1992 7.5 25.6992 7.5Z" fill="#005896" stroke="white" stroke-width="0.75" stroke-miterlimit="10"/>
<path d="M25.6992 11.5996H35.4992C35.9992 11.5996 36.4992 11.1996 36.4992 10.5996C36.4992 10.0996 36.0992 9.59961 35.4992 9.59961H25.6992C25.1992 9.59961 24.6992 9.99961 24.6992 10.5996C24.7992 11.1996 25.1992 11.5996 25.6992 11.5996Z" fill="#005896" stroke="white" stroke-width="0.75" stroke-miterlimit="10"/>
<path d="M25.6992 15.7998H35.4992C35.9992 15.7998 36.4992 15.3998 36.4992 14.7998C36.4992 14.2998 36.0992 13.7998 35.4992 13.7998H25.6992C25.1992 13.7998 24.6992 14.1998 24.6992 14.7998C24.7992 15.3998 25.1992 15.7998 25.6992 15.7998Z" fill="#005896" stroke="white" stroke-width="0.75" stroke-miterlimit="10"/>
<path d="M25.6992 19.9004H30.5992C31.0992 19.9004 31.5992 19.5004 31.5992 18.9004C31.5992 18.4004 31.1992 17.9004 30.5992 17.9004H25.6992C25.1992 17.9004 24.6992 18.3004 24.6992 18.9004C24.7992 19.5004 25.1992 19.9004 25.6992 19.9004Z" fill="#005896" stroke="white" stroke-width="0.75" stroke-miterlimit="10"/>
<path d="M10.5 23.7998H30.7C31.2 23.7998 31.7 23.3998 31.7 22.7998C31.7 22.2998 31.3 21.7998 30.7 21.7998H10.5C10 21.7998 9.5 22.1998 9.5 22.7998C9.5 23.3998 9.9 23.7998 10.5 23.7998Z" fill="#005896" stroke="white" stroke-width="0.75" stroke-miterlimit="10"/>
<path d="M10.5 27.7002H35.6C36.1 27.7002 36.6 27.3002 36.6 26.7002C36.6 26.2002 36.2 25.7002 35.6 25.7002H10.5C10 25.7002 9.5 26.1002 9.5 26.7002C9.5 27.2002 9.9 27.7002 10.5 27.7002Z" fill="#005896" stroke="white" stroke-width="0.75" stroke-miterlimit="10"/>
<path d="M23.9004 29.5996C23.4004 29.5996 22.9004 29.9996 22.9004 30.5996C22.9004 31.0996 23.3004 31.5996 23.9004 31.5996C24.4004 31.5996 24.9004 31.1996 24.9004 30.5996C24.9004 29.9996 24.4004 29.5996 23.9004 29.5996Z" fill="#005896" stroke="white" stroke-width="0.75" stroke-miterlimit="10"/>
<path d="M26.6992 29.5996C26.1992 29.5996 25.6992 29.9996 25.6992 30.5996C25.6992 31.0996 26.0992 31.5996 26.6992 31.5996H30.6992C31.1992 31.5996 31.6992 31.1996 31.6992 30.5996C31.6992 30.0996 31.2992 29.5996 30.6992 29.5996H26.6992Z" fill="#005896" stroke="white" stroke-width="0.75" stroke-miterlimit="10"/>
</svg>
