<svg width="30" height="17" viewBox="0 0 30 17" fill="none" xmlns="http://www.w3.org/2000/svg">
<path d="M28.6064 12.7228C27.9574 11.9846 27.2207 11.3184 26.5073 10.6801C26.2559 10.4525 25.9987 10.2249 25.7472 9.99176C25.414 9.68091 25.2503 9.45887 25.2327 9.29789C25.2152 9.13691 25.3321 8.89822 25.5952 8.54851C25.9928 8.02116 26.4138 7.49382 26.8231 6.98313C27.1856 6.52795 27.5598 6.06167 27.9223 5.58983L28.0042 5.48437C28.7058 4.5629 29.4308 3.60814 29.8167 2.44798C29.9278 2.11492 30.0447 1.62089 29.7641 1.18791C29.4834 0.754933 28.9689 0.62726 28.6064 0.5662C28.431 0.538445 28.2614 0.532894 28.1036 0.532894L23.5546 0.527343C22.7653 0.516241 22.2215 0.871504 21.9233 1.58203C21.6836 2.14823 21.403 2.80879 21.0814 3.4305C20.4558 4.63507 19.6664 6.02281 18.5204 7.17741L18.4678 7.22737C18.3918 7.30509 18.2632 7.43831 18.1988 7.46607C18.0761 7.3939 17.9299 6.96648 17.9357 6.74444C17.9357 6.73889 17.9357 6.73334 17.9357 6.72779L17.9299 1.73746C17.9299 1.7097 17.9299 1.6875 17.924 1.65974C17.8246 0.949217 17.6258 0.233141 16.4389 0.0111018C16.398 0.00555081 16.3629 0 16.322 0H11.5918C10.7031 0 10.2295 0.388568 9.85526 0.804892C9.74416 0.927013 9.45766 1.25452 9.60384 1.64864C9.75586 2.04831 10.2002 2.13158 10.3464 2.15933C10.8609 2.2537 11.1299 2.53125 11.2117 3.05859C11.3755 4.08552 11.393 5.18461 11.2761 6.51685C11.241 6.87211 11.1825 7.14411 11.0773 7.3717C11.048 7.43276 11.0246 7.47162 11.0071 7.49382C10.9779 7.48272 10.9369 7.46607 10.8785 7.42721C10.516 7.19407 10.2412 6.8277 9.97804 6.47244C8.92559 5.05694 8.03686 3.49712 7.26506 1.6986C6.94933 0.96032 6.35294 0.549547 5.58699 0.538445C4.1311 0.516241 2.78046 0.516241 1.46489 0.538445C0.845118 0.549547 0.412444 0.732729 0.17272 1.08799C-0.067005 1.44325 -0.0553111 1.89843 0.196107 2.43688C2.02035 6.30036 3.67504 9.1036 5.5636 11.5349C6.8967 13.2446 8.23565 14.4325 9.77924 15.2763C11.4047 16.1589 13.2348 16.5919 15.3572 16.5919C15.597 16.5919 15.8425 16.5863 16.0939 16.5752C17.4037 16.5197 17.9357 16.0257 17.9942 14.81C18.0293 14.1716 18.0994 13.6499 18.3626 13.2002C18.4327 13.0726 18.5204 12.9893 18.5847 12.9726C18.6549 12.956 18.7777 12.9948 18.9122 13.0781C19.1577 13.2335 19.3741 13.4389 19.5495 13.6221C19.7249 13.8053 19.9061 13.9996 20.0816 14.1827C20.4499 14.5769 20.8358 14.9821 21.2393 15.3707C22.1455 16.2477 23.198 16.6529 24.3557 16.5697H28.5187C28.5304 16.5697 28.5479 16.5697 28.5596 16.5697C29.0391 16.5419 29.4542 16.2866 29.6998 15.8758C29.9921 15.3818 29.9863 14.7545 29.6881 14.205C29.3723 13.6277 28.9631 13.1336 28.6064 12.7228Z" fill="white"/>
</svg>
