<svg width="217" height="39" viewBox="0 0 217 39" fill="none" xmlns="http://www.w3.org/2000/svg">
<path fill-rule="evenodd" clip-rule="evenodd" d="M12.2585 22.9462H22.0654L18.4365 14.9051C18.2403 14.3165 18.0441 13.7279 17.848 13.042C17.6518 12.4534 17.3582 11.6686 17.162 10.8839C16.9644 11.5698 16.7696 12.3546 16.572 13.042C16.2784 13.7279 16.0822 14.3165 15.886 14.9051L12.2585 22.9462ZM28.1446 36.8703L24.1247 27.7508H10.1004L5.98179 36.8703H0L17.0632 0L34.2238 36.8703H28.1446ZM73.2522 38.2423L57.465 1.47075H63.4468L71.2917 20.2997C71.7815 21.378 72.1739 22.3576 72.4688 23.3386C72.7624 24.2208 73.0574 25.1043 73.2536 25.9865C73.4498 25.1043 73.7434 24.2208 74.0384 23.2412C74.3333 22.2616 74.7243 21.2806 75.1167 20.2997L83.0591 1.47075H89.0409L73.2522 38.2423ZM147.289 19.2199C147.289 17.4542 146.993 15.6885 146.306 14.1203C145.621 12.4534 144.739 11.08 143.462 9.80547C142.286 8.53091 140.914 7.64738 139.344 6.96139C137.775 6.2754 136.106 5.98043 134.439 5.98043C132.676 5.98043 131.009 6.2754 129.44 6.96139C127.87 7.54996 126.498 8.53091 125.223 9.80547C124.047 11.08 123.066 12.4534 122.378 14.1203C121.791 15.6885 121.496 17.4542 121.496 19.2199C121.496 20.9856 121.793 22.6499 122.378 24.3182C123.066 25.8877 124.045 27.3598 125.223 28.5356C126.498 29.8088 127.87 30.7898 129.44 31.4771C131.009 32.0671 132.678 32.4581 134.439 32.4581C136.106 32.4581 137.775 32.0671 139.344 31.4771C140.816 30.7898 142.286 29.8102 143.462 28.5356C144.737 27.3598 145.621 25.8877 146.306 24.3182C146.993 22.6499 147.289 20.9856 147.289 19.2199ZM153.27 19.2199C153.27 21.7677 152.779 24.122 151.898 26.3789C150.892 28.602 149.497 30.6274 147.778 32.3593C145.915 34.125 143.857 35.3982 141.6 36.3792C139.319 37.2772 136.892 37.7433 134.441 37.7539C131.796 37.7539 129.441 37.2627 127.086 36.3792C124.831 35.3982 122.772 34.125 121.008 32.3593C119.145 30.5936 117.77 28.633 116.888 26.3789C115.904 24.1212 115.403 21.6826 115.418 19.2199C115.418 16.6694 115.907 14.3152 116.888 12.0596C117.77 9.80412 119.145 7.84357 121.008 6.0792C122.774 4.31349 124.831 2.9415 127.086 2.05797C129.44 1.07701 131.794 0.685986 134.441 0.685986C136.892 0.685986 139.346 1.07837 141.6 2.05797C143.954 2.94015 145.915 4.31349 147.778 6.0792C149.543 7.84357 150.914 9.80547 151.898 12.0596C152.803 14.3384 153.268 16.768 153.27 19.2199ZM185.141 36.8703V0L207.693 21.6703C208.283 22.2602 208.871 22.9462 209.556 23.6335C210.146 24.3182 210.832 25.1029 211.519 25.9851V1.47075H216.812V38.2423L193.866 16.1797C193.279 15.5911 192.69 15.0039 192.101 14.3165C191.513 13.6305 191.022 12.9445 190.436 12.2585V36.8717H185.141V36.8703Z" fill="#C4C4C4"/>
</svg>
