<svg width="140" height="66" viewBox="0 0 140 66" fill="none" xmlns="http://www.w3.org/2000/svg">
<path fill-rule="evenodd" clip-rule="evenodd" d="M42.1933 26.749C46.5297 26.749 49.1672 27.5116 50.4943 29.1402C51.2176 30.0263 51.5826 31.2048 51.5909 32.6973C51.5951 33.5267 51.4899 34.452 51.2777 35.4818L48.3053 49.8393C47.8935 51.8243 47.6455 53.3441 47.6522 54.6039C47.6546 55.0033 47.6914 55.3727 47.7491 55.7225C46.5563 55.7225 40.5454 55.7225 39.6167 55.7225C39.6142 55.6344 39.6017 55.5489 39.6017 55.4582C39.5983 54.863 39.6443 54.2344 39.696 53.5835L39.7813 52.4059H39.3311L39.1532 52.6864C37.6941 55.0323 34.38 56.4837 31.5403 56.4837C29.1868 56.4837 27.5005 55.8816 26.5291 54.6877C25.4567 53.3732 25.2012 51.3137 25.7674 48.5701C26.8766 43.2103 29.3137 40.9422 35.4257 39.5704C35.429 39.5704 39.4839 38.6459 39.4839 38.6459C41.8918 38.1139 43.0519 37.0526 43.482 34.9765C43.7167 33.8374 43.5898 32.9571 43.1028 32.3565C42.651 31.8044 41.9261 31.5247 40.9497 31.5247C38.7765 31.5247 37.6197 32.6472 36.904 35.4409C36.1523 35.4409 30.8363 35.4409 29.6469 35.4409C31.598 27.9041 38.2971 26.749 42.1933 26.749ZM42.1031 41.5298C42.1031 41.5298 41.9394 41.6794 41.6245 41.8034C41.1108 42.001 39.9708 42.1874 39.2659 42.3645C38.7197 42.5005 38.1033 42.6578 37.4377 42.9375C35.6654 43.6884 34.7517 44.9174 34.2815 47.1769C34.0075 48.4991 34.1679 49.5802 34.7508 50.296C35.186 50.8322 35.8299 51.1136 36.6066 51.1136C39.7762 51.1136 40.7701 48.0818 41.242 45.7974L42.1257 41.5298H42.1031L41.242 45.7974L42.1031 41.5298Z" fill="#C4C4C4"/>
<path fill-rule="evenodd" clip-rule="evenodd" d="M71.2538 53.1884C69.5374 51.082 69.2009 47.7688 70.3852 41.8667C72.9693 29.0174 77.8535 26.749 82.1032 26.749C84.1233 26.749 87.1662 27.4974 87.5237 31.0428L87.5802 31.594H88.1703C88.1703 31.594 88.8605 28.259 89.0118 27.5149C89.8123 27.5149 95.7289 27.5149 96.9117 27.5149C96.6243 28.8988 91.0447 55.7225 91.0447 55.7225C89.6516 62.461 85.3249 65.8178 77.3874 65.8178C70.0336 65.8178 68.9428 61.4817 68.7775 60.139C68.7148 59.6293 68.886 58.1249 68.886 58.1249C69.7321 58.1249 75.4981 58.1249 76.5732 58.1249C76.5732 58.1309 76.5732 58.1309 76.5732 58.1309C76.5775 58.8159 76.6288 59.8268 76.8605 60.1108C77.1787 60.5033 77.443 60.9643 78.6625 60.9643C80.2815 60.9643 81.8312 60.4973 82.5872 56.8429L83.8958 50.5132H83.2646L83.0901 50.8109C81.5156 53.5365 78.5839 54.9143 75.4922 54.9143C73.5882 54.9143 72.2001 54.3533 71.2538 53.1884ZM79.0979 41.2424C78.2332 45.4245 78.2708 47.0324 79.1167 48.0707C79.5366 48.5889 80.1652 48.837 81.0333 48.837C83.4348 48.837 84.6082 47.3788 85.8278 41.493C86.6993 37.2775 86.7899 34.5999 85.9561 33.5726C85.5464 33.074 84.9469 32.8259 84.1198 32.8259C81.6388 32.8259 80.314 35.3565 79.0979 41.2424Z" fill="#C4C4C4"/>
<path fill-rule="evenodd" clip-rule="evenodd" d="M109.581 27.5151C109.3 28.8765 103.935 54.8213 103.746 55.7228C102.937 55.7228 96.3993 55.7228 95.1934 55.7228C95.4764 54.3604 100.847 28.4163 101.035 27.5151C101.843 27.5151 108.381 27.5151 109.581 27.5151Z" fill="#C4C4C4"/>
<path fill-rule="evenodd" clip-rule="evenodd" d="M125.288 18.105C125.002 19.4888 117.696 54.8059 117.504 55.7228C116.692 55.7228 110.159 55.7228 108.951 55.7228C109.237 54.3347 116.546 19.0178 116.737 18.105C117.55 18.105 124.084 18.105 125.288 18.105Z" fill="#C4C4C4"/>
<path fill-rule="evenodd" clip-rule="evenodd" d="M139.002 18.105C138.712 19.4888 131.404 54.8059 131.211 55.7228C130.404 55.7228 123.862 55.7228 122.662 55.7228C122.951 54.3347 130.259 19.0178 130.448 18.105C131.261 18.105 137.8 18.105 139.002 18.105Z" fill="#C4C4C4"/>
<path fill-rule="evenodd" clip-rule="evenodd" d="M72.4706 26.749C69.6677 26.749 66.3328 28.71 64.7041 31.8629L64.5354 32.1886H63.909C63.909 32.1886 64.6623 28.5522 64.8745 27.5149C64.715 27.5149 64.4594 27.5149 64.142 27.5149V27.5116C63.2133 27.5116 57.2015 27.5116 56.0072 27.5116C56.0648 27.864 56.1016 28.2324 56.1041 28.6349C56.1091 29.5394 55.9796 30.585 55.7541 31.8404C54.1689 39.5003 51.0227 54.6877 50.8105 55.7225C52.0141 55.7225 58.552 55.7225 59.3672 55.7225C59.9134 53.073 62.5827 40.1571 62.5827 40.1571C63.3878 36.2717 65.6663 34.4629 69.7462 34.4629C70.4503 34.4629 71.0691 34.5021 71.6772 34.5915C71.8676 33.6753 73.0628 27.9041 73.2999 26.749C72.8857 26.749 72.4706 26.749 72.4706 26.749Z" fill="#C4C4C4"/>
<path fill-rule="evenodd" clip-rule="evenodd" d="M1.6824 54.2543C-0.454 51.6322 -0.548419 46.8112 1.35749 37.6096C4.40019 22.899 8.80084 17.9346 18.7932 17.9346C22.7853 17.9346 25.5883 18.8867 27.1192 20.7651C28.1097 21.9787 28.6109 23.6357 28.6225 25.7136C28.6292 26.8453 28.4906 28.1048 28.2058 29.4812C28.2058 29.4812 27.9452 30.7374 27.7974 31.4481C26.9864 31.4481 19.3769 31.4481 19.3769 31.4481C19.3769 31.4481 20.0008 27.4333 19.9958 26.548C19.99 25.5516 19.9516 25.012 19.5707 24.5093C19.1756 23.9889 18.5885 23.5722 17.6681 23.5722C13.9465 23.5722 12.7238 27.1168 10.604 37.3599C8.95863 45.3111 8.36988 48.9604 9.64103 50.5195C10.123 51.1079 10.8487 51.3944 11.8668 51.3944C14.7975 51.3944 15.9526 48.8817 17.4251 41.8918C18.2327 41.8918 24.7054 41.8918 25.9073 41.8918C25.7403 42.7009 25.4622 44.0385 25.4622 44.0385C23.6791 52.6585 18.626 57.033 10.4428 57.033C6.01121 57.033 3.22756 56.147 1.6824 54.2543Z" fill="#C4C4C4"/>
<path fill-rule="evenodd" clip-rule="evenodd" d="M110.313 24.1869C110.985 8.68393 92.2909 -2.95532 74.8435 0.664406C57.4055 4.28166 48.9766 19.4647 46.7734 24.1552H49.6256C53.4433 17.7342 57.3086 12.7497 63.8966 10.893C68.0818 9.71296 71.37 9.98356 79.464 14.4994C83.192 16.58 91.629 22.8347 100.693 24.0842C104.63 24.6279 110.313 24.1869 110.313 24.1869Z" fill="#C4C4C4"/>
</svg>
