<svg width="221" height="78" viewBox="0 0 221 78" fill="none" xmlns="http://www.w3.org/2000/svg">
<path fill-rule="evenodd" clip-rule="evenodd" d="M42.9959 33.4984C45.0745 30.7746 46.9137 26.5937 46.9438 21.7688C46.9739 17.0842 44.3303 12.7041 43.3656 10.3023C42.3156 7.69257 41.614 3.79232 42.4196 0.43457C40.4463 1.5935 39.1333 5.42985 38.6472 7.18014C38.1585 8.94171 37.6636 10.9225 37.7977 14.8178C37.9869 20.2891 41.1216 22.7423 41.8207 25.3157C42.4622 27.6762 42.1853 31.153 41.8633 33.4984H42.9959ZM38.9115 34.1486C39.6457 30.8047 39.5455 26.2391 37.5333 21.8528C35.5801 17.5954 31.3315 14.7388 29.4434 12.9735C27.3924 11.0503 25.1059 7.8116 24.4156 4.42879C23.1176 6.31439 23.5511 10.3449 23.8505 12.1378C24.1487 13.9407 24.5383 15.9441 26.3087 19.4209C28.7907 24.2971 32.6671 25.193 34.3886 27.2314C35.9685 29.1007 37.1888 32.3695 37.8879 34.6272L38.9115 34.1486ZM35.4874 36.4652C34.7394 33.1238 32.7185 29.0281 29.0412 25.9046C25.473 22.8714 20.4151 22.0783 17.9569 21.2739C15.2845 20.3981 11.8466 18.4311 9.78805 15.6547C9.40968 17.9099 11.5045 21.3829 12.5331 22.8814C13.5655 24.3874 14.7645 26.0412 17.8379 28.4417C22.1516 31.812 26.0443 30.9888 28.4649 32.1089C30.685 33.1338 33.1708 35.5807 34.7619 37.3335L35.4874 36.4652ZM33.3637 40.0122C31.2739 37.3009 27.7132 34.4431 23.0574 33.1639C18.5395 31.9222 13.6219 33.3443 11.0547 33.6525C8.26078 33.992 4.31292 33.6587 1.27716 32.0137C1.88732 34.2188 5.25384 36.4778 6.8187 37.4024C8.38983 38.3308 10.1777 39.3206 13.9765 40.1988C19.3088 41.4317 22.4886 39.0387 25.1585 39.0299C27.6029 39.0199 30.8905 40.1863 33.0718 41.1034L33.3637 40.0122ZM32.9365 44.1267C29.8945 42.5505 25.4617 41.4668 20.7032 42.2736C16.0826 43.0592 12.2262 46.422 10.0311 47.7889C7.64185 49.276 3.92327 50.6417 0.476562 50.4337C1.96124 52.1765 5.96673 52.8004 7.77466 52.9783C9.59385 53.155 11.6298 53.2966 15.4449 52.486C20.7997 51.3508 22.6703 47.8377 25.0834 46.7014C27.2972 45.6614 30.769 45.3282 33.1344 45.2367L32.9365 44.1267ZM46.9726 34.6297C50.0071 33.0436 53.4388 30.0329 55.5061 25.6703C57.5145 21.4368 56.9695 16.3463 57.1098 13.7641C57.2639 10.9576 58.275 7.12627 60.4237 4.42378C58.1459 4.63928 55.3357 7.56227 54.153 8.94296C52.9665 10.3312 51.6822 11.9173 50.1562 15.5069C48.0163 20.546 49.8204 24.0904 49.3656 26.7177C48.9497 29.1308 47.2307 32.1653 45.9503 34.1549L46.9726 34.6297ZM50.0961 37.3385C53.5165 37.1819 57.9003 35.9027 61.6164 32.8243C65.2235 29.8374 66.8823 24.995 68.1014 22.711C69.4257 20.2315 71.9628 17.187 75.0524 15.6434C72.8949 14.8792 69.115 16.3388 67.4587 17.0918C65.7961 17.8485 63.9606 18.7431 61.0639 21.3516C56.9933 25.0138 57.1286 28.9905 55.6063 31.1818C54.2106 33.1877 51.369 35.2111 49.3682 36.474L50.0961 37.3385ZM51.7812 41.1135C54.9485 42.4165 59.464 43.1118 64.131 41.8928C68.6652 40.7088 72.2134 37.019 74.2831 35.4667C76.5321 33.7803 80.1191 32.0926 83.5696 31.9999C81.9408 30.3937 77.894 30.1206 76.0773 30.1018C74.2506 30.0855 72.2096 30.1206 68.481 31.2607C63.2427 32.8582 61.6878 36.5216 59.3825 37.8609C57.2689 39.0913 53.8372 39.724 51.4906 40.0222L51.7812 41.1135ZM51.7161 45.248C54.0364 47.7688 57.8327 50.3047 62.5812 51.1729C67.1893 52.0161 71.9653 50.1744 74.4961 49.6406C77.2487 49.0605 81.2091 49.0468 84.379 50.4224C83.5784 48.2775 80.0289 46.3217 78.3901 45.5374C76.7401 44.7493 74.8758 43.9174 71.0144 43.3749C65.5943 42.6119 62.635 45.2705 59.9776 45.5136C57.542 45.7341 54.1655 44.8596 51.9115 44.1367L51.7161 45.248ZM35.4585 46.4433C35.4585 46.4433 39.2974 67.225 24.9668 77.4486C25.4154 77.4486 38.8213 78.9834 40.866 61.2387C41.8533 52.6977 37.8754 49.3763 35.4585 46.4433ZM49.392 46.4433C49.392 46.4433 45.5531 67.225 59.8824 77.4486C59.4351 77.4486 46.0292 78.9834 43.9832 61.2387C42.9997 52.6977 46.9751 49.3763 49.392 46.4433ZM90.2212 50.3147H107.719L108.73 45.6853H97.1196L98.8423 37.4437H109.147L110.076 32.8156H99.8096L101.327 25.5826H112.808L113.692 20.9557H96.4055L90.2212 50.3147ZM110.083 50.3147H115.719L118.034 39.4221C118.751 36.1808 120.18 32.5224 124.093 32.5224C125.901 32.5224 127.161 33.7427 127.161 35.5506C127.161 37.1481 126.826 38.6202 126.53 40.0949L124.428 50.3147H130.063L132.336 39.7979C132.629 38.4536 133.05 36.7296 133.05 35.0871C133.05 30.7984 130.231 28.1473 125.982 28.1473C123.543 28.1473 121.399 29.325 119.843 30.7558H119.758L120.138 28.6522H114.628C114.542 29.3263 114.334 30.4601 114.081 31.7656L110.083 50.3147ZM154.198 41.2287C154.533 39.6313 154.744 38.0313 154.744 36.3926C154.744 30.8811 151.211 28.1473 145.868 28.1473C138.759 28.1473 133.545 34.6247 133.545 41.3553C133.545 47.7914 137.751 50.8209 143.977 50.8209C146.289 50.8209 148.685 50.2721 150.875 49.6005L151.589 45.1403C149.484 46.1075 147.255 46.6988 144.942 46.6988C141.071 46.6988 138.927 45.2254 138.927 41.2287H154.198ZM139.684 37.3598C140.78 34.3729 142.293 32.2705 145.782 32.2705C148.139 32.2705 149.359 33.5748 149.359 35.8876C149.359 36.3926 149.318 36.8549 149.231 37.3598H139.684ZM153.782 50.3147L160.002 20.9607C162.929 20.9607 164.811 20.9582 165.643 20.9544L159.417 50.3147H153.782ZM95.9331 64.7618H96.9718C99.6981 64.7618 101.536 66.0385 101.536 68.3964C101.536 72.5473 99.5452 75.1031 95.1764 75.1031H93.7706L95.9331 64.7618ZM90.2212 77.4799H95.3054C102.92 77.4799 104.693 72.333 104.693 68.8274C104.693 63.5953 101.103 62.3825 97.944 62.3825H93.4023L90.2212 77.4799ZM107.743 65.1502H110.642L111.247 62.38H108.348L107.743 65.1502ZM105.091 77.4799H107.988L110.368 66.3417H107.47L105.091 77.4799ZM119.601 66.5371C118.584 66.2778 117.502 66.0823 116.443 66.0823C114.15 66.0823 111.619 67.012 111.619 69.628C111.619 72.4207 115.383 72.5924 115.383 74.3903C115.383 75.2986 114.366 75.6231 113.391 75.6231C112.268 75.6231 111.445 75.2122 110.622 74.7561L109.997 77.0702C111.054 77.5701 112.224 77.743 113.391 77.743C115.879 77.743 118.41 76.876 118.41 73.9781C118.41 71.2518 114.646 70.7318 114.646 69.3261C114.646 68.439 115.728 68.2022 116.595 68.2022C117.416 68.2022 118.215 68.439 118.973 68.7222L119.601 66.5371ZM120.426 68.4603H122.523L121.701 72.2253C121.506 73.1123 121.334 73.9555 121.334 74.8187C121.334 76.9637 122.717 77.7417 124.687 77.7417C125.183 77.7417 125.747 77.5901 126.246 77.4799L126.742 75.2309C126.293 75.4041 125.816 75.492 125.335 75.4903C124.686 75.4903 124.231 75.0794 124.231 74.4103C124.231 73.9768 124.297 73.5872 124.362 73.3265L125.42 68.4603H128.018L128.471 66.3417H125.875L126.589 63.0303L123.474 64.0476L122.978 66.3417H120.878L120.426 68.4603ZM127.774 77.4799H130.671L131.711 72.4846C132.078 70.688 133.071 68.8525 135.13 68.8525C135.497 68.8525 135.908 68.9164 136.231 69.0229L136.838 66.1901C136.474 66.111 136.103 66.0748 135.731 66.0823C134.393 66.0823 132.964 67.2275 132.445 68.439H132.404L132.793 66.3417H130.023C129.938 66.8616 129.849 67.359 129.764 67.8351L127.774 77.4799ZM138.465 65.1502H141.365L141.969 62.38H139.073L138.465 65.1502ZM135.815 77.4799H138.713L141.094 66.3417H138.194L135.815 77.4799ZM166.844 66.3417H163.945L162.754 71.9446C162.387 73.6097 161.65 75.4916 159.639 75.4916C158.709 75.4916 158.06 74.8638 158.06 73.9355C158.06 73.1136 158.234 72.3568 158.384 71.5988L159.465 66.3429H156.568L155.398 71.7504C155.246 72.4433 155.031 73.3278 155.031 74.1723C155.031 76.3824 156.482 77.7442 158.667 77.7442C159.92 77.7442 161.023 77.1366 161.824 76.4036H161.865L161.672 77.4824H164.506C164.55 77.1366 164.658 76.5527 164.791 75.8824L166.844 66.3417ZM177.866 66.3417H169.103L168.606 68.5919H173.733L166.873 75.2309L166.421 77.4799H175.744L176.156 75.2309H170.573L177.386 68.5919L177.866 66.3417ZM180.32 65.1502H183.22L183.827 62.38H180.927L180.32 65.1502ZM177.668 77.4799H180.567L182.945 66.3417H180.046L177.668 77.4799ZM189.022 75.4903C187.353 75.4903 186.751 74.3451 186.751 72.873C186.751 70.8621 187.897 68.3313 190.189 68.3313C191.9 68.3313 192.397 69.5403 192.397 70.9912C192.396 72.8956 191.271 75.4903 189.022 75.4903ZM190.318 66.0823C186.577 66.0823 183.721 68.9364 183.721 72.6575C183.721 75.7947 185.625 77.743 188.781 77.743C192.719 77.743 195.425 74.8851 195.425 70.9711C195.425 67.8978 193.327 66.0823 190.318 66.0823ZM196.169 77.4799H199.069L200.258 71.8807C200.625 70.2131 201.361 68.3313 203.375 68.3313C204.302 68.3313 204.951 68.9565 204.951 69.8874C204.951 70.7093 204.779 71.4673 204.628 72.224L203.547 77.4786H206.443L207.613 72.0749C207.765 71.3808 207.98 70.4938 207.98 69.6481C207.98 67.4417 206.532 66.0798 204.347 66.0798C203.092 66.0798 201.988 66.6862 201.189 67.4204H201.147L201.34 66.3392H198.506C198.465 66.6862 198.355 67.2688 198.224 67.9391L196.169 77.4799ZM219.911 72.8091C220.091 71.9927 220.186 71.1595 220.192 70.3234C220.192 67.4881 218.377 66.0823 215.628 66.0823C211.972 66.0823 209.29 69.4113 209.29 72.8743C209.29 76.1844 211.451 77.743 214.653 77.743C215.845 77.743 217.076 77.4586 218.202 77.1153L218.569 74.82C217.487 75.3199 216.34 75.6244 215.152 75.6244C213.16 75.6244 212.059 74.8651 212.059 72.8104H219.911V72.8091ZM212.45 70.817C213.012 69.2822 213.79 68.201 215.584 68.201C216.798 68.201 217.425 68.8713 217.425 70.0615C217.425 70.3148 217.402 70.5676 217.358 70.817H212.45ZM147.317 75.4903C145.912 75.4903 145.415 74.3013 145.415 72.873C145.415 70.926 146.519 68.3313 148.486 68.3313C149.826 68.3313 150.519 69.3461 150.519 70.7093C150.52 72.4621 149.741 75.4903 147.317 75.4903ZM141.434 77.4799L144.633 62.3938H147.577L146.41 67.443C147.188 66.6875 148.184 66.0811 149.462 66.0811C152.229 66.0811 153.551 67.9629 153.551 70.6015C153.551 74.0846 151.625 77.7405 147.751 77.7405C146.173 77.7405 145.459 77.4561 144.55 75.9L144.161 77.4786H141.434V77.4799Z" fill="#C4C4C4"/>
<path fill-rule="evenodd" clip-rule="evenodd" d="M42.5206 33.0626C44.5979 30.3388 46.4372 26.1579 46.4672 21.333C46.4973 16.6497 43.8537 12.2683 42.889 9.86652C41.8391 7.25675 41.1374 3.3565 41.9431 0C39.9697 1.15892 38.6567 4.99528 38.1706 6.74432C37.6807 8.50589 37.1871 10.488 37.3211 14.3819C37.5116 19.8533 40.6451 22.3077 41.3442 24.8799C41.9857 27.2404 41.71 30.7184 41.388 33.0638H42.5206V33.0626ZM38.435 33.7141C39.1704 30.3688 39.0689 25.8046 37.0568 21.4182C35.1035 17.1609 30.855 14.303 28.9669 12.5377C26.9146 10.6145 24.6293 7.37578 23.939 3.99297C22.641 5.87857 23.0745 9.91038 23.3727 11.702C23.6709 13.5037 24.0605 15.507 25.8309 18.9838C28.3128 23.8601 32.1893 24.7571 33.912 26.7931C35.4907 28.6624 36.7122 31.9312 37.4101 34.1902L38.435 33.7141ZM35.0121 36.0294C34.2641 32.6892 32.2432 28.591 28.5659 25.4688C24.9977 22.4355 19.9398 21.6425 17.4816 20.8381C14.8092 19.9623 11.3712 17.9953 9.31274 15.2189C8.93437 17.4741 11.0292 20.9471 12.0578 22.4456C13.089 23.9503 14.2892 25.6041 17.3613 28.0059C21.675 31.3774 25.5678 30.553 27.9883 31.6744C30.2097 32.6992 32.6955 35.1461 34.2854 36.8989L35.0121 36.0294ZM32.8871 39.5776C30.7973 36.8651 27.2366 34.006 22.5809 32.728C18.0642 31.4852 13.1466 32.9085 10.5794 33.2167C7.78547 33.5549 3.83761 33.2229 0.800598 31.5779C1.41076 33.7817 4.77728 36.0419 6.34214 36.9666C7.91452 37.895 9.70114 38.8847 13.4999 39.763C18.8322 40.9959 22.0108 38.6016 24.6807 38.5928C27.1251 38.5841 30.4127 39.7492 32.5952 40.6676L32.8871 39.5776ZM32.4612 43.6921C29.4179 42.1147 24.9852 41.031 20.2279 41.8391C15.6073 42.6259 11.7509 45.9886 9.55455 47.3543C7.16529 48.8427 3.44796 50.2084 0 50.0004C1.48468 51.7432 5.49017 52.3659 7.29935 52.5438C9.11729 52.7204 11.1545 52.862 14.9695 52.0526C20.3244 50.9175 22.195 47.4032 24.608 46.268C26.8219 45.2281 30.2949 44.8949 32.6579 44.8022L32.4612 43.6921ZM46.4961 34.1939C49.5306 32.6078 52.9622 29.5971 55.0295 25.2358C57.0366 21.001 56.4929 15.9105 56.6332 13.3283C56.7873 10.5218 57.7984 6.69045 59.9484 3.98671C57.6693 4.20346 54.8591 7.1252 53.6764 8.50588C52.4899 9.89534 51.2057 11.4815 49.6797 15.071C47.5397 20.1089 49.3451 23.6546 48.8891 26.2832C48.4719 28.695 46.7542 31.7295 45.4724 33.7191L46.4961 34.1939ZM49.6195 36.9039C53.0399 36.7473 57.4238 35.4681 61.1399 32.3898C64.7482 29.4029 66.407 24.5592 67.6261 22.2764C68.9504 19.7957 71.4875 16.7524 74.5771 15.2089C72.4196 14.4446 68.6397 15.9042 66.9833 16.6572C65.3208 17.4139 63.4853 18.3073 60.5886 20.917C56.5179 24.5792 56.6533 28.5547 55.131 30.7472C53.7365 32.7543 50.895 34.7765 48.8928 36.0394L49.6195 36.9039ZM51.3059 40.6764C54.4732 41.9806 58.9886 42.6747 63.6557 41.4557C68.1911 40.273 71.7393 36.5819 73.8079 35.0309C76.0568 33.3445 79.6426 31.6568 83.0943 31.5641C81.4643 29.9566 77.4187 29.6848 75.6032 29.666C73.7753 29.6497 71.7343 29.6835 68.0057 30.8249C62.7686 32.4223 61.2125 36.0845 58.9072 37.4239C56.7948 38.6542 53.3619 39.2882 51.0152 39.5839L51.3059 40.6764ZM51.2408 44.8122C53.5599 47.3317 57.3561 49.8689 62.1046 50.7371C66.7127 51.5803 71.4887 49.7385 74.0196 49.2048C76.7734 48.6247 80.7326 48.6097 83.9036 49.9866C83.1018 47.8417 79.5536 45.8847 77.9148 45.1016C76.266 44.3135 74.4005 43.4816 70.5391 42.9391C65.119 42.1748 62.1597 44.8347 59.5023 45.0765C57.0667 45.2983 53.6889 44.4225 51.4362 43.6996L51.2408 44.8122ZM34.9832 46.0062C34.9832 46.0062 38.8209 66.7892 24.4903 77.0127C24.9388 77.0127 38.3447 78.5475 40.3895 60.8028C41.3767 52.2606 37.3988 48.9405 34.9832 46.0062ZM48.9166 46.0062C48.9166 46.0062 45.0778 66.7892 59.4071 77.0127C58.9598 77.0127 45.5551 78.5475 43.5079 60.8028C42.5231 52.2606 46.4986 48.9405 48.9166 46.0062Z" fill="#C4C4C4"/>
<path fill-rule="evenodd" clip-rule="evenodd" d="M89.7441 49.8776H107.242L108.253 45.2519H96.6438L98.3665 37.0079H108.672L109.599 32.3797H99.3338L100.851 25.148H112.331L113.217 20.5198H95.9284L89.7441 49.8776ZM109.606 49.8776H115.244L117.557 38.985C118.274 35.745 119.703 32.0865 123.616 32.0865C125.424 32.0865 126.684 33.3069 126.684 35.1148C126.684 36.7122 126.349 38.1856 126.053 39.6578L123.951 49.8776H129.586L131.859 39.3608C132.152 38.0177 132.573 36.2938 132.573 34.65C132.573 30.3626 129.754 27.7114 125.505 27.7114C123.066 27.7114 120.922 28.8892 119.366 30.3187H119.281L119.661 28.2164H114.15C114.068 28.8892 113.857 30.0243 113.604 31.3285L109.606 49.8776ZM153.721 40.7916C154.056 39.1942 154.267 37.5955 154.267 35.9567C154.267 30.4465 150.734 27.7114 145.394 27.7114C138.282 27.7114 133.068 34.1876 133.068 40.9194C133.068 47.3543 137.274 50.385 143.499 50.385C145.812 50.385 148.21 49.8363 150.398 49.1635L151.112 44.7044C149.01 45.6704 146.778 46.2618 144.465 46.2618C140.594 46.2618 138.45 44.7884 138.45 40.7916H153.721ZM139.21 36.924C140.303 33.9371 141.816 31.8347 145.305 31.8347C147.662 31.8347 148.882 33.139 148.882 35.4506C148.882 35.9555 148.838 36.4178 148.754 36.9227H139.21V36.924ZM153.305 49.8776L159.528 20.5236C162.452 20.5236 164.334 20.5211 165.166 20.5173L158.94 49.8776H153.305ZM95.4561 64.3247H96.4947C99.221 64.3247 101.059 65.6026 101.059 67.9593C101.059 72.1114 99.0682 74.6673 94.6993 74.6673H93.2936L95.4561 64.3247ZM89.7441 77.0453H94.8284C102.445 77.0453 104.218 71.8984 104.218 68.3928C104.218 63.1595 100.626 61.9467 97.4682 61.9467H92.9265L89.7441 77.0453ZM107.267 64.7131H110.165L110.77 61.9442H107.871L107.267 64.7131ZM104.613 77.0453H107.513L109.892 65.9058H106.994L104.613 77.0453ZM119.124 66.1013C118.107 65.8419 117.025 65.6452 115.966 65.6452C113.673 65.6452 111.142 66.5749 111.142 69.1922C111.142 71.9849 114.906 72.1565 114.906 73.9544C114.906 74.8628 113.889 75.1873 112.914 75.1873C111.791 75.1873 110.968 74.7763 110.145 74.3203L109.52 76.6344C110.578 77.133 111.746 77.3072 112.914 77.3072C115.402 77.3072 117.933 76.4389 117.933 73.5422C117.933 70.8159 114.169 70.296 114.169 68.8902C114.169 68.0019 115.251 67.7664 116.118 67.7664C116.939 67.7664 117.74 68.0019 118.495 68.2851L119.124 66.1013ZM119.949 68.0245H122.046L121.224 71.7882C121.029 72.6765 120.857 73.5197 120.857 74.3829C120.857 76.5266 122.242 77.3059 124.21 77.3059C124.706 77.3059 125.27 77.1543 125.769 77.0441L126.265 74.7951C125.816 74.9682 125.339 75.0562 124.858 75.0545C124.209 75.0545 123.756 74.6423 123.756 73.9757C123.756 73.541 123.82 73.1501 123.887 72.892L124.947 68.0245H127.543L127.995 65.9058H125.399L126.113 62.5945L122.998 63.6106L122.502 65.9058H120.405L119.949 68.0245ZM127.297 77.0453H130.196L131.234 72.05C131.601 70.2521 132.597 68.4166 134.65 68.4166C135.02 68.4166 135.431 68.4805 135.754 68.5883L136.36 65.7542C135.998 65.6753 135.628 65.6391 135.257 65.6465C133.916 65.6465 132.487 66.7916 131.968 68.0032H131.926L132.316 65.9071H129.546C129.461 66.4271 129.374 66.9245 129.287 67.3993L127.297 77.0453ZM137.989 64.7131H140.888L141.494 61.9442H138.596L137.989 64.7131ZM135.338 77.0453H138.239L140.617 65.9058H137.717L135.338 77.0453ZM166.365 65.9058H163.468L162.277 71.5088C161.909 73.1739 161.173 75.0557 159.162 75.0557C158.232 75.0557 157.583 74.428 157.583 73.4984C157.583 72.6777 157.757 71.9197 157.906 71.1617L158.988 65.9071H156.091L154.923 71.3133C154.769 72.0074 154.554 72.8932 154.554 73.7352C154.554 75.9453 156.005 77.3084 158.19 77.3084C159.443 77.3084 160.546 76.7008 161.347 75.9678H161.388L161.195 77.0466H164.029C164.073 76.7008 164.181 76.1169 164.311 75.4466L166.365 65.9058ZM177.386 65.9058H168.626L168.126 68.1548H173.256L166.396 74.7964L165.941 77.0453H175.268L175.679 74.7964H170.095L176.909 68.1548L177.386 65.9058ZM179.843 64.7131H182.743L183.348 61.9442H180.447L179.843 64.7131ZM177.191 77.0453H180.088L182.469 65.9058H179.569L177.191 77.0453ZM188.542 75.0557C186.876 75.0557 186.272 73.9106 186.272 72.4372C186.272 70.4263 187.417 67.8954 189.71 67.8954C191.42 67.8954 191.917 69.1045 191.917 70.5553C191.917 72.4597 190.794 75.0557 188.542 75.0557ZM189.839 65.6452C186.1 65.6452 183.241 68.5006 183.241 72.2217C183.241 75.3589 185.146 77.3072 188.302 77.3072C192.242 77.3072 194.948 74.4493 194.948 70.5353C194.949 67.4619 192.85 65.6452 189.839 65.6452ZM195.69 77.0453H198.592L199.781 71.4449C200.148 69.7773 200.884 67.8954 202.895 67.8954C203.825 67.8954 204.474 68.5219 204.474 69.4528C204.474 70.2747 204.3 71.0327 204.151 71.7882L203.069 77.0441H205.966L207.136 71.6391C207.285 70.9462 207.503 70.0592 207.503 69.2135C207.503 67.0071 206.053 65.644 203.868 65.644C202.615 65.644 201.511 66.2516 200.71 66.9858H200.666L200.859 65.9046H198.025C197.984 66.2516 197.876 66.833 197.746 67.5045L195.69 77.0453ZM219.433 72.372C219.614 71.5556 219.709 70.7225 219.715 69.8863C219.715 67.0522 217.897 65.6452 215.151 65.6452C211.495 65.6452 208.813 68.9754 208.813 72.4372C208.813 75.7486 210.974 77.3072 214.176 77.3072C215.365 77.3072 216.599 77.0215 217.722 76.6795L218.092 74.3842C217.01 74.8841 215.863 75.1885 214.675 75.1885C212.683 75.1885 211.579 74.4293 211.579 72.3733H219.433V72.372ZM211.97 70.3812C212.533 68.8451 213.313 67.7651 215.107 67.7651C216.319 67.7651 216.945 68.4342 216.945 69.6257C216.945 69.885 216.925 70.1218 216.881 70.3812H211.97ZM146.842 75.0557C145.435 75.0557 144.938 73.8655 144.938 72.4372C144.938 70.4914 146.042 67.8954 148.009 67.8954C149.349 67.8954 150.042 68.9115 150.042 70.2747C150.043 72.0275 149.265 75.0557 146.842 75.0557ZM140.957 77.0453L144.158 61.958H147.098L145.933 67.0084C146.713 66.2529 147.709 65.6452 148.985 65.6452C151.755 65.6452 153.074 67.5271 153.074 70.1657C153.074 73.65 151.148 77.3059 147.277 77.3059C145.698 77.3059 144.982 77.0203 144.073 75.4642L143.684 77.0441H140.957V77.0453Z" fill="#C4C4C4"/>
</svg>
