<svg width="144" height="71" viewBox="0 0 144 71" fill="none" xmlns="http://www.w3.org/2000/svg">
<path d="M0 18.3177V0.570068H10.8277V4.83601H5.04749V7.52258H10.2904V11.5931H5.04749V18.3177H0Z" fill="#C4C4C4"/>
<path d="M21.8997 12.179C21.8997 10.2089 20.8902 8.82486 19.1155 8.82486C17.2919 8.82486 16.3475 10.2089 16.3475 12.179C16.3475 14.2306 17.2919 15.582 19.1155 15.582C20.8902 15.582 21.8997 14.2306 21.8997 12.179ZM11.6582 12.179C11.6582 8.72717 13.9703 5.63354 19.1155 5.63354C24.2606 5.63354 26.5402 8.72717 26.5402 12.179C26.5402 15.6634 24.2606 18.757 19.1155 18.757C13.9703 18.757 11.6582 15.6634 11.6582 12.179Z" fill="#C4C4C4"/>
<path d="M28.7715 6.08954H33.0863V7.70148C33.2328 7.52238 33.3631 7.34327 33.4608 7.19673C34.5517 6.0407 35.8705 5.81274 36.6358 5.81274C36.9614 5.81274 37.6453 5.86159 37.7756 5.91044V9.80189C37.3685 9.62278 37.0429 9.62278 36.6358 9.62278C33.3142 9.62278 33.2654 12.7164 33.2654 13.1235V18.3175H28.7715V6.08954Z" fill="#C4C4C4"/>
<path d="M48.1149 10.795C48.0172 9.49243 47.2031 8.28755 45.5586 8.28755C44.0606 8.28755 43.1488 9.44359 43.0511 10.795H48.1149ZM52.332 14.5888C50.8829 18.757 46.6983 18.757 45.6563 18.757C41.7811 18.757 38.7363 16.4775 38.7363 12.179C38.7363 8.32011 41.3252 5.63354 45.5586 5.63354C51.5179 5.63354 52.5274 10.4368 52.4297 13.1559H42.9697C42.9209 14.7353 43.8327 16.1193 45.6563 16.1193C46.8774 16.1193 47.7892 15.582 48.0172 14.5888H52.332Z" fill="#C4C4C4"/>
<path d="M58.4865 11.7721L53.9274 6.0896H59.4471L61.401 9.36233L63.4362 6.0896H68.6791L64.0387 11.8209L68.8582 18.3176H63.6642L61.1242 14.3284L58.4865 18.3176H53.0156L58.4865 11.7721Z" fill="#C4C4C4"/>
<path d="M84.3264 4.55902C82.4214 2.71913 80.4187 2.54003 79.4255 2.54003C75.4526 2.54003 72.8637 5.45455 72.8637 9.39484C72.8637 13.2537 75.5503 16.1194 79.4255 16.1194C80.2884 16.1194 82.2911 15.9403 84.3264 14.0516V17.3243C83.7891 17.6825 82.0632 18.6757 79.3278 18.6757C77.781 18.6757 75.2247 18.3664 72.8637 16.2008C71.089 14.5075 69.9492 12.3582 69.9492 9.39484C69.9492 7.06649 70.6819 4.42877 72.8637 2.36092C74.7688 0.569878 76.9669 0 79.458 0C81.8352 0 83.2355 0.569878 84.3264 1.33514V4.55902Z" fill="#C4C4C4"/>
<path d="M96.4887 6.12207V13.1234C96.4887 13.8724 96.4887 14.6865 97.026 15.3541C97.4005 15.8426 98.0355 16.1682 98.9473 16.1682C99.8103 16.1682 100.445 15.8426 100.852 15.3541C101.357 14.6865 101.357 13.8724 101.357 13.1234V6.12207H104.223V13.2048C104.223 14.6377 104.125 15.9403 102.904 17.194C101.618 18.5454 99.7614 18.7245 98.8985 18.7245C98.1169 18.7245 96.2608 18.5454 94.9419 17.194C93.7045 15.9403 93.623 14.6377 93.623 13.2048V6.12207H96.4887Z" fill="#C4C4C4"/>
<path d="M87.2891 18.3177H90.1547V0.570068H87.2891V18.3177Z" fill="#C4C4C4"/>
<path d="M113.91 16.1684C111.679 16.1684 110.409 14.4588 110.409 12.3096C110.409 9.57414 112.135 8.32041 113.91 8.32041C116.01 8.32041 117.378 10.0789 117.378 12.2607C117.378 14.3774 116.092 16.1684 113.91 16.1684ZM114.317 5.7641C113.373 5.7641 111.777 5.99205 110.588 7.55514V0.570068H107.723V18.3177H110.588V17.064C111.093 17.6501 112.184 18.7248 114.317 18.7248C117.411 18.7248 120.325 16.2987 120.325 12.2281C120.325 8.95541 118.192 5.7641 114.317 5.7641Z" fill="#C4C4C4"/>
<path d="M94.9578 38.3284L72.3418 60.342V70.8114L98.0351 45.7205H126.708L144 28.8196V18.3501L123.549 38.3284H94.9578ZM144 0.797852L118.307 25.905H89.6335L72.3418 42.7897V53.3569L92.7923 33.3786H121.465L144 11.365V0.797852Z" fill="#C4C4C4"/>
</svg>
