<svg width="128" height="48" viewBox="0 0 128 48" fill="none" xmlns="http://www.w3.org/2000/svg">
<path d="M41.2347 22.226C41.2347 22.226 43.4267 16.444 46.6897 13.511C49.7397 10.577 50.1997 11.444 48.5497 14.091C47.0197 16.609 43.5497 21.485 41.2297 22.226H41.2347ZM3.4747 22.31C6.2407 22.31 7.7697 19.92 8.8027 18.72C9.3827 18.1 11.2407 15.71 12.1097 14.92C12.9697 14.18 13.9197 14.59 13.0997 15.71C12.4797 16.95 10.7397 20.337 6.3597 24.097C-0.369301 29.539 0.170699 31.029 0.000699102 32.556C0.000699102 33.054 -0.122301 35.531 2.8947 35.531C6.7367 35.531 9.3817 30.535 11.1587 27.848C11.2407 27.388 18.2637 14.418 18.8407 13.67C19.3807 12.888 23.2227 7.268 23.2227 6.77C23.2227 6.4 23.4697 5.408 21.7347 5.408C19.8347 5.408 18.5517 6.938 16.7347 8.258C14.8347 9.418 13.3887 10.324 9.6707 12.185C3.6377 15.199 0.746699 17.309 0.746699 19.912C0.746699 22.556 3.4737 22.307 3.4737 22.307L3.4747 22.31ZM15.9907 20.25C16.8607 22.23 15.7427 25 15.1237 26.12C14.4637 26.99 12.9767 29.76 12.9767 33.72C12.9767 37.94 15.1237 39.34 18.2637 39.34C21.7337 39.34 21.5287 37.19 21.5287 37.19C19.1737 37.027 19.2557 32.65 20.6587 28.68C22.4387 23.1 20.8267 19.63 20.8267 19.63C26.8987 17.19 38.7167 8.18 38.7167 3.1C38.7167 1.16 37.2687 0 36.1127 0C34.6667 0 33.3457 0.54 31.4047 3.226C21.2807 17.189 17.3967 17.559 17.3967 17.559L15.9907 20.246V20.25ZM23.3467 29.34C21.2797 29.76 20.6587 30.17 20.6587 31.78C20.8267 33.72 24.3367 32.4 24.3367 32.4C24.3367 33.31 25.4947 34.63 28.3437 34.63C32.2287 34.63 36.1937 31.326 36.1937 31.326C36.1937 32.402 38.3837 34.634 40.8237 34.634C44.8707 34.634 49.1267 31.328 49.1267 31.328C49.1267 33.314 51.0687 35.296 53.0947 35.296C58.8377 35.296 58.2177 29.346 58.2177 29.346C53.6307 30.796 54.4577 26.994 54.4577 26.994C62.8447 20.094 69.2897 9.974 69.2897 5.717C69.2897 3.9 67.7997 2.247 65.3597 3.652C51.5997 11.332 49.1197 26.122 49.1197 26.122C47.5497 27.859 45.0297 29.14 43.2497 29.14C41.5157 29.14 41.5157 27.28 41.5157 27.28C49.1207 21.329 54.7407 11.702 54.7407 8.479C54.7407 6.539 53.1307 5.422 50.7757 6.539C38.7917 11.331 35.8177 26.989 35.8177 26.989C30.3227 31.783 29.1237 29.759 29.1237 29.759C33.2537 27.651 35.5267 23.559 35.5267 20.461C35.5267 18.561 34.2027 17.111 32.3467 17.443C23.7517 19.423 23.3387 29.341 23.3387 29.341L23.3467 29.34ZM54.9107 21.32C54.9107 21.32 57.3487 15.08 60.6957 11.7C63.5057 8.683 64.1237 9.674 62.5137 12.32C60.9837 14.922 57.0597 20.623 54.9107 21.327V21.32ZM28.0147 26.98C28.0147 26.98 28.3447 24.09 29.4187 22.98C31.4047 20.623 32.2287 21.16 30.9087 23.763C30.4927 24.549 30.1217 25.623 28.0147 26.986V26.98ZM69.3727 18.55C62.8447 19.42 59.0857 26.118 59.0857 30.168C59.0857 33.184 60.8197 35.29 64.2497 35.29C72.1397 35.29 74.8997 22.647 74.8997 22.647C75.9727 23.225 79.2397 23.225 79.2397 23.225C77.0497 25.005 75.0697 27.853 75.0697 29.962C75.0697 32.192 76.5537 33.555 78.5397 33.555C80.6437 33.555 82.9597 31.94 82.9597 31.94C82.6297 33.057 81.6347 34.17 81.6347 34.17C69.7767 37.02 68.2897 43.095 68.2897 44.17C68.2897 45.617 69.7777 46.773 71.7197 46.773C78.2067 46.773 85.1897 36.443 85.1897 36.443C90.0657 35.287 91.8847 30.537 91.8847 30.453C91.8847 29.753 91.2207 29.338 90.3947 30.163C88.5347 31.653 87.8747 31.653 87.8747 31.653C91.5097 27.269 93.9067 21.775 93.9067 20.906C93.9067 20.082 93.6167 18.966 92.2107 18.966C90.0207 18.966 88.0807 22.561 86.9657 24.379C85.4777 26.772 83.8257 29.004 82.6277 29.004C81.6337 29.004 81.4677 29.004 81.4677 27.559C81.4677 25.535 85.8077 22.309 87.4577 21.485C89.2377 20.615 89.2377 20.327 89.2377 19.748C89.2377 18.548 88.6977 18.301 87.4577 18.301C86.3857 18.301 84.3177 19.211 84.3177 19.211C78.3307 22.105 73.9937 19.421 73.9937 19.421C72.4637 19.751 71.3897 21.197 71.3897 21.197C71.2627 26.111 67.4197 29.54 66.5527 29.417C65.8507 29.334 65.3557 29.749 65.3557 27.847C65.3557 23.963 69.9807 21.487 70.3557 21.197C70.8897 20.904 71.2627 21.487 71.3857 20.08C71.3857 18.43 69.3627 18.55 69.3627 18.55H69.3727ZM78.4197 38.55C78.4197 38.55 77.8397 40.78 74.8997 42.48C73.5357 43.182 72.8737 42.232 73.9057 41.322C74.5677 40.538 76.7577 38.555 78.4097 38.555L78.4197 38.55ZM103.04 35.45C104.44 35.08 110.64 30.45 110.64 30.45C110.555 32.19 110.27 36.2 115.14 36.2C123.114 36.2 124.89 26.655 124.27 24.094C124.023 21.947 124.89 20.911 126.255 20.911C127.742 20.911 127.99 20.087 127.99 18.721C127.99 17.191 125.92 16.119 123.776 17.111C118.986 19.093 106.256 29.546 106.256 29.546C109.686 24.676 110.06 23.766 110.06 22.982C110.06 22.112 109.813 21.162 108.533 21.162C106.176 21.162 105.473 22.32 104.318 24.222C102.955 26.658 101.262 28.437 100.312 28.437C99.1547 28.437 99.0717 28.437 99.0717 26.987C99.2767 24.097 103.492 22.114 106.054 21.164C107.954 20.464 107.747 20.094 107.747 19.349C107.747 18.316 107.167 18.109 105.927 18.231C102.292 18.317 92.7067 23.397 92.4167 29.761C92.4167 31.951 93.9867 33.396 96.0117 33.396C98.2017 33.396 100.31 31.786 100.31 31.786C100.143 32.776 99.0697 34.099 99.0697 34.099C87.9547 36.662 86.8797 42.322 86.8797 44.099C86.9637 46.206 87.6657 47.032 89.6917 47.032C96.8377 47.032 102.952 35.545 102.952 35.545L103.036 35.463L103.04 35.45ZM96.8397 38.18C96.8397 38.18 95.0597 41.03 92.8297 42.48C91.5067 43.307 90.6797 42.315 91.8797 41.322C92.4997 40.538 95.0597 38.182 96.8357 38.182L96.8397 38.18ZM113.984 28.1L120.016 23.22C120.016 23.22 120.139 27.93 118.032 29.75C117.124 30.62 116.215 31.03 116.172 30.29C116.009 29.547 116.009 28.1 113.982 28.1H113.984ZM116.01 10.33C113.653 10.33 112.54 12.32 112.62 13.31C112.826 14.386 112.826 14.92 113.488 15.334C114.231 15.708 114.231 17.111 113.653 17.318C113.486 17.444 113.283 18.103 113.363 18.311C113.363 18.971 113.486 19.094 114.519 18.971C116.169 18.971 119.145 15.461 119.145 13.228C119.145 10.334 116.005 10.334 116.005 10.334L116.01 10.33Z" fill="#C4C4C4"/>
</svg>
