<svg width="132" height="84" viewBox="0 0 132 84" fill="none" xmlns="http://www.w3.org/2000/svg">
<path fill-rule="evenodd" clip-rule="evenodd" d="M115.048 20.7199H132L130.334 29.7756H123.451L121.856 38.3241H128.015L126.494 46.8732H120.335L113.742 83.8942H103.674L115.048 20.7199ZM111.425 20.7199H101.138L94.9064 53.9732C94.4725 56.2197 94.1098 57.6675 93.8206 58.3194C93.4579 58.8993 93.0226 59.1886 92.3706 59.1886C91.7921 59.1886 91.4294 58.8993 91.3561 58.3921C91.2841 57.8121 91.4294 56.5802 91.7914 54.5517L98.166 20.7192H87.8057L82.8062 47.4518C81.865 52.5233 81.285 55.8563 81.1404 57.4494C81.0684 59.044 81.285 60.5651 81.9384 62.0136C82.5169 63.4635 83.6761 64.6221 85.342 65.492C87.0092 66.4332 88.965 66.8685 91.3554 66.8685C93.5285 66.8685 95.4123 66.5059 97.1515 65.7093C98.8906 64.9847 100.339 63.8255 101.571 62.3756C102.803 60.9271 103.673 59.4779 104.107 58.1007C104.614 56.7255 105.121 54.3344 105.773 50.8561L111.425 20.7199ZM69.333 49.7723C69.7669 44.6282 70.4189 38.3975 71.3615 30.8629C68.6811 39.484 66.8692 45.714 65.9273 49.7723H69.333ZM79.8372 20.7199L76.6496 65.9266H67.1592L68.1738 57.7408H64.5515L62.3777 65.9266H52.0908L66.58 20.7199H79.8372ZM58.3935 20.7199H49.6997L45.932 41.0778L43.9036 20.7199H35.2825L26.806 65.9266H35.4998L39.3394 45.3528L40.8605 65.9266H49.9163L58.3935 20.7199ZM30.6463 21.0826L22.0971 41.5125L24.1983 65.9266H14.7072L12.9687 49.7723L9.92639 65.9266H0L10.3603 0H20.2853L15.2138 36.079L21.5172 21.0826H30.6463Z" fill="#C4C4C4"/>
</svg>
