<svg width="135" height="84" viewBox="0 0 135 84" fill="none" xmlns="http://www.w3.org/2000/svg">
<path fill-rule="evenodd" clip-rule="evenodd" d="M0 83.0165H15.2117V78.9417H5.97614V67.9066H0V83.0165ZM27.0954 77.2778C27.0954 82.0655 29.9817 83.5252 36.0928 83.5252C42.2385 83.5252 45.1248 82.0655 45.1248 77.2778V67.9066H39.1826V77.0404C39.1826 78.9757 38.062 79.5869 36.0928 79.5869C34.1575 79.5869 33.0369 78.9749 33.0369 77.0404V67.9066H27.0954V77.2778ZM70.9632 83.0165H76.9047V67.9066H70.9632V73.1691H64.2403V67.9066H58.298V83.0165H64.2403V76.9733H70.9632V83.0165ZM94.3569 83.0165H100.332V71.7093H105.833V67.9066H88.8563V71.7093H94.3569V83.0165ZM126.713 77.5837H123.116L124.915 72.4901H124.949L126.713 77.5837ZM114.83 83.0165H121.181L121.825 81.2847H128.039L128.685 83.0165H135L128.582 67.9073H121.283L114.83 83.0165ZM40.405 25.9748C40.405 11.6463 52.0513 0 66.4137 0C80.7753 0 92.3884 11.6463 92.3884 25.9748C92.3884 40.3371 80.7753 51.9827 66.4137 51.9827C52.0506 51.9827 40.405 40.3371 40.405 25.9748Z" fill="#C4C4C4"/>
<path fill-rule="evenodd" clip-rule="evenodd" d="M60.6746 18.845C61.2858 17.1471 63.0854 14.5667 65.3598 14.7709L60.4026 29.6759H77.0401C76.8034 30.8305 74.8327 32.5962 71.3706 32.5962H55.7852L60.6746 18.845Z" fill="white"/>
</svg>
