<svg width="102" height="77" viewBox="0 0 102 77" fill="none" xmlns="http://www.w3.org/2000/svg">
<path d="M11.4834 64.9261C11.2048 63.9086 10.652 61.9368 7.74581 61.9368C6.05674 61.9368 3.50381 63.145 3.50381 67.8996C3.50381 70.9188 4.77983 73.7166 7.74581 73.7166C9.69764 73.7166 11.0668 72.5383 11.4834 70.4733H14.9916C14.2964 74.1419 11.9043 76.6919 7.68166 76.6919C3.20501 76.6919 0 73.6481 0 67.8513C0 61.957 3.39043 58.9676 7.72559 58.9676C12.7656 58.9676 14.8 62.4455 14.9916 64.9261H11.4834Z" fill="#C4C4C4"/>
<path d="M19.2853 68.504L23.4095 63.7687H27.4265L23.0422 68.5919L27.5443 76.2524H23.6195L20.6448 70.8906L19.2853 72.3097V76.2524H16.0117V63.7687H19.2853V68.504Z" fill="#C4C4C4"/>
<path d="M39.5202 69.9861C39.5202 74.4859 36.5015 76.5798 33.1594 76.5798C29.8226 76.5798 26.7793 74.5167 26.7793 70.0151C26.7793 65.51 29.8226 63.4442 33.1594 63.4442C36.5015 63.4442 39.5202 65.4854 39.5202 69.9861ZM30.1451 69.9861C30.1451 71.5853 30.6302 73.811 33.1594 73.811C35.6895 73.811 36.1535 71.6099 36.1535 70.0151C36.1535 68.4106 35.6895 66.2086 33.1594 66.2086C30.6302 66.2086 30.1451 68.386 30.1451 69.9861Z" fill="#C4C4C4"/>
<path d="M51.8218 63.7675V76.2521H48.5483V66.3948H45.0453V70.2444C45.0453 75.0193 43.6076 76.5254 41.3078 76.5254C40.7357 76.5254 39.8006 76.4331 39.3164 76.2521V73.8111C39.3841 73.8594 39.8006 73.9042 40.2848 73.9042C41.2682 73.9042 41.7771 73.4192 41.7771 69.6179V63.7675H51.8218Z" fill="#C4C4C4"/>
<path d="M56.7658 68.504L60.89 63.7687H64.907L60.5182 68.5919L65.0248 76.2524H61.1L58.1305 70.8906L56.7658 72.3097V76.2524H53.4922V63.7687H56.7658V68.504Z" fill="#C4C4C4"/>
<path d="M77.0013 69.9861C77.0013 74.4859 73.9879 76.5798 70.6458 76.5798C67.3037 76.5798 64.2656 74.5167 64.2656 70.0151C64.2656 65.51 67.3037 63.4442 70.6458 63.4442C73.9879 63.4442 77.0013 65.4854 77.0013 69.9861ZM67.6323 69.9861C67.6323 71.5853 68.1166 73.811 70.6458 73.811C73.1644 73.811 73.6452 71.6099 73.6452 70.0151C73.6452 68.4106 73.1644 66.2086 70.6458 66.2086C68.1166 66.2086 67.6323 68.386 67.6323 69.9861Z" fill="#C4C4C4"/>
<path d="M78.0625 63.7687H83.6992C86.4876 63.7687 88.5273 64.9092 88.5273 66.9935C88.5273 68.4311 87.5053 69.3554 86.2029 69.6832C87.4798 69.9881 88.8982 70.8036 88.8982 72.8448C88.8982 75.1575 87.1476 76.2542 84.3196 76.2542H78.0625V63.7687ZM81.3299 68.823H83.4637C84.5499 68.823 85.3188 68.388 85.3188 67.4091C85.3188 66.3907 84.5788 66.0199 83.4882 66.0199H81.3299V68.823ZM81.3299 74.0038H83.737C84.9462 74.0038 85.6949 73.6321 85.6949 72.3984C85.6949 71.3079 84.9067 70.8036 83.6992 70.8036H81.3299V74.0038Z" fill="#C4C4C4"/>
<path d="M102.001 69.9861C102.001 74.4859 98.9917 76.5798 95.6452 76.5798C92.3075 76.5798 89.2598 74.5167 89.2598 70.0151C89.2598 65.51 92.3075 63.4442 95.6452 63.4442C98.9917 63.4442 102.001 65.4854 102.001 69.9861ZM92.6265 69.9861C92.6265 71.5853 93.1195 73.811 95.6452 73.811C98.1744 73.811 98.6349 71.6099 98.6349 70.0151C98.6349 68.4106 98.1744 66.2086 95.6452 66.2086C93.1195 66.2086 92.6265 68.386 92.6265 69.9861Z" fill="#C4C4C4"/>
<path d="M23.7946 56.1455C26.584 56.1455 33.4527 55.6569 38.5859 51.9093V54.7519H48.9426L48.9532 42.2524L53.2778 37.7763L62.6916 54.7519H75.1179L60.8566 30.4962L74.747 15.2086H62.0263L48.9532 30.208V1.39365H38.5859V5.95234C35.4292 2.56319 30.3119 3.43323e-05 22.3323 3.43323e-05C5.06021 3.43323e-05 1.8174 10.5067 1.8174 16.3878C1.8174 24.4692 6.16221 28.9603 13.7305 30.795L24.4608 33.4364C30.1203 34.8353 34.1672 35.8624 34.1672 40.0512C34.1672 45.638 28.2818 46.9587 22.9879 46.9587C13.285 46.9587 11.6706 41.3025 11.6706 38.2903H1.00977C1.00977 44.9034 4.39056 56.1455 23.7946 56.1455ZM30.855 24.3278L17.8504 21.1618C15.6393 20.6486 12.1838 19.7629 12.1838 15.5803C12.1838 10.801 17.2581 9.18244 21.5203 9.18244C31.2223 9.18244 32.1082 14.8465 32.3964 17.2682H38.5859V27.2143C36.315 25.8883 33.6347 25.0272 30.855 24.3278Z" fill="#C4C4C4"/>
</svg>
