<svg width="233" height="45" viewBox="0 0 233 45" fill="none" xmlns="http://www.w3.org/2000/svg">
<path d="M62.8763 43.1434C58.5332 42.5401 54.8563 40.01 53.2378 36.511C52.265 34.408 52.2314 33.8559 52.2887 20.9436L52.3416 9.01005L52.9285 7.77133C53.9883 5.53445 56.0426 4.07119 58.3276 3.92569L59.4953 3.85135L59.5461 18.8019L59.5969 33.7525L60.0919 34.5896C60.7711 35.7384 61.448 36.3376 62.7594 36.951C65.059 38.0267 68.0174 37.4803 69.6442 35.6796C71.0105 34.1672 70.9345 34.9676 71.0379 21.0092L71.1309 8.45195L71.769 7.2751C72.8296 5.31887 74.5608 4.1303 76.6216 3.94343L77.7351 3.84246V18.7706C77.7351 31.748 77.6968 33.8464 77.4424 34.8285C76.4524 38.649 73.1968 41.6758 68.8937 42.7763C67.2488 43.197 64.4789 43.366 62.8762 43.1434H62.8763ZM130.104 43.1334C124.594 42.3929 120.129 38.9004 117.452 33.2378C114.547 27.0922 114.592 18.9329 117.562 12.9599C120.131 7.79612 124.033 4.62454 129.071 3.60528C130.297 3.35735 131.219 3.30908 133.257 3.38621C136.149 3.49568 138.177 3.96782 140.251 5.01473L141.359 5.57382V9.03279V12.4918L140.258 11.4726C138.463 9.81107 136.608 9.10915 134.003 9.1053C128.679 9.09747 124.566 12.8977 123.005 19.2674C122.573 21.027 122.57 24.9348 122.999 26.656C124.322 31.9673 127.63 35.827 131.787 36.9098C134.666 37.6596 138.515 36.8033 140.422 34.9885C140.868 34.5645 141.261 34.2176 141.296 34.2176C141.33 34.2176 141.358 35.7209 141.358 37.5583V40.8991L140.52 41.3902C138.01 42.8614 133.587 43.6015 130.103 43.1334H130.104ZM168.456 43.1226C162.762 42.391 158.903 38.6668 157.627 32.6716C157.022 29.8243 157.106 26.0606 157.842 23.1486C157.997 22.5347 158.503 21.2465 158.966 20.286C160.447 17.217 163.084 15.0576 166.373 14.2218C168.001 13.8079 171.271 13.85 173.061 14.3079C178.18 15.617 181.101 20.0513 181.225 26.6999L181.263 28.716L172.965 29.8666C168.401 30.4994 164.542 31.0466 164.389 31.0826C164.147 31.1394 164.141 31.2985 164.345 32.2875C164.859 34.7809 166.198 36.6427 168.118 37.532C168.994 37.9376 169.503 38.0314 171.155 38.0918C174.242 38.2047 176.57 37.6345 179.155 36.1326C179.735 35.7955 180.26 35.5198 180.322 35.5198C180.384 35.5198 180.412 36.7964 180.384 38.3568L180.332 41.1938L179.445 41.6179C178.117 42.2522 175.367 42.9221 173.197 43.1399C171.02 43.3583 170.269 43.3556 168.456 43.1226L168.456 43.1226ZM169.667 25.4633C172.663 25.0482 175.151 24.671 175.197 24.6252C175.33 24.4926 174.871 22.234 174.56 21.491C174.148 20.5033 173.016 19.3373 172.055 18.91C171.447 18.6395 170.782 18.5316 169.636 18.5174C168.229 18.4999 167.931 18.5594 166.938 19.0558C165.06 19.9947 164.068 21.8202 163.765 24.8911C163.653 26.0296 163.676 26.2181 163.927 26.2181C164.088 26.2181 166.671 25.8785 169.667 25.4633ZM194.132 43.1475C189.709 42.5961 186.368 40.4037 184.739 36.9843C183.694 34.7914 183.389 33.421 183.274 30.4039C182.986 22.8795 185.818 17.7132 191.357 15.6601C192.365 15.2862 193.066 15.1776 194.936 15.1057C196.215 15.0564 197.695 15.0962 198.224 15.1942L199.186 15.3722L199.247 12.0051C199.317 8.12024 199.476 7.57008 200.992 5.94887C202.078 4.78786 203.485 4.07943 204.971 3.94463L206.098 3.84246V23.2158C206.098 33.8711 206.035 42.5892 205.959 42.5894C205.882 42.5896 204.647 42.7098 203.215 42.8565C199.739 43.2125 195.693 43.3421 194.132 43.1475H194.132ZM199.075 38.3729C199.152 38.3264 199.215 34.0673 199.215 28.9082V19.528L198.703 19.3929C198.422 19.3185 197.564 19.2605 196.796 19.2639C195.675 19.269 195.173 19.3729 194.236 19.794C191.631 20.9654 190.363 23.5988 190.156 28.2645C189.894 34.1725 191.595 37.7914 194.963 38.4915C195.72 38.6487 198.765 38.5609 199.075 38.3729ZM227.12 43.1267C223.931 42.6446 221.835 40.6758 221.363 37.721C221.246 36.9923 221.167 33.0506 221.167 28.0078V19.5209H219.679H218.19V16.7304V13.9399H219.679H221.167V12.105C221.167 8.88123 221.685 7.26502 223.205 5.74852C224.284 4.67192 225.597 4.05744 227.073 3.93758L228.236 3.8432V8.89156V13.9399H230.468H232.701V16.7304V19.5209H230.468H228.236V27.6226C228.236 36.4955 228.257 36.6739 229.309 36.9499C229.999 37.1308 231.159 37.1322 232.003 36.9531L232.701 36.8051V39.6898V42.5746L231.728 42.8635C230.437 43.2469 228.607 43.3514 227.12 43.1266V43.1267ZM80.943 29.3368L80.9908 15.8984L82.479 15.4005C85.5111 14.386 87.8959 14.0397 91.8737 14.0362C94.756 14.0336 95.7419 14.0995 96.6721 14.3567C99.9659 15.2676 102.052 17.1022 102.966 19.893C103.271 20.822 103.307 21.924 103.364 31.8679L103.427 42.8197L102.255 42.737C100.044 42.581 98.0858 41.2129 97.043 39.0957L96.4315 37.8544L96.3385 29.5713L96.2455 21.2882L95.7781 20.4534C95.4704 19.904 95.0253 19.4588 94.4759 19.1512C93.7191 18.7275 93.441 18.6838 91.5017 18.6838C90.1979 18.6838 89.0898 18.7802 88.6647 18.9307L87.967 19.1777V30.9764V42.7751H84.4312H80.8953L80.943 29.3368ZM105.826 28.3792V13.9399H109.272H112.717L112.667 26.0786L112.616 38.2173L112.159 39.1474C111.166 41.1693 109.097 42.6082 106.989 42.7437L105.826 42.8184L105.826 28.3792ZM143.405 29.4775V16.1799L144.192 15.7784C145.424 15.1499 147.446 14.5113 149.15 14.213C150.724 13.9372 155.349 13.8426 156.66 14.0593L157.357 14.1746V16.9408C157.357 18.4622 157.326 19.707 157.287 19.707C157.248 19.707 156.735 19.4867 156.147 19.2174C155.278 18.8197 154.811 18.7299 153.66 18.7388C152.88 18.7451 151.865 18.8641 151.404 19.0039L150.567 19.258L150.474 28.556L150.381 37.8539L149.771 39.0932C148.686 41.295 146.499 42.7751 144.328 42.7751H143.405V29.4775ZM209.261 28.3575V13.9399H212.708H216.154L216.103 25.8926L216.051 37.8452L215.51 39.0156C214.526 41.1485 212.181 42.7751 210.091 42.7751H209.261L209.261 28.3575ZM108.201 10.5921C105.817 9.87447 104.797 7.40904 106.112 5.54278C106.943 4.36351 108.044 3.84992 109.57 3.93108C110.554 3.98345 110.955 4.1028 111.563 4.52425C112.443 5.1343 113.081 6.3041 113.081 7.30745C113.081 9.62148 110.576 11.3074 108.201 10.5921ZM211.237 10.5141C208.367 9.45085 208.094 5.82362 210.774 4.36377C212.511 3.41763 214.739 3.92127 215.842 5.50959C216.61 6.61477 216.611 8.06082 215.845 9.14535C214.88 10.5106 212.853 11.1128 211.237 10.5141H211.237Z" fill="#C4C4C4"/>
<path d="M17.8318 44.6113C15.0497 44.0296 12.0004 42.7235 9.78547 41.1646C9.29922 40.8224 8.85513 40.5424 8.79859 40.5424C8.74205 40.5424 8.2027 40.8773 7.60001 41.2866C6.99733 41.6959 6.33512 42.0307 6.12843 42.0307C5.65495 42.0307 4.63978 41.1443 4.17847 40.3281C3.98487 39.9855 3.93883 39.8099 4.07615 39.9378C4.74652 40.5622 5.44549 40.1602 11.2277 35.8245C19.6442 29.5136 28.9131 21.6849 38.5745 12.7268C42.1069 9.45154 42.4812 8.98565 42.4812 7.86414V7.04472L42.9881 7.6552C44.0446 8.92785 44.0993 10.1625 43.1552 11.4287L42.6259 12.1387L43.2681 13.5286C44.0952 15.3188 44.7398 17.8788 45.0077 20.4368C45.6842 26.898 43.2607 33.6686 38.5745 38.4099C35.3326 41.6899 31.0327 43.9619 26.6059 44.7339C24.3108 45.1341 20.0475 45.0746 17.8318 44.6113ZM4.77784 36.502C4.18358 35.8132 2.97483 33.8889 2.32405 32.5956C0.93303 29.8313 0.188085 26.9175 0.0276362 23.6134C-0.497622 12.7965 6.5111 3.33631 17.074 0.604757C19.5639 -0.0391296 23.5248 -0.190683 26.1948 0.255766C29.731 0.84706 32.9025 2.15924 35.784 4.22316L37.2723 5.28914L31.8773 5.40491C25.2621 5.54686 20.9188 5.94143 19.8858 6.4943C19.3868 6.76134 19.2382 7.37345 19.556 7.8522C19.7032 8.07384 20.6521 8.76095 21.6647 9.37911C23.029 10.2119 23.5217 10.6146 23.5672 10.9336C23.612 11.248 23.0651 12.1007 21.5406 14.0937C17.258 19.692 15.1519 22.5818 10.3994 29.3804C7.71719 33.2174 5.41941 36.4639 5.29319 36.595C5.1073 36.7881 5.00938 36.7704 4.77784 36.502Z" fill="#C4C4C4"/>
</svg>
