<svg width="232" height="34" viewBox="0 0 232 34" fill="none" xmlns="http://www.w3.org/2000/svg">
<path d="M27.017 4.403H4.806L6.409 0H28.62L27.017 4.403ZM26.215 6.605H4.003L2.4 11.008H24.612L26.215 6.605ZM23.815 13.21H1.603L0 17.613H22.212L23.815 13.21Z" fill="#C4C4C4"/>
<path d="M79.9369 28.5891H83.9129C85.4209 28.5891 86.3359 28.2231 86.9759 27.4011C87.2959 26.9901 87.7529 26.2581 87.7529 24.8871C87.7529 23.5161 87.2959 22.5561 86.3819 21.8701C85.8339 21.4581 85.1019 21.2301 83.8679 21.2301H79.9369V28.5891ZM74.6809 33.0221V6.60505H91.8669L90.3589 11.0391H79.9369V16.8891H84.1869C87.6149 16.8891 89.3969 17.7121 90.6309 18.7631C91.5909 19.5861 93.2359 21.414 93.2359 25.025C93.2359 28.59 91.5449 30.5551 90.1279 31.5611C88.4829 32.7041 86.7459 33.0231 83.2269 33.0231H74.6809V33.0221ZM59.4609 33.0221V11.0391H51.8289V6.60505H73.0359L71.5279 11.0391H64.7629V33.0231H59.4609V33.0221ZM38.2999 17.163H41.2709C42.1849 17.163 42.6419 17.1631 43.0989 17.0261C44.3329 16.6601 45.1099 15.5641 45.1099 14.0551C45.1099 12.2721 44.2869 11.4951 43.0989 11.1301C42.5959 10.9931 42.0939 10.9471 41.0879 10.9471H38.2999V17.163ZM38.3449 21.733V28.6801H42.0019C43.0989 28.6801 44.1039 28.5891 44.8349 27.9031C45.5659 27.2171 45.8859 26.349 45.8859 25.206C45.8859 24.338 45.6569 23.515 45.1999 22.921C44.4229 21.961 43.4629 21.733 41.8179 21.733H38.3449ZM46.8009 18.9451V19.0371C47.8069 19.4021 48.7659 20.0421 49.2689 20.4541C50.8229 21.734 51.5089 23.4251 51.5089 25.6191C51.5089 29.2291 49.5899 31.8351 46.4359 32.6581C45.4769 32.9321 44.4709 33.0231 42.5969 33.0231H33.0449V6.60505H41.5009C43.2379 6.60505 44.4259 6.69605 45.4779 6.97105C48.5399 7.79405 50.5509 9.89605 50.5509 13.233C50.5509 15.015 49.9109 16.5241 48.8599 17.5291C48.3999 17.9861 47.7609 18.5341 46.8009 18.9451ZM105.683 6.60205H110.514V17.8121H110.628L118.064 6.60205H123.688L114.78 18.907L124.405 33.0231H118.554L110.628 20.6061H110.514V33.0231H105.683V6.60205ZM124.955 27.663C124.955 22.2281 129.258 20.907 135.184 20.907H136.128V20.2281C136.128 18.3031 135.184 16.4921 132.505 16.4921C130.165 16.4921 127.9 17.6621 126.994 18.4171V14.6051C128.315 14.0011 130.089 13.17 133.071 13.17C139.11 13.17 140.506 16.1141 140.506 21.0211V33.0231H136.279V30.3811H136.204C135.26 31.9281 133.713 33.3251 130.768 33.3251C127.521 33.3251 124.955 31.2111 124.955 27.663ZM136.127 25.1721V23.927H135.712C131.711 23.927 129.333 24.5311 129.333 27.3611C129.333 29.1351 130.503 30.1541 132.315 30.1541C134.466 30.1541 136.127 28.3801 136.127 25.1721ZM159.724 13.4721V33.0231H155.044V17.0201H149.043V33.0231H144.363V13.4721H159.724ZM168.315 13.4721V23.1721L168.202 26.6451H168.278L174.694 13.4731H179.563V33.024H174.883V23.475L174.996 19.852H174.883L168.278 33.024H163.635V13.4721H168.315ZM196.505 13.4721V17.0201H191.523V33.0231H186.843V17.0201H181.861V13.4721H196.505ZM197.204 27.663C197.204 22.2281 201.507 20.907 207.432 20.907H208.376V20.2281C208.376 18.3031 207.432 16.4921 204.753 16.4921C202.413 16.4921 200.148 17.6621 199.242 18.4171V14.6051C200.563 14.0011 202.337 13.17 205.319 13.17C211.358 13.17 212.755 16.1141 212.755 21.0211V33.0231H208.527V30.3811H208.452C207.508 31.9281 205.961 33.3251 203.017 33.3251C199.77 33.3251 197.204 31.2111 197.204 27.663ZM208.375 25.1721V23.927H207.96C203.96 23.927 201.581 24.5311 201.581 27.3611C201.581 29.1351 202.751 30.1541 204.563 30.1541C206.715 30.1541 208.375 28.3801 208.375 25.1721ZM214.984 32.872V29.5511C215.249 29.6641 215.702 29.7781 216.079 29.7781C217.551 29.7781 218.155 29.174 218.155 19.059V13.4731H231.44V33.024H226.76V17.0201H222.193V19.0581C222.193 31.8151 220.683 33.3251 217.249 33.3251C216.457 33.3251 215.664 33.098 214.984 32.872Z" fill="#C4C4C4"/>
</svg>
