<svg width="65" height="65" viewBox="0 0 65 65" fill="none" xmlns="http://www.w3.org/2000/svg">
<g clip-path="url(#clip0)">
<mask id="path-1-inside-1" fill="white">
<path d="M48.4503 35.3856L41.257 32.3025C43.6801 31.3108 45.392 28.9287 45.392 26.153V12.7734C45.392 9.36165 44.0634 6.15393 41.6505 3.74105C39.2365 1.32856 36.0285 0 32.6173 0C25.5739 0 19.8436 5.73016 19.8436 12.7734V26.1531C19.8436 28.9046 21.5254 31.2703 23.9196 32.2773L16.6771 35.4264C13.6709 36.6906 11.7285 39.6152 11.7285 42.877V47.0368C11.7285 51.9421 15.531 55.9361 20.412 56.1914C20.4671 56.2013 20.5236 56.2074 20.5816 56.2074C20.6145 56.2074 20.647 56.2057 20.679 56.2024C20.753 56.2043 20.8271 56.2067 20.9011 56.2067H22.8143C23.2952 61.1353 27.4614 65 32.5142 65C35.1712 65 37.6541 63.9504 39.5057 62.0444C39.8722 61.6672 39.8635 61.0645 39.4864 60.6981C39.109 60.3316 38.5062 60.3404 38.1401 60.7175C36.65 62.2511 34.6521 63.0957 32.5142 63.0957C28.1915 63.0957 24.6748 59.5808 24.6715 55.259C24.6715 55.2575 24.6718 55.2561 24.6718 55.2546C24.6718 55.2528 24.6715 55.251 24.6715 55.2491C24.6737 50.9265 28.1909 47.4104 32.5142 47.4104C36.8377 47.4104 40.3552 50.9269 40.357 55.2499V55.2508C40.357 55.2515 40.3571 55.2523 40.3571 55.2532C40.3571 56.0492 40.2385 56.8339 40.0048 57.5856C39.8486 58.0877 40.1291 58.6214 40.6312 58.7775C41.1331 58.9337 41.667 58.6531 41.8231 58.1511C42.0203 57.5174 42.1499 56.8651 42.214 56.2029H44.1011C44.1757 56.2029 44.2506 56.2016 44.3249 56.1996C44.3626 56.2042 44.4009 56.2072 44.4399 56.2072C44.512 56.2072 44.582 56.1985 44.6494 56.1834C49.4968 55.8981 53.2699 51.9121 53.2699 47.0317V42.7818C53.2697 39.5861 51.3822 36.6848 48.4503 35.3856ZM27.9831 31.5339V28.8242C29.3308 29.5419 30.8673 29.9503 32.4979 29.9503C34.1295 29.9503 35.6668 29.5414 37.0152 28.8227V31.5338L32.498 35.4771L27.9831 31.5339ZM38.9193 30.8872V27.4913C40.7544 25.8479 41.9573 23.5136 42.1158 20.9012H42.8883C43.0961 20.9012 43.2964 20.8707 43.4877 20.8182V26.1531C43.4879 28.7122 41.448 30.8026 38.9193 30.8872ZM42.1377 18.9969V15.6745H42.8884C43.088 15.6745 43.2505 15.8369 43.2505 16.0366V18.6349C43.2505 18.8345 43.0881 18.997 42.8884 18.997H42.1377V18.9969ZM32.6173 1.9043C35.52 1.9043 38.25 3.03494 40.3043 5.08777C42.3572 7.14073 43.4879 9.87022 43.4879 12.7734V13.8534C43.2966 13.8008 43.0962 13.7704 42.8884 13.7704C40.9381 13.683 40.2427 14.2105 38.0847 14.2105C33.6922 14.2105 29.8309 11.406 28.4762 7.23176C28.3139 6.73156 27.777 6.45798 27.2766 6.61997C26.7765 6.78234 26.5026 7.31936 26.6649 7.81955C28.2752 12.7813 32.8644 16.1148 38.0847 16.1148C38.8075 16.1148 39.5257 16.0502 40.2313 15.9228V20.3117C40.2313 24.5766 36.762 28.0462 32.4978 28.0462C28.2328 28.0462 24.763 24.5766 24.763 20.3117L24.7647 15.4522C25.2684 15.2689 25.8626 14.9509 26.3938 14.3997C26.6666 14.1164 26.899 13.7957 27.0849 13.4466C27.3319 12.9825 27.1561 12.4059 26.6918 12.1587C26.2273 11.9114 25.6511 12.0877 25.4039 12.5519C25.3008 12.7452 25.1725 12.9226 25.022 13.0786C24.5758 13.5418 24.0434 13.7097 23.727 13.7705H22.1095C21.9859 13.7705 21.8657 13.783 21.7475 13.8022V12.7736C21.7478 6.78019 26.6239 1.9043 32.6173 1.9043ZM21.7478 16.0353C21.7484 15.8363 21.9105 15.6745 22.1097 15.6745H22.8587V18.9969H22.1097C21.9105 18.9969 21.7485 18.8351 21.7478 18.6361V16.0353ZM21.7478 26.1531V20.8696C21.866 20.8886 21.9862 20.9013 22.1097 20.9013H22.8786C23.0372 23.5153 24.2415 25.8507 26.0788 27.4942V30.8726C23.6563 30.6651 21.7478 28.6283 21.7478 26.1531ZM51.3654 47.0317C51.3654 50.6054 48.8129 53.574 45.3918 54.1826V43.9551C45.3918 43.4293 44.9656 43.003 44.4396 43.003C43.9137 43.003 43.4875 43.4293 43.4875 43.9551V54.2986H42.2139C41.7326 49.3705 37.5665 45.5061 32.514 45.5061C27.4603 45.5061 23.2934 49.3725 22.8139 54.3024H21.5335V43.9551C21.5335 43.4293 21.1073 43.003 20.5813 43.003C20.0554 43.003 19.6292 43.4293 19.6292 43.9551V54.1912C16.197 53.594 13.6326 50.6227 13.6326 47.0368V42.877C13.6326 40.3835 15.1173 38.148 17.4258 37.1772L23.0766 34.7203L24.8471 36.267C25.0277 36.4246 25.2509 36.5021 25.4732 36.5021C25.7386 36.5021 26.0024 36.3919 26.1906 36.1763C26.5366 35.7803 26.496 35.1788 26.1 34.8328L25.0093 33.88L26.8554 33.0774L31.8715 37.4582C32.0509 37.6148 32.2744 37.6931 32.4979 37.6931C32.7214 37.6931 32.9448 37.6148 33.1242 37.4583L38.1718 33.052L40.1848 33.9148L32.614 40.5232L28.9368 37.3108C28.5407 36.9649 27.9394 37.0054 27.5932 37.4014C27.2473 37.7974 27.2879 38.3989 27.6839 38.745L31.4401 42.0263C31.7748 42.3187 32.1942 42.4648 32.614 42.4648C33.0334 42.4648 33.4527 42.3188 33.7871 42.0269L42.1269 34.7472L47.6896 37.1314C49.9227 38.1208 51.3656 40.3388 51.3656 42.7818V47.0317H51.3654Z"/>
</mask>
<path d="M48.4503 35.3856L41.257 32.3025C43.6801 31.3108 45.392 28.9287 45.392 26.153V12.7734C45.392 9.36165 44.0634 6.15393 41.6505 3.74105C39.2365 1.32856 36.0285 0 32.6173 0C25.5739 0 19.8436 5.73016 19.8436 12.7734V26.1531C19.8436 28.9046 21.5254 31.2703 23.9196 32.2773L16.6771 35.4264C13.6709 36.6906 11.7285 39.6152 11.7285 42.877V47.0368C11.7285 51.9421 15.531 55.9361 20.412 56.1914C20.4671 56.2013 20.5236 56.2074 20.5816 56.2074C20.6145 56.2074 20.647 56.2057 20.679 56.2024C20.753 56.2043 20.8271 56.2067 20.9011 56.2067H22.8143C23.2952 61.1353 27.4614 65 32.5142 65C35.1712 65 37.6541 63.9504 39.5057 62.0444C39.8722 61.6672 39.8635 61.0645 39.4864 60.6981C39.109 60.3316 38.5062 60.3404 38.1401 60.7175C36.65 62.2511 34.6521 63.0957 32.5142 63.0957C28.1915 63.0957 24.6748 59.5808 24.6715 55.259C24.6715 55.2575 24.6718 55.2561 24.6718 55.2546C24.6718 55.2528 24.6715 55.251 24.6715 55.2491C24.6737 50.9265 28.1909 47.4104 32.5142 47.4104C36.8377 47.4104 40.3552 50.9269 40.357 55.2499V55.2508C40.357 55.2515 40.3571 55.2523 40.3571 55.2532C40.3571 56.0492 40.2385 56.8339 40.0048 57.5856C39.8486 58.0877 40.1291 58.6214 40.6312 58.7775C41.1331 58.9337 41.667 58.6531 41.8231 58.1511C42.0203 57.5174 42.1499 56.8651 42.214 56.2029H44.1011C44.1757 56.2029 44.2506 56.2016 44.3249 56.1996C44.3626 56.2042 44.4009 56.2072 44.4399 56.2072C44.512 56.2072 44.582 56.1985 44.6494 56.1834C49.4968 55.8981 53.2699 51.9121 53.2699 47.0317V42.7818C53.2697 39.5861 51.3822 36.6848 48.4503 35.3856ZM27.9831 31.5339V28.8242C29.3308 29.5419 30.8673 29.9503 32.4979 29.9503C34.1295 29.9503 35.6668 29.5414 37.0152 28.8227V31.5338L32.498 35.4771L27.9831 31.5339ZM38.9193 30.8872V27.4913C40.7544 25.8479 41.9573 23.5136 42.1158 20.9012H42.8883C43.0961 20.9012 43.2964 20.8707 43.4877 20.8182V26.1531C43.4879 28.7122 41.448 30.8026 38.9193 30.8872ZM42.1377 18.9969V15.6745H42.8884C43.088 15.6745 43.2505 15.8369 43.2505 16.0366V18.6349C43.2505 18.8345 43.0881 18.997 42.8884 18.997H42.1377V18.9969ZM32.6173 1.9043C35.52 1.9043 38.25 3.03494 40.3043 5.08777C42.3572 7.14073 43.4879 9.87022 43.4879 12.7734V13.8534C43.2966 13.8008 43.0962 13.7704 42.8884 13.7704C40.9381 13.683 40.2427 14.2105 38.0847 14.2105C33.6922 14.2105 29.8309 11.406 28.4762 7.23176C28.3139 6.73156 27.777 6.45798 27.2766 6.61997C26.7765 6.78234 26.5026 7.31936 26.6649 7.81955C28.2752 12.7813 32.8644 16.1148 38.0847 16.1148C38.8075 16.1148 39.5257 16.0502 40.2313 15.9228V20.3117C40.2313 24.5766 36.762 28.0462 32.4978 28.0462C28.2328 28.0462 24.763 24.5766 24.763 20.3117L24.7647 15.4522C25.2684 15.2689 25.8626 14.9509 26.3938 14.3997C26.6666 14.1164 26.899 13.7957 27.0849 13.4466C27.3319 12.9825 27.1561 12.4059 26.6918 12.1587C26.2273 11.9114 25.6511 12.0877 25.4039 12.5519C25.3008 12.7452 25.1725 12.9226 25.022 13.0786C24.5758 13.5418 24.0434 13.7097 23.727 13.7705H22.1095C21.9859 13.7705 21.8657 13.783 21.7475 13.8022V12.7736C21.7478 6.78019 26.6239 1.9043 32.6173 1.9043ZM21.7478 16.0353C21.7484 15.8363 21.9105 15.6745 22.1097 15.6745H22.8587V18.9969H22.1097C21.9105 18.9969 21.7485 18.8351 21.7478 18.6361V16.0353ZM21.7478 26.1531V20.8696C21.866 20.8886 21.9862 20.9013 22.1097 20.9013H22.8786C23.0372 23.5153 24.2415 25.8507 26.0788 27.4942V30.8726C23.6563 30.6651 21.7478 28.6283 21.7478 26.1531ZM51.3654 47.0317C51.3654 50.6054 48.8129 53.574 45.3918 54.1826V43.9551C45.3918 43.4293 44.9656 43.003 44.4396 43.003C43.9137 43.003 43.4875 43.4293 43.4875 43.9551V54.2986H42.2139C41.7326 49.3705 37.5665 45.5061 32.514 45.5061C27.4603 45.5061 23.2934 49.3725 22.8139 54.3024H21.5335V43.9551C21.5335 43.4293 21.1073 43.003 20.5813 43.003C20.0554 43.003 19.6292 43.4293 19.6292 43.9551V54.1912C16.197 53.594 13.6326 50.6227 13.6326 47.0368V42.877C13.6326 40.3835 15.1173 38.148 17.4258 37.1772L23.0766 34.7203L24.8471 36.267C25.0277 36.4246 25.2509 36.5021 25.4732 36.5021C25.7386 36.5021 26.0024 36.3919 26.1906 36.1763C26.5366 35.7803 26.496 35.1788 26.1 34.8328L25.0093 33.88L26.8554 33.0774L31.8715 37.4582C32.0509 37.6148 32.2744 37.6931 32.4979 37.6931C32.7214 37.6931 32.9448 37.6148 33.1242 37.4583L38.1718 33.052L40.1848 33.9148L32.614 40.5232L28.9368 37.3108C28.5407 36.9649 27.9394 37.0054 27.5932 37.4014C27.2473 37.7974 27.2879 38.3989 27.6839 38.745L31.4401 42.0263C31.7748 42.3187 32.1942 42.4648 32.614 42.4648C33.0334 42.4648 33.4527 42.3188 33.7871 42.0269L42.1269 34.7472L47.6896 37.1314C49.9227 38.1208 51.3656 40.3388 51.3656 42.7818V47.0317H51.3654Z" fill="#005896" stroke="#E3EEF7" stroke-width="0.4" mask="url(#path-1-inside-1)"/>
<path d="M30.4454 56.8993L30.5161 56.97L30.5868 56.8993L35.3857 52.1005L35.315 52.0298L35.3857 52.1005C35.7185 51.7677 36.258 51.7678 36.5911 52.1007C36.9238 52.4335 36.9238 52.9729 36.5909 53.3057L36.5909 53.3057L31.1187 58.7777L31.1187 58.7777C30.9524 58.9442 30.7344 59.0274 30.5162 59.0274C30.2979 59.0274 30.08 58.9442 29.9136 58.7777L27.9648 56.829L27.9648 56.829C27.632 56.4963 27.632 55.9568 27.9648 55.624C28.2976 55.2912 28.8371 55.2912 29.17 55.624L30.4454 56.8993Z" fill="#ED002F" stroke="#E3EEF7" stroke-width="0.2"/>
</g>
<defs>
<clipPath id="clip0">
<rect width="65" height="65" fill="white"/>
</clipPath>
</defs>
</svg>
