<svg width="57" height="57" viewBox="0 0 57 57" fill="none" xmlns="http://www.w3.org/2000/svg">
<path d="M43.5406 22.2656V22.3656H43.6406H53.2148C55.2468 22.3656 56.9 24.0188 56.9 26.0508V53.2148C56.9 55.2468 55.2468 56.9 53.2148 56.9H39.0762C38.5165 56.9 38.0629 56.4463 38.0629 55.8867C38.0629 55.3272 38.5165 54.8734 39.0762 54.8734H53.2148C54.1295 54.8734 54.8734 54.1295 54.8734 53.2148V36.8856V36.7523L54.7455 36.7895L38.7143 41.4517L38.6422 41.4727V41.5478V42.6387C38.6422 45.1617 36.5894 47.2145 34.0664 47.2145C31.5434 47.2145 29.4906 45.1617 29.4906 42.6387V41.5478V41.4727L29.4186 41.4517L13.3873 36.7895L13.2594 36.7523V36.8856V53.2148C13.2594 54.1295 14.0033 54.8734 14.918 54.8734H29.0566C29.6163 54.8734 30.0699 55.3272 30.0699 55.8867C30.0699 56.4463 29.6163 56.9 29.0566 56.9H14.918C12.886 56.9 11.2328 55.2468 11.2328 53.2148V50.9883V50.8883H11.1328H1.11328C0.553651 50.8883 0.1 50.4345 0.1 49.875V1.11328C0.1 0.553749 0.553651 0.1 1.11328 0.1H28.2866C28.5665 0.1 28.8197 0.213282 29.0031 0.396771L29.0031 0.396791L38.7999 10.1937C38.9932 10.3869 39.094 10.6458 39.0941 10.9102L39.0941 11.0102H39.0967V15.8086V15.9086H39.1967H40.6904C42.2619 15.9086 43.5406 17.1873 43.5406 18.7588V22.2656ZM41.4141 22.3656H41.5141V22.2656V18.7588C41.5141 18.3046 41.1447 17.9352 40.6904 17.9352H27.4424C26.9882 17.9352 26.6187 18.3046 26.6187 18.7588V22.2656V22.3656H26.7188H41.4141ZM29.4706 3.73037L29.2999 3.55966V3.80108V9.79688V9.89688H29.3999H35.3958H35.6372L35.4665 9.72616L29.4706 3.73037ZM2.12656 48.7617V48.8617H2.22656H11.1328H11.2328V48.7617V26.0508C11.2328 24.0188 12.886 22.3656 14.918 22.3656H24.4922H24.5922V22.2656V18.7588C24.5922 17.1873 25.8709 15.9086 27.4424 15.9086H36.9702H37.0702V15.8086V12.0234V11.9234H36.9702H28.2866C27.727 11.9234 27.2733 11.4697 27.2733 10.9102V2.22656V2.12656H27.1733H2.22656H2.12656V2.22656V48.7617ZM31.6172 39.1988H31.5172V39.2988V42.6387C31.5172 44.0444 32.6607 45.1879 34.0664 45.1879C35.4722 45.1879 36.6156 44.0444 36.6156 42.6387V39.2988V39.1988H36.5156H31.6172ZM29.3627 39.3248L29.4906 39.362V39.2288V38.1855C29.4906 37.626 29.9443 37.1723 30.5039 37.1723H37.6289C38.1885 37.1723 38.6422 37.626 38.6422 38.1855V39.2288V39.362L38.7701 39.3248L54.8014 34.6627L54.8734 34.6418V34.5667V26.0508C54.8734 25.1361 54.1295 24.3922 53.2148 24.3922H14.918C14.0033 24.3922 13.2594 25.1361 13.2594 26.0508V34.5667V34.6418L13.3315 34.6627L29.3627 39.3248Z" fill="#005896" stroke="#F4F8FB" stroke-width="0.2"/>
<path d="M20.0398 16.1313C20.5995 16.1313 21.0531 16.585 21.0531 17.1445C21.0531 17.7041 20.5995 18.1578 20.0398 18.1578H6.52148C5.96185 18.1578 5.5082 17.7041 5.5082 17.1445C5.5082 16.585 5.96185 16.1313 6.52148 16.1313H20.0398Z" fill="#ED002F" stroke="#F4F8FB" stroke-width="0.2"/>
<path d="M20.0398 11.9234H6.52148C5.96185 11.9234 5.5082 11.4697 5.5082 10.9102C5.5082 10.3506 5.96185 9.89688 6.52148 9.89688H20.0398C20.5995 9.89688 21.0531 10.3506 21.0531 10.9102C21.0531 11.4697 20.5995 11.9234 20.0398 11.9234Z" fill="#ED002F" stroke="#F4F8FB" stroke-width="0.2"/>
<path d="M33.35 55.1703L33.35 55.1703C33.5384 54.9819 33.8001 54.8734 34.0664 54.8734C34.3326 54.8734 34.5944 54.982 34.7828 55.1703C34.9711 55.3587 35.0797 55.6205 35.0797 55.8867C35.0797 56.153 34.9711 56.4147 34.7828 56.603L34.7828 56.603C34.5944 56.7914 34.3326 56.9 34.0664 56.9C33.8002 56.9 33.5384 56.7913 33.35 56.603L33.35 56.603C33.1617 56.4147 33.0531 56.153 33.0531 55.8867C33.0531 55.6205 33.1617 55.3587 33.35 55.1703Z" fill="#005896" stroke="#F4F8FB" stroke-width="0.2"/>
</svg>
