<svg width="55" height="55" viewBox="0 0 55 55" fill="none" xmlns="http://www.w3.org/2000/svg">
<path d="M36.1938 1.07422C36.1938 0.536264 36.63 0.1 37.168 0.1C37.7059 0.1 38.1422 0.536264 38.1422 1.07422V6.01562C38.1422 6.55358 37.7059 6.98984 37.168 6.98984C36.63 6.98984 36.1938 6.55358 36.1938 6.01562V1.07422Z" fill="#005896" stroke="#E3EEF7" stroke-width="0.2"/>
<path d="M11.4867 34.5898C11.4867 34.0521 11.9232 33.6156 12.4609 33.6156C12.9987 33.6156 13.4352 34.0521 13.4352 34.5898C13.4352 35.1276 12.9987 35.5641 12.4609 35.5641C11.9232 35.5641 11.4867 35.1276 11.4867 34.5898Z" fill="#ED002F" stroke="#E3EEF7" stroke-width="0.2"/>
<path d="M39.7977 27.0339L39.7445 27.1703H39.8909H47.9102C50.2242 27.1703 52.107 29.0531 52.107 31.3672C52.107 33.2135 50.9193 34.7623 49.2983 35.3293L49.1762 35.372L49.2483 35.4794C49.6967 36.1471 49.9586 36.9496 49.9586 37.8125C49.9586 39.6589 48.7715 41.2042 47.1577 41.7721L47.0363 41.8148L47.1076 41.9218C47.5545 42.5924 47.8102 43.3976 47.8102 44.2578C47.8102 46.1042 46.6224 47.653 45.0015 48.2199L44.8793 48.2626L44.9515 48.37C45.3998 49.0378 45.6617 49.8402 45.6617 50.7031C45.6617 53.0172 43.7789 54.9 41.4648 54.9H29.9127C24.9003 54.9 22.8435 54.3628 19.097 53.3843L19.0965 53.3842C18.6294 53.2622 18.1231 53.13 17.5777 52.9901L17.496 52.9691L17.4615 53.0461C16.974 54.1376 15.8791 54.9 14.6094 54.9H3.86719C3.32923 54.9 2.89297 54.4637 2.89297 53.9258V28.1445C2.89297 27.6066 3.32923 27.1703 3.86719 27.1703H14.6094C15.8876 27.1703 16.9889 27.9429 17.4714 29.046L17.5053 29.1234L17.5872 29.103C20.8849 28.2831 24.7242 26.916 27.7416 24.8989C30.7579 22.8825 32.9711 20.2033 32.9711 16.7578V15.6836C32.9711 13.3695 34.8539 11.4867 37.168 11.4867C39.4463 11.4867 41.3079 13.3158 41.3622 15.5828L41.3615 15.5828L41.3632 15.5945C41.3953 15.8198 41.4196 16.1825 41.438 16.8183C41.5346 20.1395 41.0334 23.8688 39.7977 27.0339ZM4.84141 52.8516V52.9516H4.94141H14.6094C15.2569 52.9516 15.7836 52.4249 15.7836 51.7773V30.293C15.7836 29.6454 15.2569 29.1187 14.6094 29.1187H4.94141H4.84141V29.2188V52.8516ZM17.732 50.9408V51.0186L17.8073 51.0378C18.4541 51.2027 19.0476 51.3576 19.5889 51.499C23.2878 52.465 25.1518 52.9516 29.9127 52.9516H41.4648C42.7047 52.9516 43.7133 51.943 43.7133 50.7031C43.7133 49.4632 42.7047 48.4547 41.4648 48.4547H38.2422C37.7042 48.4547 37.268 48.0184 37.268 47.4805C37.268 46.9425 37.7042 46.5062 38.2422 46.5062H38.2569H38.2716H38.2862H38.3008H38.3154H38.3299H38.3444H38.3588H38.3732H38.3875H38.4018H38.416H38.4302H38.4444H38.4585H38.4726H38.4866H38.5006H38.5145H38.5284H38.5423H38.5561H38.5699H38.5837H38.5974H38.611H38.6246H38.6382H38.6517H38.6652H38.6787H38.6921H38.7055H38.7188H38.7321H38.7454H38.7586H38.7718H38.7849H38.798H38.8111H38.8241H38.8371H38.85H38.863H38.8758H38.8887H38.9015H38.9142H38.927H38.9396H38.9523H38.9649H38.9775H38.99H39.0025H39.015H39.0275H39.0399H39.0522H39.0646H39.0769H39.0891H39.1013H39.1135H39.1257H39.1378H39.1499H39.162H39.174H39.186H39.1979H39.2099H39.2217H39.2336H39.2454H39.2572H39.269H39.2807H39.2924H39.3041H39.3157H39.3273H39.3389H39.3504H39.3619H39.3734H39.3849H39.3963H39.4077H39.419H39.4303H39.4416H39.4529H39.4641H39.4754H39.4865H39.4977H39.5088H39.5199H39.531H39.542H39.553H39.564H39.5749H39.5859H39.5968H39.6076H39.6185H39.6293H39.6401H39.6508H39.6616H39.6723H39.683H39.6936H39.7043H39.7149H39.7255H39.736H39.7466H39.7571H39.7675H39.778H39.7884H39.7988H39.8092H39.8196H39.8299H39.8402H39.8505H39.8608H39.871H39.8813H39.8915H39.9016H39.9118H39.9219H39.932H39.9421H39.9522H39.9622H39.9722H39.9822H39.9922H40.0022H40.0121H40.022H40.0319H40.0418H40.0517H40.0615H40.0713H40.0811H40.0909H40.1007H40.1104H40.1201H40.1298H40.1395H40.1492H40.1588H40.1684H40.1781H40.1876H40.1972H40.2068H40.2163H40.2258H40.2353H40.2448H40.2543H40.2638H40.2732H40.2826H40.292H40.3014H40.3108H40.3202H40.3295H40.3388H40.3482H40.3575H40.3668H40.376H40.3853H40.3945H40.4038H40.413H40.4222H40.4314H40.4405H40.4497H40.4589H40.468H40.4771H40.4862H40.4953H40.5044H40.5135H40.5226H40.5316H40.5407H40.5497H40.5587H40.5677H40.5767H40.5857H40.5947H40.6036H40.6126H40.6215H40.6305H40.6394H40.6483H40.6572H40.6661H40.675H40.6839H40.6928H40.7016H40.7105H40.7193H40.7282H40.737H40.7458H40.7547H40.7635H40.7723H40.7811H40.7899H40.7986H40.8074H40.8162H40.8249H40.8337H40.8424H40.8512H40.8599H40.8687H40.8774H40.8861H40.8948H40.9036H40.9123H40.921H40.9297H40.9384H40.9471H40.9558H40.9645H40.9731H40.9818H40.9905H40.9992H41.0079H41.0165H41.0252H41.0339H41.0425H41.0512H41.0599H41.0685H41.0772H41.0858H41.0945H41.1031H41.1118H41.1205H41.1291H41.1378H41.1464H41.1551H41.1637H41.1724H41.181H41.1897H41.1984H41.207H41.2157H41.2243H41.233H41.2417H41.2503H41.259H41.2677H41.2764H41.285H41.2937H41.3024H41.3111H41.3198H41.3285H41.3372H41.3459H41.3546H41.3633H41.372H41.3807H41.3894H41.3982H41.4069H41.4156H41.4244H41.4331H41.4419H41.4506H41.4594H41.4682H41.477H41.4858H41.4945H41.5033H41.5122H41.521H41.5298H41.5386H41.5475H41.5563H41.5652H41.574H41.5829H41.5918H41.6006H41.6095H41.6184H41.6274H41.6363H41.6452H41.6542H41.6631H41.6721H41.681H41.69H41.699H41.708H41.717H41.7261H41.7351H41.7442H41.7532H41.7623H41.7714H41.7805H41.7896H41.7987H41.8078H41.817H41.8261H41.8353H41.8445H41.8537H41.8629H41.8721H41.8814H41.8906H41.8999H41.9092H41.9185H41.9278H41.9371H41.9464H41.9558H41.9652H41.9745H41.9839H41.9934H42.0028H42.0123H42.0217H42.0312H42.0407H42.0502H42.0598H42.0693H42.0789H42.0885H42.0981H42.1077H42.1173H42.127H42.1367H42.1464H42.1561H42.1658H42.1756H42.1853H42.1951H42.2049H42.2148H42.2246H42.2345H42.2444H42.2543H42.2642H42.2742H42.2841H42.2941H42.3041H42.3142H42.3242H42.3343H42.3444H42.3545H42.3647H42.3748H42.385H42.3952H42.4055H42.4157H42.426H42.4363H42.4466H42.457H42.4674H42.4778H42.4882H42.4986H42.5091H42.5196H42.5301H42.5407H42.5513H42.5618H42.5725H42.5831H42.5938H42.6045H42.6152H42.626H42.6368H42.6476H42.6584H42.6693H42.6801H42.6911H42.702H42.713H42.724H42.735H42.7461H42.7571H42.7682H42.7794H42.7906H42.8018H42.813H42.8242H42.8355H42.8468H42.8582H42.8696H42.881H42.8924H42.9039H42.9154H42.9269H42.9384H42.95H42.9617H42.9733H42.985H42.9967H43.0085H43.0202H43.0321H43.0439H43.0558H43.0677H43.0796H43.0916H43.1036H43.1157H43.1277H43.1399H43.152H43.1642H43.1764H43.1886H43.2009H43.2132H43.2256H43.238H43.2504H43.2629H43.2754H43.2879H43.3005H43.3131H43.3257H43.3384H43.3511H43.3638H43.3766H43.3894H43.4023H43.4152H43.4281H43.4411H43.4541H43.4672H43.4803H43.4934H43.5065H43.5198H43.533H43.5463H43.5596H43.573H43.5864H43.5998H43.6133C44.8551 46.5062 45.8617 45.4996 45.8617 44.2578C45.8617 42.988 44.8378 42.0094 43.6133 42.0094H40.3906C39.8527 42.0094 39.4164 41.5731 39.4164 41.0352C39.4164 40.4972 39.8527 40.0609 40.3906 40.0609H45.7617C47.0035 40.0609 48.0102 39.0543 48.0102 37.8125C48.0102 36.5726 47.0016 35.5641 45.7617 35.5641H42.5391C42.0011 35.5641 41.5648 35.1278 41.5648 34.5898C41.5648 34.0519 42.0011 33.6156 42.5391 33.6156H42.5538H42.5685H42.5831H42.5977H42.6123H42.6268H42.6412H42.6557H42.67H42.6844H42.6987H42.7129H42.7271H42.7413H42.7554H42.7694H42.7835H42.7975H42.8114H42.8253H42.8392H42.853H42.8668H42.8805H42.8942H42.9079H42.9215H42.9351H42.9486H42.9621H42.9756H42.989H43.0024H43.0157H43.029H43.0422H43.0555H43.0686H43.0818H43.0949H43.108H43.121H43.134H43.1469H43.1598H43.1727H43.1855H43.1983H43.2111H43.2238H43.2365H43.2492H43.2618H43.2744H43.2869H43.2994H43.3119H43.3243H43.3367H43.3491H43.3614H43.3737H43.386H43.3982H43.4104H43.4226H43.4347H43.4468H43.4588H43.4709H43.4829H43.4948H43.5067H43.5186H43.5305H43.5423H43.5541H43.5659H43.5776H43.5893H43.6009H43.6126H43.6242H43.6358H43.6473H43.6588H43.6703H43.6817H43.6931H43.7045H43.7159H43.7272H43.7385H43.7498H43.761H43.7722H43.7834H43.7946H43.8057H43.8168H43.8278H43.8389H43.8499H43.8609H43.8718H43.8827H43.8936H43.9045H43.9154H43.9262H43.937H43.9477H43.9585H43.9692H43.9799H43.9905H44.0011H44.0118H44.0223H44.0329H44.0434H44.0539H44.0644H44.0749H44.0853H44.0957H44.1061H44.1165H44.1268H44.1371H44.1474H44.1577H44.1679H44.1781H44.1883H44.1985H44.2087H44.2188H44.2289H44.239H44.2491H44.2591H44.2691H44.2791H44.2891H44.2991H44.309H44.3189H44.3288H44.3387H44.3485H44.3584H44.3682H44.378H44.3878H44.3975H44.4073H44.417H44.4267H44.4364H44.446H44.4557H44.4653H44.4749H44.4845H44.4941H44.5037H44.5132H44.5227H44.5322H44.5417H44.5512H44.5606H44.5701H44.5795H44.5889H44.5983H44.6077H44.617H44.6264H44.6357H44.645H44.6543H44.6636H44.6729H44.6822H44.6914H44.7006H44.7099H44.7191H44.7282H44.7374H44.7466H44.7557H44.7649H44.774H44.7831H44.7922H44.8013H44.8104H44.8194H44.8285H44.8375H44.8466H44.8556H44.8646H44.8736H44.8826H44.8915H44.9005H44.9095H44.9184H44.9274H44.9363H44.9452H44.9541H44.963H44.9719H44.9808H44.9896H44.9985H45.0074H45.0162H45.0251H45.0339H45.0427H45.0515H45.0603H45.0691H45.0779H45.0867H45.0955H45.1043H45.1131H45.1218H45.1306H45.1393H45.1481H45.1568H45.1655H45.1743H45.183H45.1917H45.2004H45.2092H45.2179H45.2266H45.2353H45.244H45.2526H45.2613H45.27H45.2787H45.2874H45.2961H45.3047H45.3134H45.3221H45.3307H45.3394H45.3481H45.3567H45.3654H45.374H45.3827H45.3914H45.4H45.4087H45.4173H45.426H45.4346H45.4433H45.4519H45.4606H45.4693H45.4779H45.4866H45.4952H45.5039H45.5126H45.5212H45.5299H45.5385H45.5472H45.5559H45.5646H45.5732H45.5819H45.5906H45.5993H45.608H45.6166H45.6253H45.634H45.6427H45.6514H45.6602H45.6689H45.6776H45.6863H45.695H45.7038H45.7125H45.7213H45.73H45.7388H45.7475H45.7563H45.7651H45.7738H45.7826H45.7914H45.8002H45.809H45.8178H45.8267H45.8355H45.8443H45.8532H45.862H45.8709H45.8798H45.8886H45.8975H45.9064H45.9153H45.9242H45.9332H45.9421H45.951H45.96H45.9689H45.9779H45.9869H45.9959H46.0049H46.0139H46.0229H46.032H46.041H46.0501H46.0592H46.0682H46.0773H46.0864H46.0956H46.1047H46.1138H46.123H46.1322H46.1414H46.1506H46.1598H46.169H46.1782H46.1875H46.1968H46.206H46.2153H46.2246H46.234H46.2433H46.2527H46.262H46.2714H46.2808H46.2902H46.2997H46.3091H46.3186H46.3281H46.3376H46.3471H46.3566H46.3662H46.3757H46.3853H46.3949H46.4046H46.4142H46.4239H46.4335H46.4432H46.4529H46.4627H46.4724H46.4822H46.492H46.5018H46.5116H46.5215H46.5313H46.5412H46.5511H46.5611H46.571H46.581H46.591H46.601H46.611H46.6211H46.6312H46.6413H46.6514H46.6615H46.6717H46.6819H46.6921H46.7023H46.7126H46.7229H46.7332H46.7435H46.7539H46.7642H46.7746H46.7851H46.7955H46.806H46.8165H46.827H46.8376H46.8481H46.8587H46.8693H46.88H46.8907H46.9014H46.9121H46.9229H46.9336H46.9444H46.9553H46.9661H46.977H46.9879H46.9989H47.0098H47.0208H47.0319H47.0429H47.054H47.0651H47.0763H47.0874H47.0986H47.1099H47.1211H47.1324H47.1437H47.1551H47.1664H47.1778H47.1893H47.2007H47.2122H47.2238H47.2353H47.2469H47.2585H47.2702H47.2819H47.2936H47.3053H47.3171H47.3289H47.3408H47.3526H47.3646H47.3765H47.3885H47.4005H47.4125H47.4246H47.4367H47.4489H47.461H47.4733H47.4855H47.4978H47.5101H47.5225H47.5349H47.5473H47.5597H47.5722H47.5848H47.5973H47.6099H47.6226H47.6352H47.648H47.6607H47.6735H47.6863H47.6992H47.7121H47.725H47.738H47.751H47.764H47.7771H47.7903H47.8034H47.8166H47.8299H47.8432H47.8565H47.8698H47.8832H47.8967H47.9102C49.152 33.6156 50.1586 32.609 50.1586 31.3672C50.1586 30.1273 49.15 29.1187 47.9102 29.1187H47.9029H47.8953H47.8875H47.8795H47.8712H47.8627H47.854H47.845H47.8357H47.8263H47.8166H47.8066H47.7964H47.786H47.7754H47.7645H47.7534H47.7421H47.7305H47.7187H47.7067H47.6944H47.682H47.6693H47.6564H47.6432H47.6299H47.6163H47.6025H47.5885H47.5742H47.5598H47.5451H47.5303H47.5152H47.4999H47.4843H47.4686H47.4527H47.4366H47.4202H47.4037H47.3869H47.3699H47.3528H47.3354H47.3178H47.3001H47.2821H47.2639H47.2456H47.227H47.2082H47.1893H47.1702H47.1508H47.1313H47.1116H47.0917H47.0716H47.0513H47.0308H47.0102H46.9893H46.9683H46.9471H46.9257H46.9042H46.8824H46.8605H46.8384H46.8161H46.7937H46.771H46.7482H46.7253H46.7021H46.6788H46.6553H46.6316H46.6078H46.5838H46.5597H46.5354H46.5109H46.4862H46.4614H46.4365H46.4113H46.386H46.3606H46.335H46.3092H46.2833H46.2572H46.231H46.2047H46.1781H46.1515H46.1246H46.0977H46.0705H46.0433H46.0159H45.9883H45.9606H45.9328H45.9048H45.8767H45.8484H45.82H45.7915H45.7628H45.734H45.7051H45.676H45.6468H45.6175H45.588H45.5584H45.5287H45.4988H45.4688H45.4387H45.4085H45.3782H45.3477H45.3171H45.2864H45.2555H45.2246H45.1935H45.1623H45.131H45.0996H45.0681H45.0364H45.0047H44.9728H44.9408H44.9087H44.8765H44.8442H44.8118H44.7793H44.7467H44.714H44.6812H44.6483H44.6152H44.5821H44.5489H44.5156H44.4822H44.4487H44.4151H44.3814H44.3476H44.3137H44.2798H44.2457H44.2116H44.1774H44.143H44.1086H44.0742H44.0396H44.0049H43.9702H43.9354H43.9005H43.8656H43.8305H43.7954H43.7602H43.7249H43.6896H43.6542H43.6187H43.5831H43.5475H43.5118H43.476H43.4402H43.4043H43.3684H43.3323H43.2963H43.2601H43.2239H43.1876H43.1513H43.1149H43.0785H43.042H43.0055H42.9689H42.9322H42.8955H42.8587H42.8219H42.7851H42.7482H42.7112H42.6742H42.6372H42.6001H42.563H42.5258H42.4886H42.4514H42.4141H42.3767H42.3394H42.302H42.2645H42.2271H42.1896H42.152H42.1145H42.0769H42.0393H42.0016H41.9639H41.9262H41.8885H41.8508H41.813H41.7752H41.7374H41.6995H41.6617H41.6238H41.5859H41.548H41.5101H41.4721H41.4342H41.3962H41.3582H41.3202H41.2822H41.2442H41.2062H41.1682H41.1302H41.0922H41.0541H41.0161H40.9781H40.94H40.902H40.864H40.8259H40.7879H40.7499H40.7119H40.6739H40.6359H40.5979H40.5599H40.5219H40.4839H40.446H40.408H40.3701H40.3322H40.2943H40.2564H40.2186H40.1807H40.1429H40.1051H40.0674H40.0296H39.9919H39.9542H39.9165H39.8788H39.8412H39.8036H39.7661H39.7285H39.691H39.6536H39.6161H39.5787H39.5414H39.5041H39.4668H39.4295H39.3923H39.3552H39.318H39.2809H39.2439H39.2069H39.17H39.1331H39.0962H39.0594H39.0227H38.986H38.9493H38.9127H38.8762H38.8397H38.8032H38.7668H38.7305H38.6943H38.6581H38.6219H38.5858H38.5498H38.5139H38.478H38.4421H38.4064H38.3707H38.3351H38.2995H38.264H38.2286H38.1933H38.158H38.1228H38.0877H38.0527H38.0177H37.9828H37.948H37.9133H37.8786H37.8441H37.8096H37.7752H37.7409H37.7066H37.6725H37.6385H37.6045H37.5706H37.5368H37.5032H37.4696H37.4361H37.4027H37.3694H37.3361H37.303H37.27H37.2371H37.2043H37.1716H37.139H37.1064H37.074H37.0417H37.0096H36.9775H36.9455H36.9136H36.8819H36.8503H36.8187H36.7873H36.756H36.7248H36.6938H36.6628H36.632H36.6013H36.5707H36.5402H36.5098H36.4796H36.4495H36.4196H36.3897H36.36H36.3304H36.3009H36.2716H36.2424H36.2133H36.1844H36.1556H36.1269H36.0984H36.07H36.0418H36.0136H35.9857H35.9578H35.9301H35.9026H35.8752H35.8479H35.8208H35.7938H35.767H35.7404H35.7138H35.6875H35.6613H35.6352H35.6093H35.5835H35.5579H35.5325H35.5072H35.4821H35.4571H35.4323H35.4077H35.3832H35.3589H35.3347H35.3108H35.2869H35.2633H35.2398H35.2165H35.1934H35.1704H35.1476H35.125H35.1025H35.0803H35.0582H35.0362H35.0145H34.9929H34.9716H34.9504H34.9294H34.9085H34.8879H34.8674H34.8471H34.827H34.8072H34.7874H34.7679H34.7486H34.7295H34.7105H34.6918H34.6732H34.6549H34.6367H34.6187H34.601H34.5834H34.566H34.5489H34.5319H34.5152H34.4986H34.4823H34.4662H34.4502H34.4345H34.419H34.4037H34.3886H34.3738H34.3591H34.3447H34.3305H34.3164H34.3027H34.2891H34.2757H34.2626H34.2497H34.237H34.2245H34.2123H34.2003H34.1885H34.177H34.1656H34.1545H34.1437H34.133H34.1226H34.1125H34.1025H34.0928H34.0834H34.0741H34.0651H34.0564H34.0479H34.0396H34.0316H34.0238H34.0163H34.009H34.002H33.9952H33.9886H33.9823H33.9763H33.9705H33.9649H33.9597H33.9546H33.9498H33.9453C33.4074 29.1187 32.9711 28.6825 32.9711 28.1445C32.9711 27.6066 33.4074 27.1703 33.9453 27.1703H37.5626H37.6273L37.6538 27.1114C39.7908 22.3642 39.4978 17.1673 39.428 15.9299C39.4211 15.8079 39.4164 15.7244 39.4164 15.6836V15.6803V15.6801C39.414 14.4421 38.4057 13.4352 37.168 13.4352C35.9281 13.4352 34.9195 14.4437 34.9195 15.6836V16.7578C34.9195 20.726 32.5937 23.8358 29.283 26.1901C25.9721 28.5447 21.6887 30.1336 17.8089 31.0578L17.732 31.0761V31.155V50.9408Z" fill="#005896" stroke="#E3EEF7" stroke-width="0.2"/>
<path d="M11.4867 38.8867C11.4867 38.3488 11.923 37.9125 12.4609 37.9125C12.9989 37.9125 13.4352 38.3488 13.4352 38.8867V47.4805C13.4352 48.0184 12.9989 48.4547 12.4609 48.4547C11.923 48.4547 11.4867 48.0184 11.4867 47.4805V38.8867Z" fill="#ED002F" stroke="#E3EEF7" stroke-width="0.2"/>
<path d="M24.2773 13.6352H28.5742C29.1122 13.6352 29.5484 14.0714 29.5484 14.6094C29.5484 15.1473 29.1122 15.5836 28.5742 15.5836H24.2773C23.7394 15.5836 23.3031 15.1473 23.3031 14.6094C23.3031 14.0714 23.7394 13.6352 24.2773 13.6352Z" fill="#005896" stroke="#E3EEF7" stroke-width="0.2"/>
<path d="M45.7617 13.6352H50.0586C50.5965 13.6352 51.0328 14.0714 51.0328 14.6094C51.0328 15.1473 50.5965 15.5836 50.0586 15.5836H45.7617C45.2238 15.5836 44.7875 15.1473 44.7875 14.6094C44.7875 14.0714 45.2238 13.6352 45.7617 13.6352Z" fill="#005896" stroke="#E3EEF7" stroke-width="0.2"/>
<path d="M45.593 4.80565C45.593 4.80566 45.593 4.80567 45.593 4.80568L42.5552 7.84343C42.1748 8.22385 42.1748 8.84071 42.5552 9.22126C42.9359 9.60169 43.5524 9.60162 43.9331 9.22128C43.9331 9.22127 43.9331 9.22126 43.9331 9.22125L46.9709 6.1835C47.3513 5.80308 47.3513 5.18622 46.9709 4.80567C46.9709 4.80566 46.9709 4.80565 46.9709 4.80564M45.593 4.80565L45.5223 4.73494C45.942 4.31557 46.622 4.31557 47.0416 4.73494L46.9709 4.80564M45.593 4.80565C45.9737 4.42532 46.5903 4.42534 46.9709 4.80564M45.593 4.80565L46.9709 4.80564" fill="#005896" stroke="#E3EEF7" stroke-width="0.2"/>
<path d="M28.7417 4.80567C28.7417 4.80566 28.7417 4.80566 28.7417 4.80565C28.3612 4.42534 27.7445 4.42532 27.3638 4.80565C27.3638 4.80566 27.3638 4.80567 27.3638 4.80568M28.7417 4.80567L27.3638 4.80568M28.7417 4.80567L31.7795 7.84342C31.7795 7.84343 31.7795 7.84343 31.7795 7.84343L28.7417 4.80567ZM27.3638 4.80568C26.9834 5.1861 26.9834 5.80296 27.3638 6.1835L27.3638 4.80568ZM31.7795 9.22128C31.3989 9.6016 30.7824 9.60171 30.4016 9.22128C30.4016 9.22127 30.4016 9.22126 30.4016 9.22125L27.3638 6.18351L31.7795 9.22128Z" fill="#005896" stroke="#E3EEF7" stroke-width="0.2"/>
</svg>
