<svg width="56" height="56" viewBox="0 0 56 56" fill="none" xmlns="http://www.w3.org/2000/svg">
<path d="M20.4578 38.1809L20.3871 38.1102L17.8857 35.6089L17.815 35.5382L17.8857 35.4674L20.7232 32.63C20.7276 32.6256 20.7319 32.622 20.7333 32.6209L20.7335 32.6207L27.0303 26.3237L27.0303 26.3237C27.7589 25.5954 28.9439 25.5953 29.6722 26.3237C29.6722 26.3237 29.6722 26.3237 29.6722 26.3237M20.4578 38.1809L29.6019 28.8955C30.2819 28.2156 30.2799 27.0728 29.6015 26.3944L29.6722 26.3237M20.4578 38.1809L20.5285 38.1101L29.6726 28.9662C30.3917 28.2472 30.3896 27.041 29.6722 26.3237M20.4578 38.1809L29.6722 26.3237M34.8032 6.0243L34.8033 6.0242L34.8222 6.00528C36.5373 4.29011 38.6789 3.03364 41.014 2.37286L48.2585 0.322515L48.2313 0.226303L48.2585 0.322509C50.3318 -0.264785 52.6183 0.332429 54.1414 1.85517C55.6778 3.39184 56.2648 5.64568 55.6735 7.73717L53.623 14.982C52.9617 17.3186 51.7046 19.4613 49.9874 21.1784L38.345 32.8208L38.3098 32.856L38.3167 32.9053L39.4074 40.7328C39.8205 43.6982 38.8031 46.7331 36.6859 48.8503L33.204 52.3324C32.8223 52.714 32.1801 52.7139 31.7985 52.3324L28.2316 48.7654C27.0772 47.6112 26.4416 46.0768 26.4416 44.4442C26.4416 43.1762 26.8267 41.9686 27.5385 40.9512L27.5866 40.8825L27.5273 40.8232L24.1475 37.4435L24.0768 37.3728L24.0061 37.4435L21.1605 40.2891C20.7785 40.6709 20.1369 40.6708 19.755 40.2891L15.7069 36.2409C15.3188 35.8528 15.3188 35.2235 15.7069 34.8355L18.5524 31.99L18.6231 31.9193L18.5524 31.8486L15.1727 28.4688L15.1134 28.4095L15.0446 28.4575C14.0273 29.1694 12.8197 29.5543 11.5517 29.5543C9.91908 29.5543 8.38472 28.9188 7.23032 27.7644L3.66352 24.1976C3.66352 24.1976 3.66351 24.1976 3.6635 24.1976C3.28191 23.8158 3.28201 23.1738 3.6635 22.7921C3.66351 22.7921 3.66352 22.7921 3.66352 22.7921L7.14556 19.3101C9.26276 17.1929 12.2973 16.1751 15.2632 16.5886L23.0917 17.6795L23.141 17.6864L23.1762 17.6512L28.0479 12.7794C28.0479 12.7794 28.0479 12.7794 28.0479 12.7794C28.4361 12.3914 29.0654 12.3915 29.4534 12.7794C29.8415 13.1676 29.8415 13.7968 29.4534 14.1849L16.6473 26.991L16.5766 27.0617L16.6473 27.1324L19.9579 30.4431L20.0286 30.5138L20.0994 30.4431L25.6244 24.918C27.1279 23.4146 29.5745 23.4145 31.0781 24.918C32.5632 26.4033 32.5623 28.8878 31.0776 30.3725L25.5532 35.897L25.4825 35.9677L25.5532 36.0384L28.864 39.349L28.9347 39.4197L29.0054 39.349L48.5819 19.7729C50.0596 18.2953 51.1413 16.4515 51.7104 14.4407L53.7609 7.19609C54.1567 5.79668 53.7641 4.28867 52.736 3.26063C51.7169 2.24137 50.1874 1.84186 48.7999 2.23488L41.5552 4.28522C39.5459 4.85392 37.7033 5.93501 36.2264 7.41183L36.2065 7.43174C35.8179 7.81923 35.1887 7.8185 34.8012 7.42977C34.4136 7.04099 34.4145 6.41175 34.8032 6.0243ZM5.84225 23.4241L5.77154 23.4948L5.84225 23.5655L8.63579 26.3589C9.41459 27.1378 10.4504 27.5668 11.5518 27.5668C12.6531 27.5668 13.6891 27.1378 14.4678 26.359L21.2372 19.5896L21.3792 19.4476L21.1803 19.4199L14.9888 18.557C12.6362 18.2288 10.2302 19.0361 8.55092 20.7154L5.84225 23.4241ZM20.7317 32.6224C20.7318 32.6223 20.7319 32.6222 20.732 32.6221L20.7318 32.6224L20.7317 32.6224ZM32.4305 50.1536L32.5012 50.2243L32.5719 50.1536L35.2805 47.445C36.9599 45.7657 37.7666 43.3593 37.4389 41.0071L36.5761 34.8163L36.5484 34.6173L36.4064 34.7593L29.6395 41.5262C29.6382 41.5274 29.6362 41.5292 29.6341 41.5313L29.634 41.5314C28.8572 42.3097 28.4291 43.3443 28.4291 44.4442C28.4291 45.5454 28.8583 46.5814 29.6369 47.3601L32.4305 50.1536Z" fill="#005896" stroke="white" stroke-width="0.2"/>
<path d="M42.4389 13.5573C43.5393 14.6576 43.5392 16.4479 42.4389 17.5482C41.3505 18.6366 39.5367 18.6367 38.4481 17.5482C37.3597 16.4599 37.3594 14.6457 38.4481 13.5573H42.4389ZM42.4389 13.5573C41.3506 12.4691 39.5363 12.4691 38.4481 13.5573L42.4389 13.5573ZM43.8443 18.9536C42.9358 19.862 41.7284 20.3622 40.4435 20.3622C39.1587 20.3622 37.9512 19.862 37.0428 18.9536C35.1894 17.1002 35.1894 14.0054 37.0428 12.152C38.896 10.2988 41.9911 10.2989 43.8443 12.152C45.7193 14.0271 45.7194 17.0783 43.8443 18.9536C43.8443 18.9536 43.8443 18.9536 43.8443 18.9536Z" fill="#ED002F" stroke="white" stroke-width="0.2"/>
<path d="M11.2061 33.6644C10.818 33.2765 10.1887 33.2764 9.80069 33.6644C9.80069 33.6644 9.80069 33.6644 9.80068 33.6644L0.391039 43.074C0.00300106 43.462 0.00297895 44.0913 0.391021 44.4794C0.39103 44.4795 0.391039 44.4795 0.391048 44.4795M11.2061 33.6644L11.2767 33.5936C11.7039 34.0209 11.7039 34.7134 11.2767 35.1405L1.86709 44.5502C1.44568 44.9716 0.741746 44.9714 0.320329 44.5502L0.391048 44.4795M11.2061 33.6644C11.5941 34.0525 11.5941 34.6818 11.206 35.0698L1.79638 44.4795C1.41405 44.8618 0.773444 44.8616 0.391048 44.4795M11.2061 33.6644L0.391048 44.4795" fill="#005896" stroke="white" stroke-width="0.2"/>
<path d="M12.4214 42.4784C12.4214 42.4784 12.4214 42.4784 12.4214 42.4784L1.68596 53.2138C1.29792 53.6019 1.2979 54.2311 1.68595 54.6193C1.68596 54.6193 1.68596 54.6193 1.68597 54.6193M12.4214 42.4784L1.68597 54.6193M12.4214 42.4784C12.8096 42.0904 13.4388 42.0904 13.8269 42.4784M12.4214 42.4784L13.8269 42.4784M1.68597 54.6193C2.06834 55.0015 2.70905 55.0015 3.09141 54.6193M1.68597 54.6193L3.09141 54.6193M3.09141 54.6193C3.09142 54.6193 3.09142 54.6193 3.09142 54.6193L13.8269 43.8838C14.2149 43.4958 14.215 42.8665 13.8269 42.4784C13.8269 42.4784 13.8269 42.4784 13.8269 42.4784M3.09141 54.6193L12.3507 42.4076C12.7779 41.9807 13.4705 41.9807 13.8976 42.4076L13.8269 42.4784" fill="#005896" stroke="white" stroke-width="0.2"/>
<path d="M22.192 42.8396L16.8735 48.1581C16.4854 48.5462 16.4854 49.1754 16.8735 49.5636C17.0676 49.7576 17.3217 49.8547 17.5761 49.8547C17.8306 49.8547 18.0848 49.7576 18.2788 49.5636L23.5973 44.2451C23.9854 43.857 23.9855 43.2278 23.5974 42.8396C23.5973 42.8396 23.5973 42.8396 23.5973 42.8396M22.192 42.8396L22.1213 42.7689C22.5484 42.342 23.2409 42.342 23.668 42.7689L23.5973 42.8396M22.192 42.8396C22.192 42.8396 22.192 42.8396 22.192 42.8396C22.58 42.4518 23.2093 42.4518 23.5973 42.8396M22.192 42.8396L23.5973 42.8396" fill="#005896" stroke="white" stroke-width="0.2"/>
<path d="M13.5492 51.7924C14.0491 51.5851 14.6388 51.8309 14.847 52.3302C15.0548 52.8294 14.8084 53.4207 14.3093 53.6279C13.81 53.8351 13.2187 53.5895 13.0116 53.0902L13.0115 53.0902C12.8044 52.5914 13.0502 51.9994 13.5492 51.7924ZM13.5492 51.7924L13.5109 51.7L13.5492 51.7924Z" fill="#005896" stroke="white" stroke-width="0.2"/>
<path d="M33.0095 10.5094L33.0095 10.5094C33.1612 10.1153 33.0415 9.65022 32.7136 9.38407L33.0095 10.5094ZM33.0095 10.5094C32.6948 11.3275 31.5014 11.3385 31.1655 10.5323C30.9812 10.0829 31.1542 9.5492 31.5719 9.30009L31.5719 9.30009M33.0095 10.5094L31.5719 9.30009M31.5719 9.30009C31.9292 9.08695 32.3904 9.12186 32.7136 9.38406L31.5719 9.30009Z" fill="#005896" stroke="white" stroke-width="0.2"/>
</svg>
