<svg width="55" height="55" viewBox="0 0 55 55" fill="none" xmlns="http://www.w3.org/2000/svg">
<g clip-path="url(#clip0)">
<path d="M37.1096 22.5989C34.9135 22.5989 33.0232 21.0475 32.5948 18.8933C32.1663 16.7395 33.319 14.5826 35.3482 13.7423C37.3771 12.9021 39.7174 13.612 40.9375 15.438C42.1576 17.2646 41.9175 19.698 40.3643 21.2507C39.503 22.117 38.331 22.6021 37.1096 22.5989V22.5989ZM37.1096 15.2335C35.9929 15.2335 34.9859 15.9065 34.5584 16.9386C34.1309 17.9704 34.3673 19.1581 35.1567 19.9484C36.2496 20.9913 37.9696 20.9913 39.0624 19.9484C39.8523 19.1581 40.0883 17.9704 39.6608 16.9386C39.2332 15.9065 38.2267 15.2335 37.1096 15.2335Z" fill="#ED002F"/>
<path d="M30.3292 23.4742L27.7245 26.078C27.4854 26.3091 27.3892 26.6516 27.4733 26.9735C27.5578 27.2954 27.8091 27.5467 28.1309 27.6308C28.4528 27.7153 28.7954 27.6191 29.0264 27.3799L31.6311 24.7761C31.98 24.4151 31.975 23.8406 31.6199 23.4855C31.2647 23.1303 30.6902 23.1254 30.3292 23.4742V23.4742Z" fill="#005896"/>
<path d="M25.1215 28.6818L24.4705 29.3327C24.2255 29.5624 24.1253 29.9072 24.2084 30.2327C24.2921 30.5582 24.546 30.8122 24.8711 30.8958C25.1965 30.9794 25.5418 30.8791 25.7715 30.6346L26.4225 29.9836C26.7713 29.6222 26.7664 29.0481 26.4112 28.693C26.0561 28.3378 25.482 28.3329 25.1206 28.6818H25.1215Z" fill="#005896"/>
<path d="M55.0137 1.79758L54.9566 0.999629C54.922 0.546484 54.5619 0.185946 54.1083 0.151331L53.3103 0.0906418C43.2265 -0.692022 33.416 3.60386 27.152 11.5447L23.3412 16.3665C18.6173 13.3393 12.4221 14.0163 8.46338 17.9926C8.28941 18.1652 8.19141 18.3999 8.19141 18.6449C8.19141 18.8899 8.28851 19.125 8.46248 19.298L15.4768 26.3209L15.3774 26.4468C14.5085 27.5464 14.6002 29.122 15.591 30.1128L15.6233 30.1443L13.6714 32.0953C11.8773 33.8949 11.8773 36.8066 13.6714 38.6062L16.4991 41.4338C18.2991 43.2271 21.2099 43.2271 23.0099 41.4338L24.9627 39.4801L24.9942 39.5111C25.9845 40.5028 27.5602 40.5954 28.6602 39.7269L28.7861 39.6262L35.8063 46.6418C35.9793 46.8145 36.2131 46.9111 36.4572 46.9107C36.7018 46.9107 36.9364 46.8136 37.1091 46.64C41.0844 42.6804 41.761 36.4852 38.7342 31.7609L43.5592 27.9523C51.4978 21.6878 55.7932 11.88 55.0137 1.79758V1.79758ZM10.4472 18.6745C13.7717 15.8909 18.5045 15.5461 22.1971 17.8195L16.6285 24.8635L10.4472 18.6745ZM21.708 40.1265C20.6282 41.2032 18.8808 41.2032 17.801 40.1265L14.9733 37.2998C13.8971 36.22 13.8971 34.4726 14.9733 33.3923L16.927 31.4408L23.6608 38.1737L21.708 40.1265ZM38.78 38.1809C38.7832 40.5491 37.9506 42.8423 36.4298 44.6571L30.2418 38.4753L37.2848 32.9081C38.2653 34.4919 38.7832 36.3184 38.78 38.1809V38.1809ZM42.4178 26.5039L27.5202 38.2802C27.1543 38.5693 26.6296 38.5392 26.2997 38.2097L16.8956 28.8082C16.5638 28.4778 16.5328 27.951 16.8241 27.5841L28.6005 12.6865C30.8023 9.90383 33.5041 7.55584 36.5669 5.76394L49.3494 18.5374C47.5543 21.6011 45.2036 24.3024 42.4178 26.5039V26.5039ZM50.2611 16.8453L38.2545 4.84327C42.2056 2.8693 46.5613 1.84118 50.9781 1.83983C51.7046 1.83983 52.4355 1.86771 53.1656 1.9239L53.1777 1.93559C53.572 7.07797 52.5636 12.2307 50.2611 16.8453Z" fill="#005896"/>
<path d="M1.02439 54.9998C0.747914 54.9998 0.485827 54.8757 0.310953 54.6613C0.136078 54.4473 0.066848 54.1659 0.122143 53.8948C0.334779 52.8609 2.26154 43.7278 4.54975 41.441C7.06677 38.924 11.1473 38.924 13.6643 41.441C16.1814 43.958 16.1814 48.0386 13.6643 50.5556C11.3784 52.8429 2.24806 54.7697 1.2114 54.9823C1.14981 54.994 1.08687 54.9998 1.02439 54.9998ZM9.10592 41.3942C7.8845 41.3906 6.71297 41.8762 5.85164 42.742C4.58931 44.0043 3.08961 49.1445 2.22873 52.8739C5.95908 52.018 11.0992 50.5142 12.3607 49.2528C13.6774 47.9365 14.0716 45.9563 13.3591 44.2363C12.6466 42.5159 10.968 41.3942 9.10592 41.3942V41.3942Z" fill="#005896"/>
<path d="M20.9207 50.7362C20.548 50.7362 20.2126 50.5118 20.0701 50.1679C19.9276 49.824 20.0063 49.428 20.2697 49.1645L24.175 45.2584C24.5364 44.9096 25.1105 44.9145 25.4656 45.2697C25.8208 45.6248 25.8257 46.1989 25.4769 46.5603L21.5716 50.4664C21.399 50.6391 21.1648 50.7362 20.9207 50.7362V50.7362Z" fill="#005896"/>
<path d="M5.92068 33.7362C5.548 33.7362 5.21264 33.5118 5.07013 33.1679C4.92763 32.824 5.0063 32.428 5.26973 32.1645L9.17496 28.2584C9.5364 27.9096 10.1105 27.9145 10.4656 28.2697C10.8208 28.6248 10.8257 29.1989 10.4769 29.5603L6.57163 33.4664C6.399 33.6391 6.16478 33.7362 5.92068 33.7362V33.7362Z" fill="#005896"/>
<path d="M28.2195 51.7454C27.8468 51.7454 27.5115 51.5211 27.369 51.1772C27.2265 50.8333 27.3051 50.4372 27.5686 50.1738L31.4738 46.2677C31.8352 45.9188 32.4093 45.9238 32.7644 46.2789C33.1196 46.6341 33.1245 47.2081 32.7757 47.5696L28.8705 51.4757C28.6978 51.6483 28.4636 51.7454 28.2195 51.7454V51.7454Z" fill="#005896"/>
<path d="M17.5984 54.0792C17.2262 54.0792 16.8904 53.8549 16.7479 53.511C16.6054 53.1667 16.684 52.7711 16.9475 52.5076L17.5984 51.8567C17.8295 51.6175 18.172 51.5213 18.4939 51.6058C18.8158 51.6899 19.0671 51.9412 19.1512 52.2631C19.2357 52.5849 19.1395 52.9275 18.9003 53.1586L18.2494 53.8095C18.0767 53.9821 17.8425 54.0792 17.5984 54.0792Z" fill="#005896"/>
<path d="M1.02615 38.4279C0.653921 38.4279 0.318108 38.2035 0.175601 37.8596C0.0330943 37.5153 0.111765 37.1197 0.375201 36.8563L1.02615 36.2053C1.25722 35.9661 1.59977 35.8699 1.92165 35.9545C2.24352 36.0385 2.49482 36.2898 2.57889 36.6117C2.6634 36.9336 2.5672 37.2761 2.32804 37.5072L1.67709 38.1581C1.50447 38.3308 1.27025 38.4279 1.02615 38.4279Z" fill="#005896"/>
</g>
<defs>
<clipPath id="clip0">
<rect width="55" height="55" fill="white"/>
</clipPath>
</defs>
</svg>
