<svg width="61" height="61" viewBox="0 0 61 61" fill="none" xmlns="http://www.w3.org/2000/svg">
<path d="M37.6629 42.8178V43.1799L37.9189 42.9239L45.6373 35.2052C45.8189 35.0238 46.0645 34.9223 46.3212 34.9223H52.6877C55.0547 34.9223 56.9806 32.9965 56.9806 30.6295V26.649C56.9806 26.1154 57.4133 25.682 57.9475 25.682C58.4811 25.682 58.9144 26.1154 58.9144 26.649V30.6295C58.9144 34.0629 56.1212 36.8562 52.6877 36.8562H46.7837H46.7215L46.6776 36.9001L37.3797 46.1976L37.3797 46.1977C37.1948 46.3829 36.9477 46.4811 36.6959 46.4811C36.5712 46.4811 36.4455 46.457 36.3262 46.4074L36.326 46.4073C35.9646 46.2578 35.729 45.9055 35.729 45.5142V37.0062V36.8562H35.579H30.0026H29.8526V37.0062V42.6963C29.8526 44.9964 27.9816 46.8672 25.6818 46.8672H17.0569H16.9069V47.0172V51.7638C16.9069 52.1551 16.6713 52.5074 16.3098 52.657L16.3097 52.6571C16.1904 52.7066 16.0644 52.7308 15.94 52.7308C15.6885 52.7308 15.441 52.6325 15.2558 52.4473L9.71995 46.9111L9.67601 46.8672H9.61388H6.19778C3.89837 46.8672 2.02695 44.9964 2.02695 42.6963V32.4037C2.02695 30.1036 3.89837 28.2329 6.19778 28.2329H14.3274H14.4774V28.0829V13.7333C14.4774 10.3002 17.2706 7.50693 20.7041 7.50693H52.6877C56.1212 7.50693 58.9144 10.3002 58.9144 13.7333V17.7134C58.9144 18.2477 58.4811 18.6804 57.9475 18.6804C57.4132 18.6804 56.9806 18.2477 56.9806 17.7134V13.7333C56.9806 11.3663 55.0547 9.44082 52.6877 9.44082H20.7041C18.3371 9.44082 16.4113 11.3663 16.4113 13.7333V30.6295C16.4113 32.9968 18.3371 34.9223 20.7041 34.9223H36.6959C37.2299 34.9223 37.6629 35.355 37.6629 35.8893V42.8178ZM14.717 49.1735L14.973 49.4296V49.0674V45.9002C14.973 45.3666 15.4058 44.9333 15.94 44.9333H25.6818C26.9158 44.9333 27.9191 43.9304 27.9191 42.6963V37.0062V36.8562H27.7691H20.7041C17.2706 36.8562 14.4774 34.0629 14.4774 30.6295V30.3168V30.1668H14.3274H6.19778C4.96413 30.1668 3.96084 31.1701 3.96084 32.4037V42.6963C3.96084 43.9303 4.96415 44.9333 6.19778 44.9333H10.0764C10.3328 44.9333 10.5788 45.0354 10.7602 45.2167L14.717 49.1735Z" fill="#005896" stroke="#E3EEF7" stroke-width="0.3"/>
<path d="M25.8064 14.7763H47.5868C48.1483 14.7763 48.6037 15.2317 48.6037 15.7932C48.6037 16.3551 48.1483 16.8102 47.5868 16.8102H25.8064C25.2448 16.8102 24.7895 16.3551 24.7895 15.7932C24.7895 15.2317 25.2449 14.7763 25.8064 14.7763Z" fill="#005896" stroke="#E3EEF7" stroke-width="0.2"/>
<path d="M47.5868 20.8085C48.1483 20.8085 48.6037 21.2639 48.6037 21.8254C48.6037 22.3873 48.1483 22.8424 47.5868 22.8424H25.8064C25.2448 22.8424 24.7895 22.3873 24.7895 21.8254C24.7895 21.2639 25.2449 20.8085 25.8064 20.8085H47.5868Z" fill="#ED002F" stroke="#E3EEF7" stroke-width="0.2"/>
<path d="M24.7895 27.8567C24.7895 27.2952 25.2449 26.8397 25.8064 26.8397H38.372C38.9335 26.8397 39.3889 27.2952 39.3889 27.8567C39.3889 28.4186 38.9336 28.8736 38.372 28.8736H25.8064C25.2448 28.8736 24.7895 28.4186 24.7895 27.8567Z" fill="#005896" stroke="#E3EEF7" stroke-width="0.2"/>
<path d="M57.947 21.064C57.332 21.064 56.8301 21.5659 56.8301 22.1809C56.8301 22.7963 57.332 23.2979 57.947 23.2979C58.562 23.2979 59.064 22.7963 59.064 22.1809C59.064 21.5659 58.562 21.064 57.947 21.064Z" fill="#ED002F"/>
</svg>
